<svg xmlns="http://www.w3.org/2000/svg"><defs><font id="ProximaNovaCond-Semibold" horiz-adv-x="467"><font-face font-family="Proxima Nova Cn Lt" font-weight="600" panose-1="2 0 5 6 3 0 0 2 0 4" ascent="790" descent="-210" x-height="483" cap-height="667" bbox="-136 -280 954 887" underline-thickness="20" underline-position="-173" unicode-range="U+000D-FB04"/><glyph glyph-name="f_f_j" unicode="ffj" horiz-adv-x="765" d="M453 0H353v396h-63v87h63v45q0 71 36 110t95 39q44 0 73-16l-21-77q-11 9-31 9-24 0-38-17t-14-48v-45h80v-87h-80V0zm203 544q-26 0-44.5 18.5T593 606q0 26 18.5 44.5T656 669t44-18.5 18-44.5-18-44-44-18zm-90-740q-53 0-87 31l28 75q20-22 47-22 52 0 52 71v524h100V-41q0-155-140-155zM179 0H79v396H16v87h63v45q0 70 36.5 109.5T215 677q62 0 97-34l-34-70q-20 20-45 20-54 0-54-65v-45h80v-87h-80V0z"/><glyph glyph-name="f_j" unicode="fj" horiz-adv-x="491" d="M179 0H79v396H16v87h63v45q0 71 36 110t95 39q44 0 73-16l-21-77q-10 9-31 9-24 0-38-17t-14-48v-45h80v-87h-80V0zm204 544q-26 0-44.5 18.5T320 606q0 26 18.5 44.5T383 669t44-18.5 18-44.5-18.5-44-43.5-18zm-90-740q-53 0-87 31l28 75q20-22 47-22 52 0 52 71v524h100V-41q0-155-140-155z"/><glyph glyph-name="f_f" unicode="ff" horiz-adv-x="547" d="M179 0H79v396H16v87h63v45q0 70 36.5 109.5T215 677q62 0 97-34l-34-70q-20 20-45 20-54 0-54-65v-45h80v-87h-80V0zm274 0H353v396h-63v87h63v45q0 70 36.5 109.5T489 677q62 0 97-34l-34-70q-20 20-45 20-54 0-54-65v-45h80v-87h-80V0z"/><glyph glyph-name="fi" unicode="fi" horiz-adv-x="491" d="M179 0H79v396H16v87h63v45q0 71 36 110t95 39q44 0 73-16l-21-77q-10 9-31 9-24 0-38-17t-14-48v-45h80v-87h-80V0zm204 544q-26 0-44.5 18.5T320 606q0 26 18.5 44.5T383 669t44-18.5 18-44.5-18.5-44-43.5-18zM433 0H333v483h100V0z"/><glyph glyph-name="fl" unicode="fl" horiz-adv-x="491" d="M179 0H79v396H16v87h63v45q0 71 36 110t95 39q44 0 73-16l-21-77q-10 9-31 9-24 0-38-17t-14-48v-45h80v-87h-80V0zm254 0H333v667h100V0z"/><glyph glyph-name="f_f_i" unicode="ffi" horiz-adv-x="765" d="M453 0H353v396h-63v87h63v45q0 71 36 110t95 39q44 0 73-16l-21-77q-11 9-31 9-24 0-38-17t-14-48v-45h80v-87h-80V0zm203 544q-26 0-44.5 18.5T593 606q0 26 18.5 44.5T656 669t44-18.5 18-44.5-18-44-44-18zM706 0H606v483h100V0zM179 0H79v396H16v87h63v45q0 70 36.5 109.5T215 677q62 0 97-34l-34-70q-20 20-45 20-54 0-54-65v-45h80v-87h-80V0z"/><glyph glyph-name="f_f_l" unicode="ffl" horiz-adv-x="765" d="M453 0H353v396h-63v87h63v45q0 71 36 110t95 39q44 0 73-16l-21-77q-11 9-31 9-24 0-38-17t-14-48v-45h80v-87h-80V0zm253 0H606v667h100V0zM179 0H79v396H16v87h63v45q0 70 36.5 109.5T215 677q62 0 97-34l-34-70q-20 20-45 20-54 0-54-65v-45h80v-87h-80V0z"/><glyph glyph-name="f_b" unicode="fb" horiz-adv-x="767" d="M179 0H79v396H16v87h63v45q0 71 36 110t95 39q44 0 73-16l-21-77q-10 9-31 9-24 0-38-17t-14-48v-45h80v-87h-80V0zm254 142q13-28 39.5-47T527 76q50 0 76.5 46T630 241q0 74-26.5 120T527 407q-28 0-54.5-19.5T433 340V142zm0-142H333v667h100V418q43 77 124 77t128.5-69.5T733 241q0-116-47.5-184.5T557-12q-78 0-124 76V0z"/><glyph glyph-name="f_h" unicode="fh" horiz-adv-x="758" d="M179 0H79v396H16v87h63v45q0 71 36 110t95 39q44 0 73-16l-21-77q-10 9-31 9-24 0-38-17t-14-48v-45h80v-87h-80V0zm521 0h-99v331q0 76-70 76-30 0-56-19.5T433 340V0H333v667h100V418q21 32 59.5 54.5T574 495q126 0 126-130V0z"/><glyph glyph-name="f_k" unicode="fk" horiz-adv-x="729" d="M179 0H79v396H16v87h63v45q0 71 36 110t95 39q44 0 73-16l-21-77q-10 9-31 9-24 0-38-17t-14-48v-45h80v-87h-80V0zm543 0H605L491 202l-58-78V0H333v667h100V246l170 237h116L559 266z"/><glyph glyph-name=".notdef" horiz-adv-x="479" d="M415-90H64v842h351V-90zm-32 30v782H95V-60h288z"/><glyph glyph-name=".null" horiz-adv-x="0"/><glyph glyph-name=".null" horiz-adv-x="0"/><glyph glyph-name="nonmarkingreturn" horiz-adv-x="333"/><glyph glyph-name="CR" horiz-adv-x="0"/><glyph glyph-name="space" horiz-adv-x="212"/><glyph glyph-name="exclam" unicode="!" horiz-adv-x="242" d="M164 201H79L60 667h122zM121-11Q94-11 74 9.5T54 57t19.5 47 47.5 20 47.5-20T188 57 168 9.5 121-11z"/><glyph glyph-name="quotedbl" unicode="&quot;" horiz-adv-x="373" d="M129 395H83Q49 604 49 621q0 23 17 39.5t40 16.5 39.5-16.5T162 621zm161 0h-45q-34 209-34 226 0 23 16.5 39.5T268 677q23 0 39.5-16.5T324 621z"/><glyph glyph-name="numbersign" unicode="#" horiz-adv-x="524" d="M285 0h-76l51 176h-85L126 0H50l49 176H18l18 66h83l51 183H87l17 65h85l50 177h76l-50-177h84l49 177h76l-50-177h82l-16-65h-85l-51-183h85l-17-66h-87zm-8 242 52 183h-83l-51-183h82z"/><glyph glyph-name="dollar" unicode="$" horiz-adv-x="487" d="M213-100v89Q97-2 26 73l56 86q53-60 131-70v204q-38 17-61 30.5T101 360t-41.5 56T46 492q0 70 45.5 120.5T213 675v93h77v-92q92-10 155-70l-54-84q-42 42-101 53V389q37-17 61-31.5t51.5-38.5 41.5-58 14-77q0-75-43.5-127.5T290-8v-92h-77zm132 275q0 47-55 81V95q55 23 55 80zM159 498q0-42 54-72v147q-54-20-54-75z"/><glyph glyph-name="percent" unicode="%" horiz-adv-x="663" d="M172 347q-65 0-105.5 46.5T26 511q0 72 40.5 119T172 677t105.5-47T318 511q0-71-40.5-117.5T172 347zM185 0h-56l351 667h57zm306-12q-65 0-105 46.5T346 152q0 72 40 119.5T491 319t105.5-47.5T637 152q0-71-40.5-117.5T491-12zM172 410q33 0 53.5 28t20.5 73q0 46-20 74t-54 28-54-28-20-74q0-45 20.5-73t53.5-28zM491 52q34 0 54.5 28t20.5 72q0 46-20.5 74.5T491 255t-54-28.5-20-74.5q0-45 20-72.5T491 52z"/><glyph glyph-name="ampersand" unicode="&amp;" horiz-adv-x="535" d="M527 0H408q-36 44-44 55-69-67-156-67-78 0-128 49T30 174q0 69 32 113.5t90 83.5q-42 86-42 145 0 70 43 115.5T262 677q59 0 99.5-38t40.5-98q0-35-10.5-63.5t-33.5-52-41.5-37T265 353q22-38 52-80 28-42 50-73 29 58 49 134l81-37q-32-97-75-168Q455 86 527 0zM224 68q48 0 91 50-50 65-68 93-37 54-57 89-56-51-56-119 0-51 26-82t64-31zm-19 447q0-38 25-95 41 27 63 53.5t22 63.5q0 32-14.5 49T264 603q-27 0-43-23t-16-65z"/><glyph glyph-name="quotesingle" unicode="'" horiz-adv-x="211" d="M129 395H83Q49 604 49 621q0 23 17 39.5t40 16.5 39.5-16.5T162 621z"/><glyph glyph-name="parenleft" unicode="(" horiz-adv-x="257" d="m238-159-67-40Q45-2 45 243q0 244 126 442l67-39q-85-195-85-403t85-402z"/><glyph glyph-name="parenright" unicode=")" horiz-adv-x="257" d="m85-199-66 40q85 194 85 402T19 646l66 39q127-198 127-442Q212-3 85-199z"/><glyph glyph-name="asterisk" unicode="*" horiz-adv-x="330" d="M192 379h-54l5 112-94-61-27 47 100 51-100 51 27 46 94-60-5 112h54l-6-112 95 60 27-46-100-51 100-51-27-47-95 61z"/><glyph glyph-name="plus" unicode="+" horiz-adv-x="442" d="M413 305H256V127h-70v178H29v65h157v171h70V370h157v-65z"/><glyph glyph-name="comma" unicode="," horiz-adv-x="242" d="M194 35q0-50-25-94t-67-73L57-95q25 15 45.5 42T128-1q-6-2-16-2-25 0-41.5 17T54 58t19 46.5 46 19.5q31 0 53-24t22-65z"/><glyph glyph-name="hyphen" unicode="-" horiz-adv-x="269" d="M239 199H30v86h209v-86z"/><glyph glyph-name="period" unicode="." horiz-adv-x="242" d="M121-11Q94-11 74 9T54 57q0 27 20 47t47 20q28 0 47.5-20T188 57q0-28-19.5-48T121-11z"/><glyph glyph-name="slash" unicode="/" horiz-adv-x="266" d="M74-20H0l192 707h74z"/><glyph glyph-name="zero" unicode="0" horiz-adv-x="526" d="M263-12q-58 0-102.5 30t-70 80.5-38.5 110T39 333t13 124.5T90.5 567t70 80T263 677q77 0 129.5-52.5t74-127.5T488 333t-21.5-164-74-128T263-12zm0 99q112 0 112 246T263 579q-111 0-111-246T263 87z"/><glyph glyph-name="one" unicode="1" horiz-adv-x="352" d="M288 0H178v523L76 416l-65 68 181 183h96V0z"/><glyph glyph-name="two" unicode="2" horiz-adv-x="507" d="M458 0H48v90q189 197 241.5 265T342 483q0 44-28 70t-68 26q-88 0-142-79l-68 69q77 108 211 108 90 0 149-52.5T455 484q0-74-52.5-152.5T210 98h248V0z"/><glyph glyph-name="three" unicode="3" horiz-adv-x="496" d="M240-12q-73 0-129 30.5T24 97l68 69q55-79 143-79 55 0 82.5 28t27.5 77q0 100-116 100-49 0-58-2v100q10-1 56-1 49 0 79 23.5t30 68.5q0 48-28.5 73T232 579q-80 0-134-72l-65 64q72 106 207 106 94 0 150-46.5T446 498q0-57-36-99.5T323 345q52-8 92-52.5T455 182q0-86-58-140T240-12z"/><glyph glyph-name="four" unicode="4" horiz-adv-x="492" d="M400 0H290v155H22v93l236 419h142V252h70v-97h-70V0zM290 252v300L122 252h168z"/><glyph glyph-name="five" unicode="5" horiz-adv-x="512" d="M256-12Q117-12 44 95l69 70q53-78 140-78 49 0 79 35.5t30 86.5q0 58-27.5 90.5T258 332q-66 0-114-58l-81 23v370h374v-97H174V372q44 56 122 56 77 0 127.5-57.5T474 212q0-99-60-161.5T256-12z"/><glyph glyph-name="six" unicode="6" horiz-adv-x="511" d="M270-12q-62 0-107.5 28t-72 77-39 109T39 333q0 150 64 247t185 97q105 0 164-77l-56-81q-41 60-107 60-65 0-101.5-67.5T151 351v-15q19 37 58.5 63.5T295 426q78 0 130-56.5T477 211q0-94-57-158.5T270-12zm-6 99q48 0 74 36t26 84q0 63-29 93.5T262 331q-34 0-62.5-23.5T152 248q2-39 11.5-72.5t35.5-61T264 87z"/><glyph glyph-name="seven" unicode="7" horiz-adv-x="448" d="M217 0H98l204 570H23v97h404v-76z"/><glyph glyph-name="eight" unicode="8" horiz-adv-x="507" d="M254-12q-97 0-156.5 48T38 168q0 60 37.5 107.5T167 344q-51 19-85.5 60.5T47 505q0 84 60.5 128T254 677q85 0 146-44t61-128q0-59-34.5-100.5T340 344q54-21 92-68.5T470 168q0-84-60-132T254-12zm0 397q31 7 63.5 32.5T350 487q0 42-26.5 67T254 579q-44 0-70-25t-26-67q0-44 32.5-69.5T254 385zm0-298q45 0 75 25.5t30 70.5q0 49-37 80.5T254 299q-31-4-68-35.5T149 183q0-45 29.5-70.5T254 87z"/><glyph glyph-name="nine" unicode="9" horiz-adv-x="511" d="M223-11Q118-11 59 66l56 81q40-59 107-59t102.5 67T360 315v16q-20-38-59-64.5T216 240q-78 0-130 56.5T34 455q0 94 57 158.5T241 678q81 0 134.5-49.5t75-124T472 333q0-150-64.5-247T223-11zm25 347q69 0 111 82-2 40-11.5 73t-35 61-64.5 28q-48 0-74.5-36.5T147 459q0-63 28.5-93t72.5-30z"/><glyph glyph-name="colon" unicode=":" horiz-adv-x="242" d="M121 356q-27 0-47 20t-20 47q0 28 20 47.5t47 19.5q28 0 47.5-19.5T188 423q0-27-19.5-47T121 356zm0-367Q94-11 74 9T54 57q0 27 20 47t47 20q28 0 47.5-20T188 57q0-28-19.5-48T121-11z"/><glyph glyph-name="semicolon" unicode=";" horiz-adv-x="242" d="M121 356q-27 0-47 20.5T54 423q0 28 20 47.5t47 19.5q28 0 47.5-19.5T188 423q0-27-20-47t-47-20zm73-318q0-50-25-94t-67-73L57-92q24 14 45 41.5T128 2q-9-3-16-3-25 0-41.5 17.5T54 61t19 46.5 46 19.5q31 0 53-24t22-65z"/><glyph glyph-name="less" unicode="&lt;" horiz-adv-x="442" d="M413 124 29 299v71l384 176v-77L106 334l307-133v-77z"/><glyph glyph-name="equal" unicode="=" horiz-adv-x="442" d="M413 397H29v65h384v-65zm0-191H29v65h384v-65z"/><glyph glyph-name="greater" unicode="&gt;" horiz-adv-x="442" d="M413 299 29 124v77l307 133L29 469v77l384-176v-71z"/><glyph glyph-name="question" unicode="?" horiz-adv-x="389" d="M157 194q-30 34-30 86 0 33 13.5 60t32.5 46 37.5 36.5 32 39T256 508q0 30-21 51t-58 21q-58 0-99-51l-56 71q67 78 173 78 78 0 125.5-42.5T368 528q0-38-15-69.5T316.5 405t-43-41.5-36.5-43-15-48.5q0-28 19-47zm37-205q-27 0-47 20t-20 48q0 27 20 47t47 20q28 0 47.5-20T261 57q0-28-19.5-48T194-11z"/><glyph glyph-name="at" unicode="@" horiz-adv-x="702" d="M310-70q-123 0-199 83.5T35 230q0 162 111 285.5T404 639q116 0 189-78t73-199q0-120-53-198.5T493 85q-38 0-61 20.5T405 158l-1 7q-55-80-130-80-55 0-89.5 38T150 231q0 104 62 186t147 82q72 0 99-70l11 54h89l-55-259q-2-10-2-24 0-46 35-46 30 0 60.5 56T627 361q0 110-61.5 175.5T401 602q-87 0-163-53T117.5 410 73 231q0-116 66-191t175-75q83 0 164 56l19-28q-90-63-187-63zm0 227q58 0 105 73l29 137q-18 60-69 60-57 0-94.5-59.5T243 241q0-38 17.5-61t49.5-23z"/><glyph glyph-name="A" unicode="A" horiz-adv-x="536" d="M533 0H413l-36 132H158L122 0H2l199 667h133zM355 230l-87 319-87-319h174z"/><glyph glyph-name="B" unicode="B" horiz-adv-x="540" d="M324 0H64v667h252q82 0 127-48t45-122q0-61-29.5-100.5T383 344q49-7 82.5-54.5T499 180q0-81-45-130.5T324 0zm-32 389q41 0 61.5 24.5T374 479t-21 66-61 25H175V389h117zm4-291q44 0 66.5 25.5T385 195q0 42-23 69t-66 27H175V98h121z"/><glyph glyph-name="C" unicode="C" horiz-adv-x="547" d="M311-12q-124 0-198 96.5T39 333q0 153 74 249t198 96q141 0 211-147l-92-41q-39 90-119 90-72 0-115.5-69T152 333q0-108 43.5-177T311 87q42 0 72.5 27t47.5 71l92-41Q455-12 311-12z"/><glyph glyph-name="D" unicode="D" horiz-adv-x="583" d="M263 0H64v667h199q131 0 206-92.5T544 333 469.5 92 263 0zm0 98q80 0 123.5 64.5T430 333q0 108-43 172.5T263 570h-88V98h88z"/><glyph glyph-name="E" unicode="E" horiz-adv-x="472" d="M429 0H64v667h365v-97H175V389h247v-98H175V98h254V0z"/><glyph glyph-name="F" unicode="F" horiz-adv-x="464" d="M175 0H64v667h365v-97H175V389h247v-98H175V0z"/><glyph glyph-name="G" unicode="G" horiz-adv-x="576" d="M311-13q-123 0-197.5 95.5T39 333t74.5 250T311 678q143 0 212-142l-90-42q-42 86-122 86-72 0-115.5-67T152 333t43.5-180T311 86q69 0 111 48v124H282v97h245V90Q440-13 311-13z"/><glyph glyph-name="H" unicode="H" horiz-adv-x="593" d="M530 0H419v294H175V0H64v667h111V392h244v275h111V0z"/><glyph glyph-name="I" unicode="I" horiz-adv-x="239" d="M175 0H64v667h111V0z"/><glyph glyph-name="J" unicode="J" horiz-adv-x="409" d="M150-12Q63-12 8 43l43 87q38-43 89-43 45 0 70 26t25 74v480h111V184q0-98-53-147T150-12z"/><glyph glyph-name="K" unicode="K" horiz-adv-x="535" d="M528 0H397L225 275l-50-76V0H64v667h111V346l207 321h130L294 352z"/><glyph glyph-name="L" unicode="L" horiz-adv-x="434" d="M406 0H64v667h111V98h231V0z"/><glyph glyph-name="M" unicode="M" horiz-adv-x="713" d="M650 0H540v460L378 0h-43L175 460V0H64v667h150l143-406 144 406h149V0z"/><glyph glyph-name="N" unicode="N" horiz-adv-x="592" d="M528 0H422L175 431V0H64v667h112l241-419v419h111V0z"/><glyph glyph-name="O" unicode="O" horiz-adv-x="612" d="M306-12q-124 0-195.5 97T39 333t71.5 248T306 678t195.5-97T573 333 501.5 85 306-12zm0 99q72 0 113 69.5T460 333q0 108-41 177.5T306 580q-73 0-113.5-69T152 333q0-108 40.5-177T306 87z"/><glyph glyph-name="P" unicode="P" horiz-adv-x="513" d="M175 0H64v667h227q94 0 145.5-59.5T488 460q0-89-51.5-148.5T291 252H175V0zm103 350q44 0 70.5 30t26.5 80-26.5 80-70.5 30H175V350h103z"/><glyph glyph-name="Q" unicode="Q" horiz-adv-x="612" d="M306-12q-124 0-195.5 97T39 333t71.5 248T306 678t195.5-97T573 333q0-175-92-272l31-48-77-49-28 44q-46-20-101-20zm0 99q25 0 46 9l-72 115 77 48 63-101q40 68 40 175 0 108-41 177.5T306 580q-73 0-113.5-69T152 333q0-108 40.5-177T306 87z"/><glyph glyph-name="R" unicode="R" horiz-adv-x="533" d="M494 0H370L257 252h-82V0H64v667h230q86 0 140-57t54-149q0-81-36-128.5T365 271zM278 350q44 0 70.5 30t26.5 80-26.5 80-70.5 30H175V350h103z"/><glyph glyph-name="S" unicode="S" horiz-adv-x="486" d="M237-12Q102-12 22 73l56 86q63-72 159-72 49 0 76.5 25.5T341 175t-31 63-74.5 44.5T148 323t-75 65-31 104q0 80 57 133t150 53q117 0 192-72l-54-84q-57 57-141 57-41 0-66-22t-25-59q0-32 31-56t74.5-42.5T348 358t75-67.5T454 184q0-86-57-141T237-12z"/><glyph glyph-name="T" unicode="T" horiz-adv-x="462" d="M286 0H176v570H23v97h416v-97H286V0z"/><glyph glyph-name="U" unicode="U" horiz-adv-x="592" d="M296-12q-109 0-170.5 62T64 224v443h111V223q0-66 31.5-101.5T296 86t89.5 35.5T417 223v444h111V224q0-112-61.5-174T296-12z"/><glyph glyph-name="V" unicode="V" horiz-adv-x="536" d="M334 0H201L2 667h120l146-536 145 536h120z"/><glyph glyph-name="W" unicode="W" horiz-adv-x="745" d="M584 0H468l-96 479L277 0H161L10 667h119l96-498 103 498h89l104-498 95 498h119z"/><glyph glyph-name="X" unicode="X" horiz-adv-x="535" d="M533 0H405L267 254 130 0H2l197 341L14 667h127l126-240 126 240h128L336 342z"/><glyph glyph-name="Y" unicode="Y" horiz-adv-x="521" d="M316 0H206v278L-1 667h123l139-285 139 285h122L316 278V0z"/><glyph glyph-name="Z" unicode="Z" horiz-adv-x="475" d="M437 0H38v92l258 478H38v97h392v-90L171 98h266V0z"/><glyph glyph-name="bracketleft" unicode="[" horiz-adv-x="230" d="M212-190H40v868h172v-69h-99v-730h99v-69z"/><glyph glyph-name="backslash" unicode="\" horiz-adv-x="266" d="M193-20 1 687h73L266-20h-73z"/><glyph glyph-name="bracketright" unicode="]" horiz-adv-x="230" d="M190-190H17v69h99v730H17v69h173v-868z"/><glyph glyph-name="asciicircum" unicode="^" horiz-adv-x="386" d="M367 333h-75l-99 259-99-259H19l137 334h74z"/><glyph glyph-name="underscore" unicode="_" horiz-adv-x="422" d="M425-109H-3v69h428v-69z"/><glyph glyph-name="grave" unicode="`" horiz-adv-x="202" d="M202 556h-68L0 700h93z"/><glyph glyph-name="a" unicode="a" d="M408 0h-99v49q-44-61-127-61-62 0-105 43.5T34 149t43 115.5T182 306q85 0 127-58v70q0 44-24.5 68T215 410q-66 0-120-55l-39 70q70 70 177 70 80 0 127.5-40.5T408 330V0zM218 57q60 0 91 53v73q-14 25-39 39.5T218 237q-38 0-61-25t-23-65 23-65 61-25z"/><glyph glyph-name="b" unicode="b" horiz-adv-x="494" d="M159 142q13-28 39.5-47T253 76q50 0 76.5 46T356 241q0 74-26.5 120T253 407q-28 0-54.5-19.5T159 340V142zm0-142H59v667h100V418q43 77 124 77t128.5-69.5T459 241q0-116-47.5-184.5T283-12q-78 0-124 76V0z"/><glyph glyph-name="c" unicode="c" horiz-adv-x="415" d="M247-12q-95 0-153.5 71.5T35 242t58 182 154 71q95 0 147-65l-51-68q-35 45-86 45-55 0-87-47t-32-118q0-72 32-119t87-47q50 0 86 45l51-68q-52-65-147-65z"/><glyph glyph-name="d" unicode="d" horiz-adv-x="494" d="M435 0H335v64q-22-36-55-56t-69-20q-81 0-128.5 68.5T35 241t47.5 185T211 495t124-77v249h100V0zM241 76q28 0 54.5 19t39.5 47v199q-13 28-39.5 47T241 407q-50 0-76.5-46T138 241q0-72 26.5-118.5T241 76z"/><glyph glyph-name="e" unicode="e" horiz-adv-x="474" d="M252-12q-99 0-158 70T35 242q0 108 56.5 180.5T242 495q95 0 148-72t53-185v-29H136q3-62 36-100.5T262 70q65 0 109 52l48-60q-65-74-167-74zm94 292q-1 53-26.5 93.5T241 414q-51 0-77-41t-29-93h211z"/><glyph glyph-name="f" unicode="f" horiz-adv-x="274" d="M179 0H79v396H16v87h63v45q0 70 36.5 109.5T215 677q62 0 97-34l-34-70q-20 20-45 20-54 0-54-65v-45h80v-87h-80V0z"/><glyph glyph-name="g" unicode="g" horiz-adv-x="493" d="M226-196q-106 0-171 61l41 77q50-54 125-54 49 0 81.5 29.5T335 9v69q-22-37-55-58T211-1Q130-1 82.5 65T35 247q0 115 47 181.5T211 495q80 0 124-77v65h99V17q0-115-59-164t-149-49zm15 284q28 0 54.5 19t39.5 47v187q-13 28-39.5 47T241 407q-50 0-76.5-44T138 247t26.5-115.5T241 88z"/><glyph glyph-name="h" unicode="h" horiz-adv-x="485" d="M426 0h-99v331q0 76-70 76-30 0-56-19.5T159 340V0H59v667h100V418q21 32 59.5 54.5T300 495q126 0 126-130V0z"/><glyph glyph-name="i" unicode="i" horiz-adv-x="218" d="M109 544q-26 0-44.5 18.5T46 606q0 26 18.5 44.5T109 669t44-18.5 18-44.5-18.5-44-43.5-18zM159 0H59v483h100V0z"/><glyph glyph-name="j" unicode="j" horiz-adv-x="218" d="M109 544q-26 0-44.5 18.5T46 606q0 26 18.5 44.5T109 669t44-18.5 18-44.5-18.5-44-43.5-18zM19-196q-53 0-87 31l28 75q20-22 47-22 52 0 52 71v524h100V-41q0-155-140-155z"/><glyph glyph-name="k" unicode="k" horiz-adv-x="456" d="M448 0H331L217 202l-58-78V0H59v667h100V246l170 237h116L285 266z"/><glyph glyph-name="l" unicode="l" horiz-adv-x="218" d="M159 0H59v667h100V0z"/><glyph glyph-name="m" unicode="m" horiz-adv-x="722" d="M663 0H563v336q0 71-60 71-28 0-53.5-20T411 340V0H311v336q0 71-60 71-28 0-53-20t-39-47V0H59v483h100v-65q16 29 54 53t80 24q46 0 75.5-22t37.5-63q18 34 57 59.5t82 25.5q118 0 118-127V0z"/><glyph glyph-name="n" unicode="n" horiz-adv-x="485" d="M426 0H326v329q0 78-69 78-30 0-56.5-19.5T159 340V0H59v483h100v-65q21 32 59.5 54.5T299 495q127 0 127-131V0z"/><glyph glyph-name="o" unicode="o" horiz-adv-x="488" d="M244-12q-98 0-153.5 73T35 242t55 180.5T244 495t154-72.5T453 242 397.5 61 244-12zm0 88q52 0 79 48t27 118-27 117.5-79 47.5-79-47.5T138 242t27-118 79-48z"/><glyph glyph-name="p" unicode="p" horiz-adv-x="492" d="M283-12q-81 0-124 77v-249H59v667h100v-64q21 36 54 56t70 20q82 0 129-68t47-185q0-116-47.5-185T283-12zm-30 88q50 0 76.5 46.5T356 242t-26.5 119-76.5 46q-28 0-54.5-19T159 341V143q13-28 39.5-47.5T253 76z"/><glyph glyph-name="q" unicode="q" horiz-adv-x="492" d="M240 76q28 0 54.5 19.5T334 143v198q-13 28-39.5 47T240 407q-50 0-76.5-46T137 242t26.5-119.5T240 76zm-30-88q-81 0-128.5 69T34 242q0 117 47 185t129 68q36 0 69-20t55-56v64h99v-667h-99V65q-44-77-124-77z"/><glyph glyph-name="r" unicode="r" horiz-adv-x="308" d="M159 0H59v483h100v-71q22 36 58 59t75 23v-99q-12 3-26 3-30 0-61-19.5T159 331V0z"/><glyph glyph-name="s" unicode="s" horiz-adv-x="401" d="M198-12Q85-12 21 57l45 70q23-25 58.5-42.5T196 67q37 0 58.5 17t21.5 46q0 25-24.5 42T192 201t-70.5 27.5-60 48T37 357q0 59 44.5 98.5T203 495q95 0 159-62l-42-68q-42 51-115 51-33 0-53.5-16T131 360q0-20 18-34.5t44.5-22.5 57.5-21.5 57.5-29.5 44.5-47 18-73q0-63-47.5-103.5T198-12z"/><glyph glyph-name="t" unicode="t" horiz-adv-x="283" d="M189-12Q77-12 77 108v288H14v87h63v132h100V483h80v-87h-80V129q0-53 37-53 26 0 38 16l24-75q-29-29-87-29z"/><glyph glyph-name="u" unicode="u" horiz-adv-x="485" d="M426 0H326v64q-22-32-59.5-54T185-12Q59-12 59 118v365h100V153q0-77 69-77 30 0 56.5 19t41.5 47v341h100V0z"/><glyph glyph-name="v" unicode="v" horiz-adv-x="430" d="M269 0H161L2 483h106l107-364 108 364h106z"/><glyph glyph-name="w" unicode="w" horiz-adv-x="667" d="M531 0H427l-93 355L240 0H136L7 483h103l84-352 92 352h92l94-352 85 352h103z"/><glyph glyph-name="x" unicode="x" horiz-adv-x="424" d="M418 0H309l-97 176L115 0H6l144 246L14 483h109l89-166 89 166h109L274 246z"/><glyph glyph-name="y" unicode="y" horiz-adv-x="430" d="m42-189 15 88q13-7 32-7 40 0 55 40l20 58L2 483h106l107-363 108 363h106L238-91q-19-58-53.5-81.5T96-196q-31 0-54 7z"/><glyph glyph-name="z" unicode="z" horiz-adv-x="399" d="M360 0H38v76l193 320H38v87h318v-73L163 87h197V0z"/><glyph glyph-name="braceleft" unicode="{" horiz-adv-x="244" d="M227-190h-45q-50 0-87.5 36T57-60v206q0 29-13.5 48.5T5 214v60q25 0 38.5 19.5T57 342v205q0 58 37.5 94.5T182 678h45v-69h-45q-21 0-36-17.5T131 547V333q0-69-46-89 46-20 46-89V-60q0-27 15-44.5t36-17.5h45v-68z"/><glyph glyph-name="bar" unicode="|" horiz-adv-x="197" d="M133-20H64v707h69V-20z"/><glyph glyph-name="braceright" unicode="}" horiz-adv-x="244" d="M17-190v68h45q21 0 36.5 17.5T114-60v215q0 70 45 89-45 19-45 89v214q0 27-15 44.5T62 609H17v69h45q51 0 88.5-36.5T188 547V342q0-29 13.5-48.5T240 274v-60q-25 0-38.5-19.5T188 146V-60q0-58-37.5-94T62-190H17z"/><glyph glyph-name="asciitilde" unicode="~" horiz-adv-x="457" d="m360 667 70-7q-3-49-9-85.5T401.5 499t-39-60-62.5-21q-39 0-62.5 29T207 510t-19 63-31 29q-27 0-39.5-44.5T97 417l-70 8q4 49 10 85t19.5 75 39 60 61.5 21q39 0 62.5-29t31-63 19.5-63 30-29q27 0 40 44.5T360 667z"/><glyph glyph-name="nbspace" horiz-adv-x="212"/><glyph glyph-name="exclamdown" unicode="¡" horiz-adv-x="242" d="m61-184 18 466h85l19-466H61zm-7 611q0 27 20 46.5t47 19.5q28 0 48-19.5t20-46.5q0-28-20-47.5T121 360q-27 0-47 19.5T54 427z"/><glyph glyph-name="cent" unicode="¢" horiz-adv-x="415" d="M211-100v91Q130 4 82.5 73T35 242t47.5 168.5T211 492v73h74v-73q66-10 109-62l-51-68q-25 32-58 41V79q32 9 58 42l51-68Q351 1 285-9v-91h-74zm-73 342q0-55 19-96.5T211 86v310q-35-17-54-58.5T138 242z"/><glyph glyph-name="sterling" unicode="£" horiz-adv-x="471" d="M26 271v67h69q-48 73-48 140 0 84 61 141.5T252 677q68 0 116.5-31t69.5-89l-88-46q-11 34-34 54.5T261 586q-40 0-67.5-30T166 476q0-18 2.5-33.5T178 411l10.5-24 15-26.5L217 338h111v-67h-86q3-17 3-34 0-36-18.5-71T180 110q20 8 44 8 27 0 61.5-16T342 86q51 0 78 35l39-87q-40-47-124-47-42 0-85.5 22T181 31q-41 0-99-38L45 71q46 25 73.5 62.5T146 211q0 27-13 60H26z"/><glyph glyph-name="currency" unicode="¤" horiz-adv-x="516" d="M258 93q-67 0-115 34L73 57l-60 59 73 72q-37 61-37 145 0 85 37 146l-73 73 60 60 71-72q50 32 114 32 65 0 113-32l72 72 60-60-73-74q37-63 37-145 0-84-38-146l74-72-60-60-71 71q-49-33-114-33zm0 89q53 0 82 43.5T369 333q0 63-29 106.5T258 483t-81.5-43.5T148 333q0-64 28.5-107.5T258 182z"/><glyph glyph-name="yen" unicode="¥" horiz-adv-x="521" d="M316 0H206v119H23v65h183v94H23v65h148L-1 667h123l139-285 139 285h122L350 343h148v-65H316v-94h182v-65H316V0z"/><glyph glyph-name="brokenbar" unicode="¦" horiz-adv-x="197" d="M133-20H64v316h69V-20zm0 391H64v316h69V371z"/><glyph glyph-name="section" unicode="§" horiz-adv-x="404" d="M371 315q0-84-79-124 79-45 79-127 0-64-48.5-104.5T198-81Q90-81 22-11l44 65Q122-9 194-9q37 0 59.5 19T276 59q0 28-24.5 47T192 138t-70.5 29-60 47.5T37 293q0 43 26.5 75t66.5 45q-93 47-93 131 0 58 45.5 95.5T199 677q103 0 162-63l-41-60q-46 52-114 52-34 0-54.5-17T131 545q0-26 24.5-43.5t60-30 71-28 60-48T371 315zm-93-19q0 58-73 87-76-18-76-75 0-31 22.5-50t69.5-39q57 26 57 77z"/><glyph glyph-name="dieresis" unicode="¨" horiz-adv-x="279" d="M287 607q0-23-17-39.5T230 551t-39.5 16.5T174 607t16.5 39.5T230 663t40-16.5 17-39.5zm-182 0q0-23-16.5-39.5T49 551 9 567.5-8 607t17 39.5T49 663t39.5-16.5T105 607z"/><glyph glyph-name="copyright" unicode="©" horiz-adv-x="778" d="M734 334q0-143-101-244T389-11 145 90.5 44 334q0 143 101 244t244 101 244-101 101-244zm-33 0q0 128-92 220t-220 92-219.5-92T78 334t91.5-219.5T389 23t220 91.5T701 334zM512 216l29-27q-57-67-148-67-87 0-147.5 61.5T185 335q0 91 60.5 151.5T393 547q91 0 147-66l-28-28q-20 26-52 42t-67 16q-69 0-118-49.5T226 335q0-75 49.5-126T393 158q76 0 119 58z"/><glyph glyph-name="ordfeminine" unicode="ª" horiz-adv-x="337" d="M289 326h-73v33q-30-41-87-41-41 0-70.5 28T29 422t29 75 71 27q58 0 87-38v45q0 29-17 44.5T153 591q-45 0-81-39l-29 48q49 48 123 48 123 0 123-116V326zm-133 40q40 0 60 33v47q-19 33-60 33-24 0-39-15.5T102 423t15-41 39-16z"/><glyph glyph-name="guillemotleft" unicode="«" horiz-adv-x="424" d="M394 63h-87L182 243l125 177h87L269 243zm-152 0h-87L30 243l125 177h87L117 243z"/><glyph glyph-name="logicalnot" unicode="¬" horiz-adv-x="446" d="M413 462V206h-68v191H29v65h384z"/><glyph glyph-name="uni00AD" unicode="­" horiz-adv-x="269" d="M239 199H30v86h209v-86z"/><glyph glyph-name="registered" unicode="®" horiz-adv-x="494" d="M459 465q0-88-62-150t-150-62-150 62-62 150 62 150 150 62q89 0 150.5-61.5T459 465zm-30 0q0 76-53 129t-129 53-129-53-53-129q0-75 53-128.5T247 283t129 53.5T429 465zm-83-122h-41l-63 96h-43v-96h-33v243h99q32 0 55-20.5t23-53.5q0-35-22.5-53.5T281 440zm-37 169q0 19-13.5 32T265 557h-66v-88h66q17 0 30.5 12.5T309 512z"/><glyph glyph-name="macron" unicode="¯" horiz-adv-x="309" d="M309 567H0v60h309v-60z"/><glyph glyph-name="degree" unicode="°" horiz-adv-x="300" d="M278 549q0-53-38-90.5T149 421t-90 37.5T22 549t37.5 90.5T149 677q53 0 91-37.5t38-90.5zm-58 0q0 29-21 49.5T149 619q-28 0-48.5-20.5T80 549t20-49.5 49-20.5 50 20.5 21 49.5z"/><glyph glyph-name="plusminus" unicode="±" horiz-adv-x="442" d="M413 316H256V137h-70v179H29v64h157v172h70V380h157v-64zm0-299H29v65h384V17z"/><glyph glyph-name="twosuperior" unicode="²" horiz-adv-x="337" d="M307 421H39v57q117 106 153 149t36 80q0 27-18 42.5T165 765q-59 0-90-50l-44 47q50 65 137 65 60 0 98-30.5t38-85.5q0-46-35.5-93.5T143 483h164v-62z"/><glyph glyph-name="threesuperior" unicode="³" horiz-adv-x="337" d="M308 531q0-52-38-84.5T167 414q-96 0-140 65l44 47q37-50 93-50 33 0 50.5 16t17.5 44q0 59-76 59-30 0-36-1v62q7-1 34-1 72 0 72 55 0 27-17.5 41T161 765q-51 0-87-45l-43 44q50 63 136 63 62 0 98.5-28.5T302 719q0-35-23-60.5T224 628q32-4 58-30.5t26-66.5z"/><glyph glyph-name="acute" unicode="´" horiz-adv-x="202" d="M202 700 68 556H0l110 144h92z"/><glyph glyph-name="mu" unicode="µ" horiz-adv-x="497" d="M159 14v-198H59v667h100V153q0-78 70-78 30 0 55.5 19.5T326 142v341h100V123q0-47 35-47 7 0 17 2l7-84q-17-6-47-6-91 0-108 86-18-38-47.5-62T219-12q-43 0-60 26z"/><glyph glyph-name="paragraph" unicode="¶" horiz-adv-x="449" d="M390-100h-54v714h-84v-714h-53v423q-71 0-121.5 50.5T27 495t50.5 121.5T199 667h191v-767z"/><glyph glyph-name="periodcentered" unicode="·" horiz-adv-x="242" d="M188 245q0-27-19.5-47T121 178t-47.5 20T54 245t19.5 47 47.5 20 47.5-20 19.5-47z"/><glyph glyph-name="cedilla" unicode="¸" horiz-adv-x="195" d="M94-194q-55 0-94 31l21 44q34-28 71-28 21 0 35.5 10t14.5 27q0 30-30 30-18 0-30-14L43-72l31 83h53l-26-65q14 11 32 11 27 0 44.5-19t17.5-49q0-37-29-60t-72-23z"/><glyph glyph-name="onesuperior" unicode="¹" horiz-adv-x="248" d="M194 421h-77v301l-62-64-44 46 117 117h66V421z"/><glyph glyph-name="ordmasculine" unicode="º" horiz-adv-x="353" d="M176 318q-67 0-106 48T31 483q0 70 39 117.5T176 648q68 0 107-47.5T322 483t-39-117.5T176 318zm0 60q34 0 52 29t18 76-17.5 75.5T176 587q-34 0-51.5-29T107 483q0-47 17.5-76t51.5-29z"/><glyph glyph-name="guillemotright" unicode="»" horiz-adv-x="424" d="M242 243 117 63H30l125 180L30 420h87zm152 0L269 63h-87l125 180-125 177h87z"/><glyph glyph-name="onequarter" unicode="¼" horiz-adv-x="712" d="M194 267h-77v301l-62-64-44 46 117 117h66V267zM690 94h-45V0h-76v94H398v57l147 249h100V155h45V94zm-121 61v170L469 155h100zm-25 512L192 0h-57l352 667h57z"/><glyph glyph-name="onehalf" unicode="½" horiz-adv-x="746" d="M194 267h-77v301l-62-64-44 46 117 117h66V267zM716 0H448v57q117 106 153 149t36 80q0 27-18 42.5T574 344q-59 0-90-50l-44 47q50 65 137 65 60 0 98-30.5t38-85.5q0-46-35.5-93.5T552 62h164V0zM544 667 192 0h-57l352 667h57z"/><glyph glyph-name="threequarters" unicode="¾" horiz-adv-x="778" d="M757 94h-45V0h-76v94H465v57l147 249h100V155h45V94zm-121 61v170L536 155h100zm-26 512L258 0h-57l352 667h57zM308 377q0-52-38-84.5T167 260q-96 0-140 65l44 47q37-50 93-50 33 0 50.5 16t17.5 44q0 59-76 59-30 0-36-1v62q7-1 34-1 72 0 72 55 0 27-17.5 41T161 611q-51 0-87-45l-43 44q50 63 136 63 62 0 98.5-28.5T302 565q0-35-23-60.5T224 474q32-4 58-30.5t26-66.5z"/><glyph glyph-name="questiondown" unicode="¿" horiz-adv-x="338" d="M232 287q31-34 31-85 0-33-13.5-60T217 96t-38-36.5T146.5 20 133-27q0-30 21-51t58-21q59 0 100 51l55-71q-66-77-172-77-79 0-126 42T22-47q0 46 23 84.5T95 98t50 51.5 23 60.5q0 27-20 47zm-37 206q28 0 48-19.5t20-47.5q0-27-20-46.5T195 360q-27 0-47 19.5T128 426q0 28 20 47.5t47 19.5z"/><glyph glyph-name="Agrave" unicode="À" horiz-adv-x="536" d="M533 0H413l-36 132H158L122 0H2l199 667h133zM355 230l-87 319-87-319h174zm-36 493h-68L117 867h93z"/><glyph glyph-name="Aacute" unicode="Á" horiz-adv-x="536" d="M533 0H413l-36 132H158L122 0H2l199 667h133zM355 230l-87 319-87-319h174zm64 637L285 723h-68l110 144h92z"/><glyph glyph-name="Acircumflex" unicode="Â" horiz-adv-x="536" d="M394 723h-60l-67 97-64-97h-60l79 144h91zM533 0H413l-36 132H158L122 0H2l199 667h133zM355 230l-87 319-87-319h174z"/><glyph glyph-name="Atilde" unicode="Ã" horiz-adv-x="536" d="M533 0H413l-36 132H158L122 0H2l199 667h133zM355 230l-87 319-87-319h174zm-37 491q-21 0-37.5 12.5t-24.5 28-19 28-22 12.5q-15 0-24.5-19t-9.5-56h-54q0 61 24 97.5t68 36.5q21 0 37-12.5t24.5-27.5 19.5-27.5 22-12.5q33 0 33 74h54q0-61-23.5-97.5T318 721z"/><glyph glyph-name="Adieresis" unicode="Ä" horiz-adv-x="536" d="M416 774q0-23-17-39.5T359 718t-39.5 16.5T303 774t16.5 39.5T359 830t40-16.5 17-39.5zm-182 0q0-23-16.5-39.5T178 718t-40 16.5-17 39.5 17 39.5 40 16.5 39.5-16.5T234 774zM533 0H413l-36 132H158L122 0H2l199 667h133zM355 230l-87 319-87-319h174z"/><glyph glyph-name="Aring" unicode="Å" horiz-adv-x="536" d="M533 0H413l-36 132H158L122 0H2l199 667h133zM355 230l-87 319-87-319h174zm-87 461q-38 0-66 28t-28 67q0 38 28 66t66 28q39 0 66.5-28t27.5-66q0-39-27.5-67T268 691zm0 47q20 0 33.5 14t13.5 34-13.5 33.5T268 833q-19 0-33-14t-14-33 14-33.5 33-14.5z"/><glyph glyph-name="AE" unicode="Æ" horiz-adv-x="772" d="M730 0H365v132H182L123 0H4l315 667h411v-97H476V389h247v-98H476V98h254V0zM365 230v319L223 230h142z"/><glyph glyph-name="Ccedilla" unicode="Ç" horiz-adv-x="547" d="M305-190q-55 0-94 31l21 44q34-28 71-28 21 0 35.5 10t14.5 27q0 30-30 30-18 0-30-14l-39 22 22 59Q167 4 103 98T39 333q0 153 74 249t198 96q141 0 211-147l-92-41q-39 90-119 90-72 0-115.5-69T152 333q0-108 43.5-177T311 87q42 0 72.5 27t47.5 71l92-41Q459-2 327-11l-15-39q14 11 32 11 27 0 44.5-19t17.5-49q0-37-29-60t-72-23z"/><glyph glyph-name="Egrave" unicode="È" horiz-adv-x="472" d="M429 0H64v667h365v-97H175V389h247v-98H175V98h254V0zM297 723h-68L95 867h93z"/><glyph glyph-name="Eacute" unicode="É" horiz-adv-x="472" d="M397 867 263 723h-68l110 144h92zM429 0H64v667h365v-97H175V389h247v-98H175V98h254V0z"/><glyph glyph-name="Ecircumflex" unicode="Ê" horiz-adv-x="472" d="M373 723h-60l-67 97-64-97h-60l79 144h91zM429 0H64v667h365v-97H175V389h247v-98H175V98h254V0z"/><glyph glyph-name="Edieresis" unicode="Ë" horiz-adv-x="472" d="M395 774q0-23-17-39.5T338 718t-39.5 16.5T282 774t16.5 39.5T338 830t40-16.5 17-39.5zm-182 0q0-23-16.5-39.5T157 718t-40 16.5-17 39.5 17 39.5 40 16.5 39.5-16.5T213 774zM429 0H64v667h365v-97H175V389h247v-98H175V98h254V0z"/><glyph glyph-name="Igrave" unicode="Ì" horiz-adv-x="239" d="M175 0H64v667h111V0zm-5 723h-68L-32 867h93z"/><glyph glyph-name="Iacute" unicode="Í" horiz-adv-x="239" d="M175 0H64v667h111V0zm96 867L137 723H69l110 144h92z"/><glyph glyph-name="Icircumflex" unicode="Î" horiz-adv-x="239" d="M245 723h-60l-67 97-64-97H-6l79 144h91zM175 0H64v667h111V0z"/><glyph glyph-name="Idieresis" unicode="Ï" horiz-adv-x="239" d="M268 774q0-23-17-39.5T211 718t-39.5 16.5T155 774t16.5 39.5T211 830t40-16.5 17-39.5zm-182 0q0-23-16.5-39.5T30 718t-40 16.5-17 39.5 17 39.5T30 830t39.5-16.5T86 774zM175 0H64v667h111V0z"/><glyph glyph-name="Eth" unicode="Ð" horiz-adv-x="606" d="M287 0H88v287H14v82h74v298h199q131 0 206-92.5T568 333 493.5 92 287 0zm0 98q80 0 123.5 64.5T454 333q0 108-43 172.5T287 570h-88V369h114v-82H199V98h88z"/><glyph glyph-name="Ntilde" unicode="Ñ" horiz-adv-x="592" d="M344 721q-21 0-37.5 12.5t-24.5 28-19 28-22 12.5q-15 0-24.5-19t-9.5-56h-54q0 61 24 97.5t68 36.5q21 0 37-12.5t24.5-27.5 19.5-27.5 22-12.5q33 0 33 74h54q0-61-23.5-97.5T344 721zM528 0H422L175 431V0H64v667h112l241-419v419h111V0z"/><glyph glyph-name="Ograve" unicode="Ò" horiz-adv-x="612" d="M357 723h-68L155 867h93zM306-12q-124 0-195.5 97T39 333t71.5 248T306 678t195.5-97T573 333 501.5 85 306-12zm0 99q72 0 113 69.5T460 333q0 108-41 177.5T306 580q-73 0-113.5-69T152 333q0-108 40.5-177T306 87z"/><glyph glyph-name="Oacute" unicode="Ó" horiz-adv-x="612" d="M457 867 323 723h-68l110 144h92zM306-12q-124 0-195.5 97T39 333t71.5 248T306 678t195.5-97T573 333 501.5 85 306-12zm0 99q72 0 113 69.5T460 333q0 108-41 177.5T306 580q-73 0-113.5-69T152 333q0-108 40.5-177T306 87z"/><glyph glyph-name="Ocircumflex" unicode="Ô" horiz-adv-x="612" d="M433 723h-60l-67 97-64-97h-60l79 144h91zM306-12q-124 0-195.5 97T39 333t71.5 248T306 678t195.5-97T573 333 501.5 85 306-12zm0 99q72 0 113 69.5T460 333q0 108-41 177.5T306 580q-73 0-113.5-69T152 333q0-108 40.5-177T306 87z"/><glyph glyph-name="Otilde" unicode="Õ" horiz-adv-x="612" d="M306-12q-124 0-195.5 97T39 333t71.5 248T306 678t195.5-97T573 333 501.5 85 306-12zm0 99q72 0 113 69.5T460 333q0 108-41 177.5T306 580q-73 0-113.5-69T152 333q0-108 40.5-177T306 87zm51 634q-21 0-37.5 12.5t-24.5 28-19 28-22 12.5q-15 0-24.5-19t-9.5-56h-54q0 61 24 97.5t68 36.5q21 0 37-12.5t24.5-27.5 19.5-27.5 22-12.5q33 0 33 74h54q0-61-23.5-97.5T357 721z"/><glyph glyph-name="Odieresis" unicode="Ö" horiz-adv-x="612" d="M454 774q0-23-17-39.5T397 718t-39.5 16.5T341 774t16.5 39.5T397 830t40-16.5 17-39.5zm-182 0q0-23-16.5-39.5T216 718t-40 16.5-17 39.5 17 39.5 40 16.5 39.5-16.5T272 774zm34-786q-124 0-195.5 97T39 333t71.5 248T306 678t195.5-97T573 333 501.5 85 306-12zm0 99q72 0 113 69.5T460 333q0 108-41 177.5T306 580q-73 0-113.5-69T152 333q0-108 40.5-177T306 87z"/><glyph glyph-name="multiply" unicode="×" horiz-adv-x="442" d="M345 165 221 288 97 165l-46 45 124 124L51 458l46 46 124-124 124 124 46-46-124-124 124-124z"/><glyph glyph-name="Oslash" unicode="Ø" horiz-adv-x="612" d="M306-12q-81 0-142 44L145 0H69l46 79q-76 96-76 254 0 151 71.5 248T306 678q77 0 138-42l18 31h75l-44-76q80-95 80-258 0-151-71.5-248T306-12zm0 99q72 0 113 69.5T460 333q0 90-29 154L218 123q36-36 88-36zM152 333q0-85 26-148l213 361q-36 34-85 34-73 0-113.5-69T152 333z"/><glyph glyph-name="Ugrave" unicode="Ù" horiz-adv-x="592" d="M296-12q-109 0-170.5 62T64 224v443h111V223q0-66 31.5-101.5T296 86t89.5 35.5T417 223v444h111V224q0-112-61.5-174T296-12zm51 735h-68L145 867h93z"/><glyph glyph-name="Uacute" unicode="Ú" horiz-adv-x="592" d="M447 867 313 723h-68l110 144h92zM296-12q-109 0-170.5 62T64 224v443h111V223q0-66 31.5-101.5T296 86t89.5 35.5T417 223v444h111V224q0-112-61.5-174T296-12z"/><glyph glyph-name="Ucircumflex" unicode="Û" horiz-adv-x="592" d="M423 723h-60l-67 97-64-97h-60l79 144h91zM296-12q-109 0-170.5 62T64 224v443h111V223q0-66 31.5-101.5T296 86t89.5 35.5T417 223v444h111V224q0-112-61.5-174T296-12z"/><glyph glyph-name="Udieresis" unicode="Ü" horiz-adv-x="592" d="M445 774q0-23-17-39.5T388 718t-39.5 16.5T332 774t16.5 39.5T388 830t40-16.5 17-39.5zm-182 0q0-23-16.5-39.5T207 718t-40 16.5-17 39.5 17 39.5 40 16.5 39.5-16.5T263 774zm33-786q-109 0-170.5 62T64 224v443h111V223q0-66 31.5-101.5T296 86t89.5 35.5T417 223v444h111V224q0-112-61.5-174T296-12z"/><glyph glyph-name="Yacute" unicode="Ý" horiz-adv-x="521" d="M316 0H206v278L-1 667h123l139-285 139 285h122L316 278V0zm96 867L278 723h-68l110 144h92z"/><glyph glyph-name="Thorn" unicode="Þ" horiz-adv-x="513" d="M175 0H64v667h111V553h116q94 0 145.5-59.5T488 345q0-88-51.5-147T291 139H175V0zm103 236q44 0 70.5 30t26.5 79q0 50-26.5 80.5T278 456H175V236h103z"/><glyph glyph-name="germandbls" unicode="ß" horiz-adv-x="556" d="M541 133q0-61-46.5-103T372-12q-97 0-165 70l42 70q46-60 115-60 35 0 56 18t21 45q0 25-23 42.5t-55.5 30-64.5 28-55 46.5-23 76q0 33 18 60.5t39 42 39 33.5 18 39q0 26-23.5 43T255 589q-41 0-67-24.5T162 494V0H63v494q0 79 52.5 131T256 677q73 0 126-38.5t53-97.5q0-36-18.5-64.5t-41-43.5-41-34-18.5-40q0-20 16.5-34t41.5-22.5 54.5-21.5 54.5-29 41.5-46.5T541 133z"/><glyph glyph-name="agrave" unicode="à" d="M408 0h-99v49q-44-61-127-61-62 0-105 43.5T34 149t43 115.5T182 306q85 0 127-58v70q0 44-24.5 68T215 410q-66 0-120-55l-39 70q70 70 177 70 80 0 127.5-40.5T408 330V0zM218 57q60 0 91 53v73q-14 25-39 39.5T218 237q-38 0-61-25t-23-65 23-65 61-25zm66 499h-68L82 700h93z"/><glyph glyph-name="aacute" unicode="á" d="M408 0h-99v49q-44-61-127-61-62 0-105 43.5T34 149t43 115.5T182 306q85 0 127-58v70q0 44-24.5 68T215 410q-66 0-120-55l-39 70q70 70 177 70 80 0 127.5-40.5T408 330V0zM218 57q60 0 91 53v73q-14 25-39 39.5T218 237q-38 0-61-25t-23-65 23-65 61-25zm166 643L250 556h-68l110 144h92z"/><glyph glyph-name="acircumflex" unicode="â" d="M408 0h-99v49q-44-61-127-61-62 0-105 43.5T34 149t43 115.5T182 306q85 0 127-58v70q0 44-24.5 68T215 410q-66 0-120-55l-39 70q70 70 177 70 80 0 127.5-40.5T408 330V0zM218 57q60 0 91 53v73q-14 25-39 39.5T218 237q-38 0-61-25t-23-65 23-65 61-25zm142 499h-60l-67 97-64-97h-60l79 144h91z"/><glyph glyph-name="atilde" unicode="ã" d="M408 0h-99v49q-44-61-127-61-62 0-105 43.5T34 149t43 115.5T182 306q85 0 127-58v70q0 44-24.5 68T215 410q-66 0-120-55l-39 70q70 70 177 70 80 0 127.5-40.5T408 330V0zM218 57q60 0 91 53v73q-14 25-39 39.5T218 237q-38 0-61-25t-23-65 23-65 61-25zm66 497q-21 0-37.5 12.5t-24.5 28-19 28-22 12.5q-15 0-24.5-19t-9.5-56H93q0 61 24 97.5t68 36.5q21 0 37-12.5t24.5-27.5 19.5-27.5 22-12.5q33 0 33 74h54q0-61-23.5-97.5T284 554z"/><glyph glyph-name="adieresis" unicode="ä" d="M408 0h-99v49q-44-61-127-61-62 0-105 43.5T34 149t43 115.5T182 306q85 0 127-58v70q0 44-24.5 68T215 410q-66 0-120-55l-39 70q70 70 177 70 80 0 127.5-40.5T408 330V0zM218 57q60 0 91 53v73q-14 25-39 39.5T218 237q-38 0-61-25t-23-65 23-65 61-25zm164 550q0-23-17-39.5T325 551t-39.5 16.5T269 607t16.5 39.5T325 663t40-16.5 17-39.5zm-182 0q0-23-16.5-39.5T144 551t-40 16.5T87 607t17 39.5 40 16.5 39.5-16.5T200 607z"/><glyph glyph-name="aring" unicode="å" d="M408 0h-99v49q-44-61-127-61-62 0-105 43.5T34 149t43 115.5T182 306q85 0 127-58v70q0 44-24.5 68T215 410q-66 0-120-55l-39 70q70 70 177 70 80 0 127.5-40.5T408 330V0zM218 57q60 0 91 53v73q-14 25-39 39.5T218 237q-38 0-61-25t-23-65 23-65 61-25zm16 481q-38 0-66 28t-28 67q0 38 28 66t66 28q39 0 66.5-28t27.5-66q0-39-27.5-67T234 538zm0 47q20 0 33.5 14t13.5 34-13.5 33.5T234 680q-19 0-33-14t-14-33 14-33.5 33-14.5z"/><glyph glyph-name="ae" unicode="æ" horiz-adv-x="745" d="M713 209H420q4-62 34.5-100T539 71q62 0 103 52l48-61q-65-74-159-74-106 0-159 88-25-39-69-63.5T203-12q-75 0-122 42T34 147q0 74 43 116.5T187 306q89 0 136-57v69q0 43-26.5 67.5T223 410q-70 0-128-55l-39 70q70 70 176 70 55 0 92.5-23t51.5-62q52 85 148 85 89 0 139-72t50-186v-28zm-293 71h197q-1 53-25 93.5T519 414q-48 0-72.5-41T420 280zm-97-113v16q-36 54-99 54-40 0-65-22.5T134 153q0-40 24.5-62T224 69q40 0 69.5 30t29.5 68z"/><glyph glyph-name="ccedilla" unicode="ç" horiz-adv-x="415" d="M247-192q-55 0-94 31l21 44q34-28 71-28 21 0 35.5 10t14.5 27q0 30-30 30-18 0-30-14l-39 22 22 60Q135 0 85 70T35 242q0 111 58 182t154 71q95 0 147-65l-51-68q-35 45-86 45-55 0-87-47t-32-118q0-72 32-119t87-47q50 0 86 45l51-68Q348-3 270-11l-16-41q14 11 32 11 27 0 44.5-19t17.5-49q0-37-29-60t-72-23z"/><glyph glyph-name="egrave" unicode="è" horiz-adv-x="474" d="M252-12q-99 0-158 70T35 242q0 108 56.5 180.5T242 495q95 0 148-72t53-185v-29H136q3-62 36-100.5T262 70q65 0 109 52l48-60q-65-74-167-74zm94 292q-1 53-26.5 93.5T241 414q-51 0-77-41t-29-93h211zm-52 276h-68L92 700h93z"/><glyph glyph-name="eacute" unicode="é" horiz-adv-x="474" d="M394 700 260 556h-68l110 144h92zM252-12q-99 0-158 70T35 242q0 108 56.5 180.5T242 495q95 0 148-72t53-185v-29H136q3-62 36-100.5T262 70q65 0 109 52l48-60q-65-74-167-74zm94 292q-1 53-26.5 93.5T241 414q-51 0-77-41t-29-93h211z"/><glyph glyph-name="ecircumflex" unicode="ê" horiz-adv-x="474" d="M369 556h-60l-67 97-64-97h-60l79 144h91zM252-12q-99 0-158 70T35 242q0 108 56.5 180.5T242 495q95 0 148-72t53-185v-29H136q3-62 36-100.5T262 70q65 0 109 52l48-60q-65-74-167-74zm94 292q-1 53-26.5 93.5T241 414q-51 0-77-41t-29-93h211z"/><glyph glyph-name="edieresis" unicode="ë" horiz-adv-x="474" d="M391 607q0-23-17-39.5T334 551t-39.5 16.5T278 607t16.5 39.5T334 663t40-16.5 17-39.5zm-182 0q0-23-16.5-39.5T153 551t-40 16.5T96 607t17 39.5 40 16.5 39.5-16.5T209 607zm43-619q-99 0-158 70T35 242q0 108 56.5 180.5T242 495q95 0 148-72t53-185v-29H136q3-62 36-100.5T262 70q65 0 109 52l48-60q-65-74-167-74zm94 292q-1 53-26.5 93.5T241 414q-51 0-77-41t-29-93h211z"/><glyph glyph-name="igrave" unicode="ì" horiz-adv-x="218" d="M159 0H59v483h100V0zm0 556H91L-43 700h93z"/><glyph glyph-name="iacute" unicode="í" horiz-adv-x="218" d="M260 700 126 556H58l110 144h92zM159 0H59v483h100V0z"/><glyph glyph-name="icircumflex" unicode="î" horiz-adv-x="218" d="M234 556h-60l-67 97-64-97h-60l79 144h91zM159 0H59v483h100V0z"/><glyph glyph-name="idieresis" unicode="ï" horiz-adv-x="218" d="M256 607q0-23-17-39.5T199 551t-39.5 16.5T143 607t16.5 39.5T199 663t40-16.5 17-39.5zm-182 0q0-23-16.5-39.5T18 551t-40 16.5-17 39.5 17 39.5T18 663t39.5-16.5T74 607zM159 0H59v483h100V0z"/><glyph glyph-name="eth" unicode="ð" horiz-adv-x="488" d="m120 493-22 49 108 47q-19 20-55 52l70 62q39-36 74-74l89 39 21-48-75-34q123-157 123-329 0-121-54.5-195T244-12q-98 0-153.5 69T35 230q0 103 49.5 171.5T216 470q78 0 124-78-27 76-96 156zM244 76q52 0 79 44t27 110q0 64-27 108t-79 44-79-44-27-108q0-66 27-110t79-44z"/><glyph glyph-name="ntilde" unicode="ñ" horiz-adv-x="485" d="M426 0H326v329q0 78-69 78-30 0-56.5-19.5T159 340V0H59v483h100v-65q21 32 59.5 54.5T299 495q127 0 127-131V0zM294 554q-21 0-37.5 12.5t-24.5 28-19 28-22 12.5q-15 0-24.5-19t-9.5-56h-54q0 61 24 97.5t68 36.5q21 0 37-12.5t24.5-27.5 19.5-27.5 22-12.5q33 0 33 74h54q0-61-23.5-97.5T294 554z"/><glyph glyph-name="ograve" unicode="ò" horiz-adv-x="488" d="M244-12q-98 0-153.5 73T35 242t55 180.5T244 495t154-72.5T453 242 397.5 61 244-12zm0 88q52 0 79 48t27 118-27 117.5-79 47.5-79-47.5T138 242t27-118 79-48zm51 480h-68L93 700h93z"/><glyph glyph-name="oacute" unicode="ó" horiz-adv-x="488" d="M395 700 261 556h-68l110 144h92zM244-12q-98 0-153.5 73T35 242t55 180.5T244 495t154-72.5T453 242 397.5 61 244-12zm0 88q52 0 79 48t27 118-27 117.5-79 47.5-79-47.5T138 242t27-118 79-48z"/><glyph glyph-name="ocircumflex" unicode="ô" horiz-adv-x="488" d="M370 556h-60l-67 97-64-97h-60l79 144h91zM244-12q-98 0-153.5 73T35 242t55 180.5T244 495t154-72.5T453 242 397.5 61 244-12zm0 88q52 0 79 48t27 118-27 117.5-79 47.5-79-47.5T138 242t27-118 79-48z"/><glyph glyph-name="otilde" unicode="õ" horiz-adv-x="488" d="M244-12q-98 0-153.5 73T35 242t55 180.5T244 495t154-72.5T453 242 397.5 61 244-12zm0 88q52 0 79 48t27 118-27 117.5-79 47.5-79-47.5T138 242t27-118 79-48zm50 478q-21 0-37.5 12.5t-24.5 28-19 28-22 12.5q-15 0-24.5-19t-9.5-56h-54q0 61 24 97.5t68 36.5q21 0 37-12.5t24.5-27.5 19.5-27.5 22-12.5q33 0 33 74h54q0-61-23.5-97.5T294 554z"/><glyph glyph-name="odieresis" unicode="ö" horiz-adv-x="488" d="M392 607q0-23-17-39.5T335 551t-39.5 16.5T279 607t16.5 39.5T335 663t40-16.5 17-39.5zm-182 0q0-23-16.5-39.5T154 551t-40 16.5T97 607t17 39.5 40 16.5 39.5-16.5T210 607zm34-619q-98 0-153.5 73T35 242t55 180.5T244 495t154-72.5T453 242 397.5 61 244-12zm0 88q52 0 79 48t27 118-27 117.5-79 47.5-79-47.5T138 242t27-118 79-48z"/><glyph glyph-name="divide" unicode="÷" horiz-adv-x="443" d="M275 500q0-22-15.5-37.5T222 447t-37.5 15.5T169 500t15.5 37.5T222 553t37.5-15.5T275 500zm139-195H29v65h385v-65zM275 171q0-22-15.5-37T222 119t-37.5 15-15.5 37 15.5 38 37.5 16 37.5-16 15.5-38z"/><glyph glyph-name="oslash" unicode="ø" horiz-adv-x="488" d="M106 0H45l43 63q-53 70-53 179 0 108 55 180.5T244 495q66 0 117-37l17 25h62l-42-61q55-70 55-180 0-108-55.5-181T244-12q-70 0-120 39zm138 76q52 0 79 48t27 118q0 51-15 90L178 105q27-29 66-29zM138 242q0-50 13-88l156 226q-25 27-63 27-52 0-79-47.5T138 242z"/><glyph glyph-name="ugrave" unicode="ù" horiz-adv-x="485" d="M426 0H326v64q-22-32-59.5-54T185-12Q59-12 59 118v365h100V153q0-77 69-77 30 0 56.5 19t41.5 47v341h100V0zM293 556h-68L91 700h93z"/><glyph glyph-name="uacute" unicode="ú" horiz-adv-x="485" d="M393 700 259 556h-68l110 144h92zM426 0H326v64q-22-32-59.5-54T185-12Q59-12 59 118v365h100V153q0-77 69-77 30 0 56.5 19t41.5 47v341h100V0z"/><glyph glyph-name="ucircumflex" unicode="û" horiz-adv-x="485" d="M368 556h-60l-67 97-64-97h-60l79 144h91zM426 0H326v64q-22-32-59.5-54T185-12Q59-12 59 118v365h100V153q0-77 69-77 30 0 56.5 19t41.5 47v341h100V0z"/><glyph glyph-name="udieresis" unicode="ü" horiz-adv-x="485" d="M390 607q0-23-17-39.5T333 551t-39.5 16.5T277 607t16.5 39.5T333 663t40-16.5 17-39.5zm-182 0q0-23-16.5-39.5T152 551t-40 16.5T95 607t17 39.5 40 16.5 39.5-16.5T208 607zM426 0H326v64q-22-32-59.5-54T185-12Q59-12 59 118v365h100V153q0-77 69-77 30 0 56.5 19t41.5 47v341h100V0z"/><glyph glyph-name="yacute" unicode="ý" horiz-adv-x="430" d="m42-189 15 88q13-7 32-7 40 0 55 40l20 58L2 483h106l107-363 108 363h106L238-91q-19-58-53.5-81.5T96-196q-31 0-54 7zm324 889L232 556h-68l110 144h92z"/><glyph glyph-name="thorn" unicode="þ" horiz-adv-x="492" d="M283-12q-82 0-124 76v-248H59v851h100V421q43 74 124 74 82 0 129-68t47-185q0-116-47.5-185T283-12zm-30 88q50 0 76.5 46.5T356 242t-26.5 119-76.5 46q-28 0-54.5-19T159 341V143q13-28 39.5-47.5T253 76z"/><glyph glyph-name="ydieresis" unicode="ÿ" horiz-adv-x="430" d="m42-189 15 88q13-7 32-7 40 0 55 40l20 58L2 483h106l107-363 108 363h106L238-91q-19-58-53.5-81.5T96-196q-31 0-54 7zm323 796q0-23-17-39.5T308 551t-39.5 16.5T252 607t16.5 39.5T308 663t40-16.5 17-39.5zm-182 0q0-23-16.5-39.5T127 551t-40 16.5T70 607t17 39.5 40 16.5 39.5-16.5T183 607z"/><glyph glyph-name="Amacron" unicode="Ā" horiz-adv-x="536" d="M533 0H413l-36 132H158L122 0H2l199 667h133zM355 230l-87 319-87-319h174zm67 504H113v60h309v-60z"/><glyph glyph-name="amacron" unicode="ā" d="M408 0h-99v49q-44-61-127-61-62 0-105 43.5T34 149t43 115.5T182 306q85 0 127-58v70q0 44-24.5 68T215 410q-66 0-120-55l-39 70q70 70 177 70 80 0 127.5-40.5T408 330V0zM218 57q60 0 91 53v73q-14 25-39 39.5T218 237q-38 0-61-25t-23-65 23-65 61-25zm170 510H79v60h309v-60z"/><glyph glyph-name="Abreve" unicode="Ă" horiz-adv-x="536" d="M533 0H413l-36 132H158L122 0H2l199 667h133zM355 230l-87 319-87-319h174zm62 553q-55-75-149-75-92 0-149 75l47 38q37-53 102-53t102 53z"/><glyph glyph-name="abreve" unicode="ă" d="M408 0h-99v49q-44-61-127-61-62 0-105 43.5T34 149t43 115.5T182 306q85 0 127-58v70q0 44-24.5 68T215 410q-66 0-120-55l-39 70q70 70 177 70 80 0 127.5-40.5T408 330V0zM218 57q60 0 91 53v73q-14 25-39 39.5T218 237q-38 0-61-25t-23-65 23-65 61-25zm165 559q-55-75-149-75-92 0-149 75l47 38q37-53 102-53t102 53z"/><glyph glyph-name="Aogonek" unicode="Ą" horiz-adv-x="536" d="m537-106 44-25q-25-55-82-55-38 0-62 21t-24 63q0 56 48 102h-48l-36 132H158L122 0H2l199 667h133L533 0q-67-40-67-99 0-42 33-42 28 0 38 35zM355 230l-87 319-87-319h174z"/><glyph glyph-name="aogonek" unicode="ą" d="m412-106 44-25q-25-55-82-55-38 0-62 21t-24 63q0 56 48 102h-27v49q-44-61-127-61-62 0-105 43.5T34 149t43 115.5T182 306q85 0 127-58v70q0 44-24.5 68T215 410q-66 0-120-55l-39 70q70 70 177 70 80 0 127.5-40.5T408 330V0q-67-40-67-99 0-42 33-42 28 0 38 35zM218 57q60 0 91 53v73q-14 25-39 39.5T218 237q-38 0-61-25t-23-65 23-65 61-25z"/><glyph glyph-name="Cacute" unicode="Ć" horiz-adv-x="547" d="M462 867 328 723h-68l110 144h92zM311-12q-124 0-198 96.5T39 333q0 153 74 249t198 96q141 0 211-147l-92-41q-39 90-119 90-72 0-115.5-69T152 333q0-108 43.5-177T311 87q42 0 72.5 27t47.5 71l92-41Q455-12 311-12z"/><glyph glyph-name="cacute" unicode="ć" horiz-adv-x="415" d="M397 700 263 556h-68l110 144h92zM247-12q-95 0-153.5 71.5T35 242t58 182 154 71q95 0 147-65l-51-68q-35 45-86 45-55 0-87-47t-32-118q0-72 32-119t87-47q50 0 86 45l51-68q-52-65-147-65z"/><glyph glyph-name="Ccircumflex" unicode="Ĉ" horiz-adv-x="547" d="M436 723h-60l-67 97-64-97h-60l79 144h91zM311-12q-124 0-198 96.5T39 333q0 153 74 249t198 96q141 0 211-147l-92-41q-39 90-119 90-72 0-115.5-69T152 333q0-108 43.5-177T311 87q42 0 72.5 27t47.5 71l92-41Q455-12 311-12z"/><glyph glyph-name="ccircumflex" unicode="ĉ" horiz-adv-x="415" d="M373 556h-60l-67 97-64-97h-60l79 144h91zM247-12q-95 0-153.5 71.5T35 242t58 182 154 71q95 0 147-65l-51-68q-35 45-86 45-55 0-87-47t-32-118q0-72 32-119t87-47q50 0 86 45l51-68q-52-65-147-65z"/><glyph glyph-name="Cdotaccent" unicode="Ċ" horiz-adv-x="547" d="M311-12q-124 0-198 96.5T39 333q0 153 74 249t198 96q141 0 211-147l-92-41q-39 90-119 90-72 0-115.5-69T152 333q0-108 43.5-177T311 87q42 0 72.5 27t47.5 71l92-41Q455-12 311-12zm1 729q-23 0-40 16.5T255 773t17 40 40 17 39.5-17 16.5-40-16.5-39.5T312 717z"/><glyph glyph-name="cdotaccent" unicode="ċ" horiz-adv-x="415" d="M247-12q-95 0-153.5 71.5T35 242t58 182 154 71q95 0 147-65l-51-68q-35 45-86 45-55 0-87-47t-32-118q0-72 32-119t87-47q50 0 86 45l51-68q-52-65-147-65zm1 562q-23 0-40 16.5T191 606t17 40 40 17 39.5-17 16.5-40-16.5-39.5T248 550z"/><glyph glyph-name="Ccaron" unicode="Č" horiz-adv-x="547" d="M358 723h-91l-82 144h60l67-97 64 97h60zM311-12q-124 0-198 96.5T39 333q0 153 74 249t198 96q141 0 211-147l-92-41q-39 90-119 90-72 0-115.5-69T152 333q0-108 43.5-177T311 87q42 0 72.5 27t47.5 71l92-41Q455-12 311-12z"/><glyph glyph-name="ccaron" unicode="č" horiz-adv-x="415" d="M295 556h-91l-82 144h60l67-97 64 97h60zM247-12q-95 0-153.5 71.5T35 242t58 182 154 71q95 0 147-65l-51-68q-35 45-86 45-55 0-87-47t-32-118q0-72 32-119t87-47q50 0 86 45l51-68q-52-65-147-65z"/><glyph glyph-name="Dcaron" unicode="Ď" horiz-adv-x="583" d="M338 723h-91l-82 144h60l67-97 64 97h60zM263 0H64v667h199q131 0 206-92.5T544 333 469.5 92 263 0zm0 98q80 0 123.5 64.5T430 333q0 108-43 172.5T263 570h-88V98h88z"/><glyph glyph-name="dcaron" unicode="ď" horiz-adv-x="588" d="M594 606q0-42-21.5-79.5T517 464l-38 30q22 14 39.5 37.5T540 577q-1 0-6-.5t-7-.5q-20 0-33.5 13.5T480 625q0 23 15.5 38.5T533 679q25 0 43-19.5t18-53.5zM435 0H335v64q-22-36-55-56t-69-20q-81 0-128.5 68.5T35 241t47.5 185T211 495t124-77v249h100V0zM241 76q28 0 54.5 19t39.5 47v199q-13 28-39.5 47T241 407q-50 0-76.5-46T138 241q0-72 26.5-118.5T241 76z"/><glyph glyph-name="Dcroat" unicode="Đ" horiz-adv-x="606" d="M287 0H88v287H14v82h74v298h199q131 0 206-92.5T568 333 493.5 92 287 0zm0 98q80 0 123.5 64.5T454 333q0 108-43 172.5T287 570h-88V369h114v-82H199V98h88z"/><glyph glyph-name="dcroat" unicode="đ" horiz-adv-x="502" d="M435 0H335v64q-22-36-55-56t-69-20q-81 0-128.5 68.5T35 241t47.5 185T211 495t124-77v114H201v60h134v75h100v-75h56v-60h-56V0zM241 76q28 0 54.5 19t39.5 47v199q-13 28-39.5 47T241 407q-50 0-76.5-46T138 241q0-72 26.5-118.5T241 76z"/><glyph glyph-name="Emacron" unicode="Ē" horiz-adv-x="472" d="M429 0H64v667h365v-97H175V389h247v-98H175V98h254V0zm-27 734H93v60h309v-60z"/><glyph glyph-name="emacron" unicode="ē" horiz-adv-x="474" d="M252-12q-99 0-158 70T35 242q0 108 56.5 180.5T242 495q95 0 148-72t53-185v-29H136q3-62 36-100.5T262 70q65 0 109 52l48-60q-65-74-167-74zm94 292q-1 53-26.5 93.5T241 414q-51 0-77-41t-29-93h211zm52 287H89v60h309v-60z"/><glyph glyph-name="Ebreve" unicode="Ĕ" horiz-adv-x="472" d="M429 0H64v667h365v-97H175V389h247v-98H175V98h254V0zm-32 783q-55-75-149-75-92 0-149 75l47 38q37-53 102-53t102 53z"/><glyph glyph-name="ebreve" unicode="ĕ" horiz-adv-x="474" d="M252-12q-99 0-158 70T35 242q0 108 56.5 180.5T242 495q95 0 148-72t53-185v-29H136q3-62 36-100.5T262 70q65 0 109 52l48-60q-65-74-167-74zm94 292q-1 53-26.5 93.5T241 414q-51 0-77-41t-29-93h211zm46 336q-55-75-149-75-92 0-149 75l47 38q37-53 102-53t102 53z"/><glyph glyph-name="Edotaccent" unicode="Ė" horiz-adv-x="472" d="M429 0H64v667h365v-97H175V389h247v-98H175V98h254V0zM251 717q-23 0-40 16.5T194 773t17 40 40 17 39.5-17 16.5-40-16.5-39.5T251 717z"/><glyph glyph-name="edotaccent" unicode="ė" horiz-adv-x="474" d="M252-12q-99 0-158 70T35 242q0 108 56.5 180.5T242 495q95 0 148-72t53-185v-29H136q3-62 36-100.5T262 70q65 0 109 52l48-60q-65-74-167-74zm94 292q-1 53-26.5 93.5T241 414q-51 0-77-41t-29-93h211zM244 550q-23 0-40 16.5T187 606t17 40 40 17 39.5-17 16.5-40-16.5-39.5T244 550z"/><glyph glyph-name="Eogonek" unicode="Ę" horiz-adv-x="472" d="M429 0q-67-40-67-99 0-42 33-42 28 0 38 35l44-25q-25-55-82-55-38 0-62 21t-24 63q0 56 48 102H64v667h365v-97H175V389h247v-98H175V98h254V0z"/><glyph glyph-name="eogonek" unicode="ę" horiz-adv-x="474" d="m330-106 44-25q-25-55-82-55-38 0-62 21t-24 63q0 49 36 90-95 4-151 73.5T35 242q0 108 56.5 180.5T242 495q95 0 148-72t53-185v-29H136q3-62 36-100.5T262 70q65 0 109 52l48-60q-37-43-93-62-67-40-67-99 0-42 33-42 28 0 38 35zm16 386q-1 53-26.5 93.5T241 414q-51 0-77-41t-29-93h211z"/><glyph glyph-name="Ecaron" unicode="Ě" horiz-adv-x="472" d="M293 723h-91l-82 144h60l67-97 64 97h60zM429 0H64v667h365v-97H175V389h247v-98H175V98h254V0z"/><glyph glyph-name="ecaron" unicode="ě" horiz-adv-x="474" d="M290 556h-91l-82 144h60l67-97 64 97h60zM252-12q-99 0-158 70T35 242q0 108 56.5 180.5T242 495q95 0 148-72t53-185v-29H136q3-62 36-100.5T262 70q65 0 109 52l48-60q-65-74-167-74zm94 292q-1 53-26.5 93.5T241 414q-51 0-77-41t-29-93h211z"/><glyph glyph-name="Gcircumflex" unicode="Ĝ" horiz-adv-x="576" d="M438 723h-60l-67 97-64-97h-60l79 144h91zM311-13q-123 0-197.5 95.5T39 333t74.5 250T311 678q143 0 212-142l-90-42q-42 86-122 86-72 0-115.5-67T152 333t43.5-180T311 86q69 0 111 48v124H282v97h245V90Q440-13 311-13z"/><glyph glyph-name="gcircumflex" unicode="ĝ" horiz-adv-x="493" d="M375 556h-60l-67 97-64-97h-60l79 144h91zM226-196q-106 0-171 61l41 77q50-54 125-54 49 0 81.5 29.5T335 9v69q-22-37-55-58T211-1Q130-1 82.5 65T35 247q0 115 47 181.5T211 495q80 0 124-77v65h99V17q0-115-59-164t-149-49zm15 284q28 0 54.5 19t39.5 47v187q-13 28-39.5 47T241 407q-50 0-76.5-44T138 247t26.5-115.5T241 88z"/><glyph glyph-name="Gbreve" unicode="Ğ" horiz-adv-x="576" d="M311-13q-123 0-197.5 95.5T39 333t74.5 250T311 678q143 0 212-142l-90-42q-42 86-122 86-72 0-115.5-67T152 333t43.5-180T311 86q69 0 111 48v124H282v97h245V90Q440-13 311-13zm151 796q-55-75-149-75-92 0-149 75l47 38q37-53 102-53t102 53z"/><glyph glyph-name="gbreve" unicode="ğ" horiz-adv-x="493" d="M226-196q-106 0-171 61l41 77q50-54 125-54 49 0 81.5 29.5T335 9v69q-22-37-55-58T211-1Q130-1 82.5 65T35 247q0 115 47 181.5T211 495q80 0 124-77v65h99V17q0-115-59-164t-149-49zm15 284q28 0 54.5 19t39.5 47v187q-13 28-39.5 47T241 407q-50 0-76.5-44T138 247t26.5-115.5T241 88zm157 528q-55-75-149-75-92 0-149 75l47 38q37-53 102-53t102 53z"/><glyph glyph-name="Gdotaccent" unicode="Ġ" horiz-adv-x="576" d="M311-13q-123 0-197.5 95.5T39 333t74.5 250T311 678q143 0 212-142l-90-42q-42 86-122 86-72 0-115.5-67T152 333t43.5-180T311 86q69 0 111 48v124H282v97h245V90Q440-13 311-13zm2 730q-23 0-40 16.5T256 773t17 40 40 17 39.5-17 16.5-40-16.5-39.5T313 717z"/><glyph glyph-name="gdotaccent" unicode="ġ" horiz-adv-x="493" d="M226-196q-106 0-171 61l41 77q50-54 125-54 49 0 81.5 29.5T335 9v69q-22-37-55-58T211-1Q130-1 82.5 65T35 247q0 115 47 181.5T211 495q80 0 124-77v65h99V17q0-115-59-164t-149-49zm15 284q28 0 54.5 19t39.5 47v187q-13 28-39.5 47T241 407q-50 0-76.5-44T138 247t26.5-115.5T241 88zm8 462q-23 0-40 16.5T192 606t17 40 40 17 39.5-17 16.5-40-16.5-39.5T249 550z"/><glyph glyph-name="Gcommaaccent" unicode="Ģ" horiz-adv-x="576" d="M369-138q0-42-21.5-79.5T292-280l-38 30q22 14 39.5 37.5T315-167q-1 0-6-.5t-7-.5q-20 0-33.5 13.5T255-119q0 23 15.5 38.5T308-65q25 0 43-19.5t18-53.5zM311-13q-123 0-197.5 95.5T39 333t74.5 250T311 678q143 0 212-142l-90-42q-42 86-122 86-72 0-115.5-67T152 333t43.5-180T311 86q69 0 111 48v124H282v97h245V90Q440-13 311-13z"/><glyph glyph-name="gcommaaccent" unicode="ģ" horiz-adv-x="493" d="M193 611q0 46 20 85.5t54 62.5l38-30q-22-14-40-36.5T245 649l2 1h4q19 0 35.5-15.5T303 598q0-22-16-38t-39-16q-21 0-38 16.5T193 611zm33-807q-106 0-171 61l41 77q50-54 125-54 49 0 81.5 29.5T335 9v69q-22-37-55-58T211-1Q130-1 82.5 65T35 247q0 115 47 181.5T211 495q80 0 124-77v65h99V17q0-115-59-164t-149-49zm15 284q28 0 54.5 19t39.5 47v187q-13 28-39.5 47T241 407q-50 0-76.5-44T138 247t26.5-115.5T241 88z"/><glyph glyph-name="Hcircumflex" unicode="Ĥ" horiz-adv-x="593" d="M421 723h-60l-67 97-64-97h-60l79 144h91zM530 0H419v294H175V0H64v667h111V392h244v275h111V0z"/><glyph glyph-name="hcircumflex" unicode="ĥ" horiz-adv-x="485" d="M369 723h-60l-67 97-64-97h-60l79 144h91zM426 0h-99v331q0 76-70 76-30 0-56-19.5T159 340V0H59v667h100V418q21 32 59.5 54.5T300 495q126 0 126-130V0z"/><glyph glyph-name="Hbar" unicode="Ħ" horiz-adv-x="620" d="M544 0H433v294H189V0H78v498H14v60h64v109h111V558h244v109h111V558h56v-60h-56V0zM189 392h244v106H189V392z"/><glyph glyph-name="hbar" unicode="ħ" horiz-adv-x="493" d="M303 532H167V418q21 32 59.5 54.5T308 495q126 0 126-130V0h-99v331q0 76-70 76-30 0-56-19.5T167 340V0H67v532H14v60h53v75h100v-75h136v-60z"/><glyph glyph-name="Itilde" unicode="Ĩ" horiz-adv-x="239" d="M175 0H64v667h111V0zm-5 721q-21 0-37.5 12.5t-24.5 28-19 28T67 802q-15 0-24.5-19T33 727h-54q0 61 24 97.5T71 861q21 0 37-12.5t24.5-27.5 19.5-27.5 22-12.5q33 0 33 74h54q0-61-23.5-97.5T170 721z"/><glyph glyph-name="itilde" unicode="ĩ" horiz-adv-x="218" d="M159 0H59v483h100V0zm0 554q-21 0-37.5 12.5t-24.5 28-19 28T56 635q-15 0-24.5-19T22 560h-54q0 61 24 97.5T60 694q21 0 37-12.5t24.5-27.5 19.5-27.5 22-12.5q33 0 33 74h54q0-61-23.5-97.5T159 554z"/><glyph glyph-name="Imacron" unicode="Ī" horiz-adv-x="239" d="M175 0H64v667h111V0zm99 734H-35v60h309v-60z"/><glyph glyph-name="imacron" unicode="ī" horiz-adv-x="218" d="M159 0H59v483h100V0zm104 567H-46v60h309v-60z"/><glyph glyph-name="Ibreve" unicode="Ĭ" horiz-adv-x="239" d="M175 0H64v667h111V0zm94 783q-55-75-149-75-92 0-149 75l47 38q37-53 102-53t102 53z"/><glyph glyph-name="ibreve" unicode="ĭ" horiz-adv-x="218" d="M159 0H59v483h100V0zm99 616q-55-75-149-75-92 0-149 75l47 38q37-53 102-53t102 53z"/><glyph glyph-name="Iogonek" unicode="Į" horiz-adv-x="239" d="m179-106 44-25q-25-55-82-55-38 0-62 21t-24 63q0 56 48 102H64v667h111V0q-67-40-67-99 0-42 33-42 28 0 38 35z"/><glyph glyph-name="iogonek" unicode="į" horiz-adv-x="218" d="m163-106 44-25q-25-55-82-55-38 0-62 21t-24 63Q39-46 87 0H59v483h100V0Q92-40 92-99q0-42 33-42 28 0 38 35zm-54 650q-26 0-44.5 18.5T46 606q0 26 18.5 44.5T109 669t44-18.5 18-44.5-18.5-44-43.5-18z"/><glyph glyph-name="Idotaccent" unicode="İ" horiz-adv-x="239" d="M175 0H64v667h111V0zm-54 717q-23 0-40 16.5T64 773t17 40 40 17 39.5-17 16.5-40-16.5-39.5T121 717z"/><glyph glyph-name="dotlessi" unicode="ı" horiz-adv-x="218" d="M159 0H59v483h100V0z"/><glyph glyph-name="IJ" unicode="Ĳ" horiz-adv-x="647" d="M175 0H64v667h111V0zm214-12q-87 0-142 55l43 87q38-43 89-43 45 0 70 26t25 74v480h111V184q0-98-53-147T389-12z"/><glyph glyph-name="ij" unicode="ĳ" horiz-adv-x="435" d="M109 544q-26 0-44.5 18.5T46 606q0 26 18.5 44.5T109 669t44-18.5 18-44.5-18.5-44-43.5-18zM159 0H59v483h100V0zm168 544q-26 0-44.5 18.5T264 606q0 26 18.5 44.5T327 669t44-18.5 18-44.5-18.5-44-43.5-18zm-90-740q-53 0-87 31l28 75q20-22 47-22 52 0 52 71v524h100V-41q0-155-140-155z"/><glyph glyph-name="Jcircumflex" unicode="Ĵ" horiz-adv-x="409" d="M416 723h-60l-67 97-64-97h-60l79 144h91zM150-12Q63-12 8 43l43 87q38-43 89-43 45 0 70 26t25 74v480h111V184q0-98-53-147T150-12z"/><glyph glyph-name="jcircumflex" unicode="ĵ" horiz-adv-x="218" d="M236 556h-60l-67 97-64-97h-60l79 144h91zM19-196q-53 0-87 31l28 75q20-22 47-22 52 0 52 71v524h100V-41q0-155-140-155z"/><glyph glyph-name="Kcommaaccent" unicode="Ķ" horiz-adv-x="539" d="M334-138q0-42-21.5-79.5T257-280l-38 30q22 14 39.5 37.5T280-167q-1 0-6-.5t-7-.5q-20 0-33.5 13.5T220-119q0 23 15.5 38.5T273-65q25 0 43-19.5t18-53.5zM528 0H397L225 275l-50-76V0H64v667h111V346l207 321h130L294 352z"/><glyph glyph-name="kcommaaccent" unicode="ķ" horiz-adv-x="456" d="M292-138q0-42-21.5-79.5T215-280l-38 30q22 14 39.5 37.5T238-167q-1 0-6-.5t-7-.5q-20 0-33.5 13.5T178-119q0 23 15.5 38.5T231-65q25 0 43-19.5t18-53.5zM448 0H331L217 202l-58-78V0H59v667h100V246l170 237h116L285 266z"/><glyph glyph-name="kgreenlandic" unicode="ĸ" horiz-adv-x="456" d="M448 0H331L217 202l-58-78V0H59v483h100V246l170 237h116L285 266z"/><glyph glyph-name="Lacute" unicode="Ĺ" horiz-adv-x="434" d="M386 867 252 723h-68l110 144h92zM406 0H64v667h111V98h231V0z"/><glyph glyph-name="lacute" unicode="ĺ" horiz-adv-x="218" d="M260 867 126 723H58l110 144h92zM159 0H59v667h100V0z"/><glyph glyph-name="Lcommaaccent" unicode="Ļ" horiz-adv-x="434" d="M281-138q0-42-21.5-79.5T204-280l-38 30q22 14 39.5 37.5T227-167q-1 0-6-.5t-7-.5q-20 0-33.5 13.5T167-119q0 23 15.5 38.5T220-65q25 0 43-19.5t18-53.5zM406 0H64v667h111V98h231V0z"/><glyph glyph-name="lcommaaccent" unicode="ļ" horiz-adv-x="218" d="M173-138q0-42-21.5-79.5T96-280l-38 30q22 14 39.5 37.5T119-167q-1 0-6-.5t-7-.5q-20 0-33.5 13.5T59-119q0 23 15.5 38.5T112-65q25 0 43-19.5t18-53.5zM159 0H59v667h100V0z"/><glyph glyph-name="Lcaron" unicode="Ľ" horiz-adv-x="434" d="M358 607q0-42-21.5-79.5T281 465l-38 30q22 14 39.5 37.5T304 578q-1 0-6-.5t-7-.5q-20 0-33.5 13.5T244 626q0 23 15.5 38.5T297 680q25 0 43-19.5t18-53.5zM406 0H64v667h111V98h231V0z"/><glyph glyph-name="lcaron" unicode="ľ" horiz-adv-x="310" d="M330 607q0-42-21.5-79.5T253 465l-38 30q22 14 39.5 37.5T276 578q-1 0-6-.5t-7-.5q-20 0-33.5 13.5T216 626q0 23 15.5 38.5T269 680q25 0 43-19.5t18-53.5zM159 0H59v667h100V0z"/><glyph glyph-name="Ldot" unicode="Ŀ" horiz-adv-x="459" d="M406 0H64v667h111V98h231V0zm9 342q0-27-19.5-47T348 275t-47.5 20-19.5 47 19.5 47 47.5 20 47.5-20 19.5-47z"/><glyph glyph-name="ldot" unicode="ŀ" horiz-adv-x="339" d="M159 0H59v667h100V0zm186 245q0-27-19.5-47T278 178t-47.5 20-19.5 47 19.5 47 47.5 20 47.5-20 19.5-47z"/><glyph glyph-name="Lslash" unicode="Ł" horiz-adv-x="448" d="M14 218v92l64 37v320h111V411l71 42v-93l-71-41V98h231V0H78v255z"/><glyph glyph-name="lslash" unicode="ł" horiz-adv-x="266" d="M14 230v76l70 40v321h100V403l68 39v-75l-68-39V0H84v270z"/><glyph glyph-name="Nacute" unicode="Ń" horiz-adv-x="592" d="M447 867 313 723h-68l110 144h92zM528 0H422L175 431V0H64v667h112l241-419v419h111V0z"/><glyph glyph-name="nacute" unicode="ń" horiz-adv-x="485" d="M393 700 259 556h-68l110 144h92zM426 0H326v329q0 78-69 78-30 0-56.5-19.5T159 340V0H59v483h100v-65q21 32 59.5 54.5T299 495q127 0 127-131V0z"/><glyph glyph-name="Ncommaaccent" unicode="Ņ" horiz-adv-x="592" d="M360-138q0-42-21.5-79.5T283-280l-38 30q22 14 39.5 37.5T306-167q-1 0-6-.5t-7-.5q-20 0-33.5 13.5T246-119q0 23 15.5 38.5T299-65q25 0 43-19.5t18-53.5zM528 0H422L175 431V0H64v667h112l241-419v419h111V0z"/><glyph glyph-name="ncommaaccent" unicode="ņ" horiz-adv-x="485" d="M304-138q0-42-21.5-79.5T227-280l-38 30q22 14 39.5 37.5T250-167q-1 0-6-.5t-7-.5q-20 0-33.5 13.5T190-119q0 23 15.5 38.5T243-65q25 0 43-19.5t18-53.5zM426 0H326v329q0 78-69 78-30 0-56.5-19.5T159 340V0H59v483h100v-65q21 32 59.5 54.5T299 495q127 0 127-131V0z"/><glyph glyph-name="Ncaron" unicode="Ň" horiz-adv-x="592" d="M343 723h-91l-82 144h60l67-97 64 97h60zM528 0H422L175 431V0H64v667h112l241-419v419h111V0z"/><glyph glyph-name="ncaron" unicode="ň" horiz-adv-x="485" d="M290 556h-91l-82 144h60l67-97 64 97h60zM426 0H326v329q0 78-69 78-30 0-56.5-19.5T159 340V0H59v483h100v-65q21 32 59.5 54.5T299 495q127 0 127-131V0z"/><glyph glyph-name="napostrophe" unicode="ŉ" horiz-adv-x="485" d="M159 680q0-42-21.5-79.5T82 538l-38 30q22 14 39.5 37.5T105 651q-1 0-6-.5t-7-.5q-20 0-33.5 13.5T45 699q0 23 15.5 38.5T98 753q25 0 43-19.5t18-53.5zM426 0H326v329q0 78-69 78-30 0-56.5-19.5T159 340V0H59v483h100v-65q21 32 59.5 54.5T299 495q127 0 127-131V0z"/><glyph glyph-name="Eng" unicode="Ŋ" horiz-adv-x="592" d="M333-196q-89 0-143 55l43 86q39-44 90-44 44 0 69 26t25 74v8L175 451V0H64v667h112l241-439v439h111V-1q0-98-52.5-146.5T333-196z"/><glyph glyph-name="eng" unicode="ŋ" horiz-adv-x="485" d="M426 364V-41q0-155-140-155-52 0-86 31l28 78q19-21 46-21 52 0 52 67v370q0 78-69 78-30 0-56.5-19.5T159 340V0H59v483h100v-65q21 32 59.5 54.5T299 495q127 0 127-131z"/><glyph glyph-name="Omacron" unicode="Ō" horiz-adv-x="612" d="M460 734H151v60h309v-60zM306-12q-124 0-195.5 97T39 333t71.5 248T306 678t195.5-97T573 333 501.5 85 306-12zm0 99q72 0 113 69.5T460 333q0 108-41 177.5T306 580q-73 0-113.5-69T152 333q0-108 40.5-177T306 87z"/><glyph glyph-name="omacron" unicode="ō" horiz-adv-x="488" d="M399 567H90v60h309v-60zM244-12q-98 0-153.5 73T35 242t55 180.5T244 495t154-72.5T453 242 397.5 61 244-12zm0 88q52 0 79 48t27 118-27 117.5-79 47.5-79-47.5T138 242t27-118 79-48z"/><glyph glyph-name="Obreve" unicode="Ŏ" horiz-adv-x="612" d="M306-12q-124 0-195.5 97T39 333t71.5 248T306 678t195.5-97T573 333 501.5 85 306-12zm0 99q72 0 113 69.5T460 333q0 108-41 177.5T306 580q-73 0-113.5-69T152 333q0-108 40.5-177T306 87zm149 696q-55-75-149-75-92 0-149 75l47 38q37-53 102-53t102 53z"/><glyph glyph-name="obreve" unicode="ŏ" horiz-adv-x="488" d="M244-12q-98 0-153.5 73T35 242t55 180.5T244 495t154-72.5T453 242 397.5 61 244-12zm0 88q52 0 79 48t27 118-27 117.5-79 47.5-79-47.5T138 242t27-118 79-48zm149 540q-55-75-149-75-92 0-149 75l47 38q37-53 102-53t102 53z"/><glyph glyph-name="Ohungarumlaut" unicode="Ő" horiz-adv-x="612" d="m353 867-97-144h-57l73 144h81zm134 0-97-144h-56l72 144h81zM306-12q-124 0-195.5 97T39 333t71.5 248T306 678t195.5-97T573 333 501.5 85 306-12zm0 99q72 0 113 69.5T460 333q0 108-41 177.5T306 580q-73 0-113.5-69T152 333q0-108 40.5-177T306 87z"/><glyph glyph-name="ohungarumlaut" unicode="ő" horiz-adv-x="488" d="m291 700-97-144h-57l73 144h81zm134 0-97-144h-56l72 144h81zM244-12q-98 0-153.5 73T35 242t55 180.5T244 495t154-72.5T453 242 397.5 61 244-12zm0 88q52 0 79 48t27 118-27 117.5-79 47.5-79-47.5T138 242t27-118 79-48z"/><glyph glyph-name="OE" unicode="Œ" horiz-adv-x="855" d="M813 0H448v77q-25-45-68-67t-89-22q-117 0-184.5 97T39 333q0 152 67.5 248T291 677q46 0 89-21.5t68-65.5v77h365v-97H559V389h247v-98H559V98h254V0zM448 206v254q-18 58-55 88.5T308 579q-75 0-115.5-68.5T152 333t40.5-177.5T308 87q48 0 84.5 31t55.5 88z"/><glyph glyph-name="oe" unicode="œ" horiz-adv-x="788" d="M757 209H451q3-62 35.5-100.5T576 70q65 0 109 52l49-60q-66-74-167-74-111 0-166 109Q349-12 244-12q-98 0-153.5 73T35 242t55 180.5T244 495q106 0 157-108 50 108 156 108 95 0 147.5-72T757 237v-28zm-307 71h211q-2 54-27.5 94T555 414q-51 0-77-41t-28-93zm-100-38q0 71-27.5 118T244 407t-78.5-47T138 242t27.5-118.5T244 76t78.5 47.5T350 242z"/><glyph glyph-name="Racute" unicode="Ŕ" horiz-adv-x="533" d="M425 867 291 723h-68l110 144h92zM494 0H370L257 252h-82V0H64v667h230q86 0 140-57t54-149q0-81-36-128.5T365 271zM278 350q44 0 70.5 30t26.5 80-26.5 80-70.5 30H175V350h103z"/><glyph glyph-name="racute" unicode="ŕ" horiz-adv-x="308" d="M327 700 193 556h-68l110 144h92zM159 0H59v483h100v-71q22 36 58 59t75 23v-99q-12 3-26 3-30 0-61-19.5T159 331V0z"/><glyph glyph-name="Rcommaaccent" unicode="Ŗ" horiz-adv-x="533" d="M331-138q0-42-21.5-79.5T254-280l-38 30q22 14 39.5 37.5T277-167q-1 0-6-.5t-7-.5q-20 0-33.5 13.5T217-119q0 23 15.5 38.5T270-65q25 0 43-19.5t18-53.5zM494 0H370L257 252h-82V0H64v667h230q86 0 140-57t54-149q0-81-36-128.5T365 271zM278 350q44 0 70.5 30t26.5 80-26.5 80-70.5 30H175V350h103z"/><glyph glyph-name="rcommaaccent" unicode="ŗ" horiz-adv-x="308" d="M217-138q0-42-21.5-79.5T140-280l-38 30q22 14 39.5 37.5T163-167q-1 0-6-.5t-7-.5q-20 0-33.5 13.5T103-119q0 23 15.5 38.5T156-65q25 0 43-19.5t18-53.5zM159 0H59v483h100v-71q22 36 58 59t75 23v-99q-12 3-26 3-30 0-61-19.5T159 331V0z"/><glyph glyph-name="Rcaron" unicode="Ř" horiz-adv-x="533" d="M314 723h-91l-82 144h60l67-97 64 97h60zM494 0H370L257 252h-82V0H64v667h230q86 0 140-57t54-149q0-81-36-128.5T365 271zM278 350q44 0 70.5 30t26.5 80-26.5 80-70.5 30H175V350h103z"/><glyph glyph-name="rcaron" unicode="ř" horiz-adv-x="308" d="M221 556h-91L48 700h60l67-97 64 97h60zM159 0H59v483h100v-71q22 36 58 59t75 23v-99q-12 3-26 3-30 0-61-19.5T159 331V0z"/><glyph glyph-name="Sacute" unicode="Ś" horiz-adv-x="486" d="M394 867 260 723h-68l110 144h92zM237-12Q102-12 22 73l56 86q63-72 159-72 49 0 76.5 25.5T341 175t-31 63-74.5 44.5T148 323t-75 65-31 104q0 80 57 133t150 53q117 0 192-72l-54-84q-57 57-141 57-41 0-66-22t-25-59q0-32 31-56t74.5-42.5T348 358t75-67.5T454 184q0-86-57-141T237-12z"/><glyph glyph-name="sacute" unicode="ś" horiz-adv-x="401" d="M353 700 219 556h-68l110 144h92zM198-12Q85-12 21 57l45 70q23-25 58.5-42.5T196 67q37 0 58.5 17t21.5 46q0 25-24.5 42T192 201t-70.5 27.5-60 48T37 357q0 59 44.5 98.5T203 495q95 0 159-62l-42-68q-42 51-115 51-33 0-53.5-16T131 360q0-20 18-34.5t44.5-22.5 57.5-21.5 57.5-29.5 44.5-47 18-73q0-63-47.5-103.5T198-12z"/><glyph glyph-name="Scircumflex" unicode="Ŝ" horiz-adv-x="486" d="M373 723h-60l-67 97-64-97h-60l79 144h91zM237-12Q102-12 22 73l56 86q63-72 159-72 49 0 76.5 25.5T341 175t-31 63-74.5 44.5T148 323t-75 65-31 104q0 80 57 133t150 53q117 0 192-72l-54-84q-57 57-141 57-41 0-66-22t-25-59q0-32 31-56t74.5-42.5T348 358t75-67.5T454 184q0-86-57-141T237-12z"/><glyph glyph-name="scircumflex" unicode="ŝ" horiz-adv-x="401" d="M327 556h-60l-67 97-64-97H76l79 144h91zM198-12Q85-12 21 57l45 70q23-25 58.5-42.5T196 67q37 0 58.5 17t21.5 46q0 25-24.5 42T192 201t-70.5 27.5-60 48T37 357q0 59 44.5 98.5T203 495q95 0 159-62l-42-68q-42 51-115 51-33 0-53.5-16T131 360q0-20 18-34.5t44.5-22.5 57.5-21.5 57.5-29.5 44.5-47 18-73q0-63-47.5-103.5T198-12z"/><glyph glyph-name="Scedilla" unicode="Ş" horiz-adv-x="486" d="M230-194q-55 0-94 31l21 44q34-28 71-28 21 0 35.5 10t14.5 27q0 30-30 30-18 0-30-14l-39 22 23 62Q90 0 22 73l56 86q63-72 159-72 49 0 76.5 25.5T341 175t-31 63-74.5 44.5T148 323t-75 65-31 104q0 80 57 133t150 53q117 0 192-72l-54-84q-57 57-141 57-41 0-66-22t-25-59q0-32 31-56t74.5-42.5T348 358t75-67.5T454 184q0-82-52-136.5T254-11l-17-43q14 11 32 11 27 0 44.5-19t17.5-49q0-37-29-60t-72-23z"/><glyph glyph-name="scedilla" unicode="ş" horiz-adv-x="401" d="M194-194q-55 0-94 31l21 44q34-28 71-28 21 0 35.5 10t14.5 27q0 30-30 30-18 0-30-14l-39 22 23 62Q74-1 21 57l45 70q23-25 58.5-42.5T196 67q37 0 58.5 17t21.5 46q0 25-24.5 42T192 201t-70.5 27.5-60 48T37 357q0 59 44.5 98.5T203 495q95 0 159-62l-42-68q-42 51-115 51-33 0-53.5-16T131 360q0-20 18-34.5t44.5-22.5 57.5-21.5 57.5-29.5 44.5-47 18-73q0-59-41.5-98T218-11l-17-43q14 11 32 11 27 0 44.5-19t17.5-49q0-37-29-60t-72-23z"/><glyph glyph-name="Scaron" unicode="Š" horiz-adv-x="486" d="M295 723h-91l-82 144h60l67-97 64 97h60zM237-12Q102-12 22 73l56 86q63-72 159-72 49 0 76.5 25.5T341 175t-31 63-74.5 44.5T148 323t-75 65-31 104q0 80 57 133t150 53q117 0 192-72l-54-84q-57 57-141 57-41 0-66-22t-25-59q0-32 31-56t74.5-42.5T348 358t75-67.5T454 184q0-86-57-141T237-12z"/><glyph glyph-name="scaron" unicode="š" horiz-adv-x="401" d="M249 556h-91L76 700h60l67-97 64 97h60zM198-12Q85-12 21 57l45 70q23-25 58.5-42.5T196 67q37 0 58.5 17t21.5 46q0 25-24.5 42T192 201t-70.5 27.5-60 48T37 357q0 59 44.5 98.5T203 495q95 0 159-62l-42-68q-42 51-115 51-33 0-53.5-16T131 360q0-20 18-34.5t44.5-22.5 57.5-21.5 57.5-29.5 44.5-47 18-73q0-63-47.5-103.5T198-12z"/><glyph glyph-name="Tcommaaccent" unicode="Ţ" horiz-adv-x="462" d="M294-138q0-42-21.5-79.5T217-280l-38 30q22 14 39.5 37.5T240-167q-1 0-6-.5t-7-.5q-20 0-33.5 13.5T180-119q0 23 15.5 38.5T233-65q25 0 43-19.5t18-53.5zM286 0H176v570H23v97h416v-97H286V0z"/><glyph glyph-name="tcommaaccent" unicode="ţ" horiz-adv-x="283" d="M205-138q0-42-21.5-79.5T128-280l-38 30q22 14 39.5 37.5T151-167q-1 0-6-.5t-7-.5q-20 0-33.5 13.5T91-119q0 23 15.5 38.5T144-65q25 0 43-19.5t18-53.5zM189-12Q77-12 77 108v288H14v87h63v132h100V483h80v-87h-80V129q0-53 37-53 26 0 38 16l24-75q-29-29-87-29z"/><glyph glyph-name="Tcaron" unicode="Ť" horiz-adv-x="462" d="M278 723h-91l-82 144h60l67-97 64 97h60zm8-723H176v570H23v97h416v-97H286V0z"/><glyph glyph-name="tcaron" unicode="ť" horiz-adv-x="299" d="M341 680q0-42-21.5-79.5T264 538l-38 30q22 14 39.5 37.5T287 651q-1 0-6-.5t-7-.5q-20 0-33.5 13.5T227 699q0 23 15.5 38.5T280 753q25 0 43-19.5t18-53.5zM189-12Q77-12 77 108v288H14v87h63v132h100V483h80v-87h-80V129q0-53 37-53 26 0 38 16l24-75q-29-29-87-29z"/><glyph glyph-name="Tbar" unicode="Ŧ" horiz-adv-x="462" d="M286 0H176v279H69v60h107v231H23v97h416v-97H286V339h103v-60H286V0z"/><glyph glyph-name="tbar" unicode="ŧ" horiz-adv-x="283" d="M189-12Q77-12 77 108v110H14v60h63v118H14v87h63v132h100V483h80v-87h-80V278h51v-60h-51v-89q0-53 37-53 26 0 38 16l24-75q-29-29-87-29z"/><glyph glyph-name="Utilde" unicode="Ũ" horiz-adv-x="592" d="M296-12q-109 0-170.5 62T64 224v443h111V223q0-66 31.5-101.5T296 86t89.5 35.5T417 223v444h111V224q0-112-61.5-174T296-12zm52 733q-21 0-37.5 12.5t-24.5 28-19 28-22 12.5q-15 0-24.5-19t-9.5-56h-54q0 61 24 97.5t68 36.5q21 0 37-12.5t24.5-27.5 19.5-27.5 22-12.5q33 0 33 74h54q0-61-23.5-97.5T348 721z"/><glyph glyph-name="utilde" unicode="ũ" horiz-adv-x="485" d="M426 0H326v64q-22-32-59.5-54T185-12Q59-12 59 118v365h100V153q0-77 69-77 30 0 56.5 19t41.5 47v341h100V0zM292 554q-21 0-37.5 12.5t-24.5 28-19 28-22 12.5q-15 0-24.5-19t-9.5-56h-54q0 61 24 97.5t68 36.5q21 0 37-12.5t24.5-27.5 19.5-27.5 22-12.5q33 0 33 74h54q0-61-23.5-97.5T292 554z"/><glyph glyph-name="Umacron" unicode="Ū" horiz-adv-x="592" d="M296-12q-109 0-170.5 62T64 224v443h111V223q0-66 31.5-101.5T296 86t89.5 35.5T417 223v444h111V224q0-112-61.5-174T296-12zm155 746H142v60h309v-60z"/><glyph glyph-name="umacron" unicode="ū" horiz-adv-x="485" d="M426 0H326v64q-22-32-59.5-54T185-12Q59-12 59 118v365h100V153q0-77 69-77 30 0 56.5 19t41.5 47v341h100V0zm-29 567H88v60h309v-60z"/><glyph glyph-name="Ubreve" unicode="Ŭ" horiz-adv-x="592" d="M296-12q-109 0-170.5 62T64 224v443h111V223q0-66 31.5-101.5T296 86t89.5 35.5T417 223v444h111V224q0-112-61.5-174T296-12zm151 795q-55-75-149-75-92 0-149 75l47 38q37-53 102-53t102 53z"/><glyph glyph-name="ubreve" unicode="ŭ" horiz-adv-x="485" d="M426 0H326v64q-22-32-59.5-54T185-12Q59-12 59 118v365h100V153q0-77 69-77 30 0 56.5 19t41.5 47v341h100V0zm-34 616q-55-75-149-75-92 0-149 75l47 38q37-53 102-53t102 53z"/><glyph glyph-name="Uring" unicode="Ů" horiz-adv-x="592" d="M297 698q-38 0-66 28t-28 67q0 38 28 66t66 28q39 0 66.5-28t27.5-66q0-39-27.5-67T297 698zm0 47q20 0 33.5 14t13.5 34-13.5 33.5T297 840q-19 0-33-14t-14-33 14-33.5 33-14.5zm-1-757q-109 0-170.5 62T64 224v443h111V223q0-66 31.5-101.5T296 86t89.5 35.5T417 223v444h111V224q0-112-61.5-174T296-12z"/><glyph glyph-name="uring" unicode="ů" horiz-adv-x="485" d="M243 538q-38 0-66 28t-28 67q0 38 28 66t66 28q39 0 66.5-28t27.5-66q0-39-27.5-67T243 538zm0 47q20 0 33.5 14t13.5 34-13.5 33.5T243 680q-19 0-33-14t-14-33 14-33.5 33-14.5zM426 0H326v64q-22-32-59.5-54T185-12Q59-12 59 118v365h100V153q0-77 69-77 30 0 56.5 19t41.5 47v341h100V0z"/><glyph glyph-name="Uhungarumlaut" unicode="Ű" horiz-adv-x="592" d="M296-12q-109 0-170.5 62T64 224v443h111V223q0-66 31.5-101.5T296 86t89.5 35.5T417 223v444h111V224q0-112-61.5-174T296-12zm48 879-97-144h-57l73 144h81zm134 0-97-144h-56l72 144h81z"/><glyph glyph-name="uhungarumlaut" unicode="ű" horiz-adv-x="485" d="M426 0H326v64q-22-32-59.5-54T185-12Q59-12 59 118v365h100V153q0-77 69-77 30 0 56.5 19t41.5 47v341h100V0zM290 700l-97-144h-57l73 144h81zm134 0-97-144h-56l72 144h81z"/><glyph glyph-name="Uogonek" unicode="Ų" horiz-adv-x="592" d="M296-12q-109 0-170.5 62T64 224v443h111V223q0-66 31.5-101.5T296 86t89.5 35.5T417 223v444h111V224q0-88-38-145.5T382 0q-67-40-67-99 0-42 33-42 28 0 38 35l44-25q-25-55-82-55-38 0-62 21t-24 63q0 49 36 90h-2z"/><glyph glyph-name="uogonek" unicode="ų" horiz-adv-x="485" d="M426 0q-67-40-67-99 0-42 33-42 28 0 38 35l44-25q-25-55-82-55-38 0-62 21t-24 63q0 56 48 102h-28v64q-22-32-59.5-54T185-12Q59-12 59 118v365h100V153q0-77 69-77 30 0 56.5 19t41.5 47v341h100V0z"/><glyph glyph-name="Wcircumflex" unicode="Ŵ" horiz-adv-x="745" d="M498 723h-60l-67 97-64-97h-60l79 144h91zM584 0H468l-96 479L277 0H161L10 667h119l96-498 103 498h89l104-498 95 498h119z"/><glyph glyph-name="wcircumflex" unicode="ŵ" horiz-adv-x="667" d="M460 556h-60l-67 97-64-97h-60l79 144h91zM531 0H427l-93 355L240 0H136L7 483h103l84-352 92 352h92l94-352 85 352h103z"/><glyph glyph-name="Ycircumflex" unicode="Ŷ" horiz-adv-x="521" d="M387 723h-60l-67 97-64-97h-60l79 144h91zM316 0H206v278L-1 667h123l139-285 139 285h122L316 278V0z"/><glyph glyph-name="ycircumflex" unicode="ŷ" horiz-adv-x="430" d="m42-189 15 88q13-7 32-7 40 0 55 40l20 58L2 483h106l107-363 108 363h106L238-91q-19-58-53.5-81.5T96-196q-31 0-54 7zm301 745h-60l-67 97-64-97H92l79 144h91z"/><glyph glyph-name="Ydieresis" unicode="Ÿ" horiz-adv-x="521" d="M410 774q0-23-17-39.5T353 718t-39.5 16.5T297 774t16.5 39.5T353 830t40-16.5 17-39.5zm-182 0q0-23-16.5-39.5T172 718t-40 16.5-17 39.5 17 39.5 40 16.5 39.5-16.5T228 774zM316 0H206v278L-1 667h123l139-285 139 285h122L316 278V0z"/><glyph glyph-name="Zacute" unicode="Ź" horiz-adv-x="475" d="M388 867 254 723h-68l110 144h92zM437 0H38v92l258 478H38v97h392v-90L171 98h266V0z"/><glyph glyph-name="zacute" unicode="ź" horiz-adv-x="399" d="M350 700 216 556h-68l110 144h92zM360 0H38v76l193 320H38v87h318v-73L163 87h197V0z"/><glyph glyph-name="Zdotaccent" unicode="Ż" horiz-adv-x="475" d="M437 0H38v92l258 478H38v97h392v-90L171 98h266V0zM235 717q-23 0-40 16.5T178 773t17 40 40 17 39.5-17 16.5-40-16.5-39.5T235 717z"/><glyph glyph-name="zdotaccent" unicode="ż" horiz-adv-x="399" d="M360 0H38v76l193 320H38v87h318v-73L163 87h197V0zM198 550q-23 0-40 16.5T141 606t17 40 40 17 39.5-17 16.5-40-16.5-39.5T198 550z"/><glyph glyph-name="Zcaron" unicode="Ž" horiz-adv-x="475" d="M283 723h-91l-82 144h60l67-97 64 97h60zM437 0H38v92l258 478H38v97h392v-90L171 98h266V0z"/><glyph glyph-name="zcaron" unicode="ž" horiz-adv-x="399" d="M244 556h-91L71 700h60l67-97 64 97h60zM360 0H38v76l193 320H38v87h318v-73L163 87h197V0z"/><glyph glyph-name="longs" unicode="ſ" horiz-adv-x="274" d="M179 0H79v396H16v87h63v45q0 70 36.5 109.5T215 677q62 0 97-34l-34-73q-19 19-45 19-54 0-54-61V0z"/><glyph glyph-name="florin" unicode="ƒ" horiz-adv-x="414" d="M129-161H16l90 408H54v88h72l45 204q13 62 59 100t106 38 91-32l-40-83q-13 18-39 18-25 0-43.5-17.5T279 514l-40-179h104v-88H219z"/><glyph glyph-name="Ohorn" unicode="Ơ" horiz-adv-x="612" d="M306-12q-124 0-195.5 97T39 333t71.5 248T306 678q127 0 201-105 35 32 40 67-2-2-12-2-19 0-31 13t-12 33 14 34.5 35 14.5q23 0 39-18.5t16-49.5q0-77-67-129 44-90 44-203 0-151-71.5-248T306-12zm0 99q72 0 113 69.5T460 333q0 108-41 177.5T306 580q-73 0-113.5-69T152 333q0-108 40.5-177T306 87z"/><glyph glyph-name="ohorn" unicode="ơ" horiz-adv-x="488" d="M466 531q0-70-59-122 46-69 46-167 0-108-55.5-181T244-12 90.5 61 35 242t55 180.5T244 495q80 0 135-53 34 32 38 64-2-2-12-2-19 0-31 13t-12 33 14 34.5 35 14.5q23 0 39-18.5t16-49.5zM244 76q52 0 79 48t27 118-27 117.5-79 47.5-79-47.5T138 242t27-118 79-48z"/><glyph glyph-name="Uhorn" unicode="Ư" horiz-adv-x="592" d="M631 728q0-45-27-85.5T528 577V224q0-112-61.5-174T296-12 125.5 50 64 224v443h111V223q0-66 31.5-101.5T296 86t89.5 35.5T417 223v444h111v-43q47 33 54 79-4-2-12-2-19 0-31 13t-12 33 14 34 34 14q24 0 40-18t16-49z"/><glyph glyph-name="uhorn" unicode="ư" horiz-adv-x="485" d="M426 0H326v64q-22-32-59.5-54T185-12Q59-12 59 118v365h100V153q0-77 69-77 30 0 56.5 19t41.5 47v341h100v-24q26 30 29 56l-5-1h-7q-19 0-31.5 12.5T399 559t14.5 34.5T448 608q24 0 40-18t16-49q0-82-78-136V0z"/><glyph glyph-name="AEacute" unicode="Ǽ" horiz-adv-x="772" d="M573 867 439 723h-68l110 144h92zM730 0H365v132H182L123 0H4l315 667h411v-97H476V389h247v-98H476V98h254V0zM365 230v319L223 230h142z"/><glyph glyph-name="aeacute" unicode="ǽ" horiz-adv-x="745" d="M510 700 376 556h-68l110 144h92zm203-491H420q4-62 34.5-100T539 71q62 0 103 52l48-61q-65-74-159-74-106 0-159 88-25-39-69-63.5T203-12q-75 0-122 42T34 147q0 74 43 116.5T187 306q89 0 136-57v69q0 43-26.5 67.5T223 410q-70 0-128-55l-39 70q70 70 176 70 55 0 92.5-23t51.5-62q52 85 148 85 89 0 139-72t50-186v-28zm-293 71h197q-1 53-25 93.5T519 414q-48 0-72.5-41T420 280zm-97-113v16q-36 54-99 54-40 0-65-22.5T134 153q0-40 24.5-62T224 69q40 0 69.5 30t29.5 68z"/><glyph glyph-name="Oslashacute" unicode="Ǿ" horiz-adv-x="612" d="M457 867 323 723h-68l110 144h92zM306-12q-81 0-142 44L145 0H69l46 79q-76 96-76 254 0 151 71.5 248T306 678q77 0 138-42l18 31h75l-44-76q80-95 80-258 0-151-71.5-248T306-12zm0 99q72 0 113 69.5T460 333q0 90-29 154L218 123q36-36 88-36zM152 333q0-85 26-148l213 361q-36 34-85 34-73 0-113.5-69T152 333z"/><glyph glyph-name="oslashacute" unicode="ǿ" horiz-adv-x="488" d="M395 700 261 556h-68l110 144h92zM106 0H45l43 63q-53 70-53 179 0 108 55 180.5T244 495q66 0 117-37l17 25h62l-42-61q55-70 55-180 0-108-55.5-181T244-12q-70 0-120 39zm138 76q52 0 79 48t27 118q0 51-15 90L178 105q27-29 66-29zM138 242q0-50 13-88l156 226q-25 27-63 27-52 0-79-47.5T138 242z"/><glyph glyph-name="Scommaaccent" unicode="Ș" horiz-adv-x="486" d="M302-138q0-42-21.5-79.5T225-280l-38 30q22 14 39.5 37.5T248-167q-1 0-6-.5t-7-.5q-20 0-33.5 13.5T188-119q0 23 15.5 38.5T241-65q25 0 43-19.5t18-53.5zM237-12Q102-12 22 73l56 86q63-72 159-72 49 0 76.5 25.5T341 175t-31 63-74.5 44.5T148 323t-75 65-31 104q0 80 57 133t150 53q117 0 192-72l-54-84q-57 57-141 57-41 0-66-22t-25-59q0-32 31-56t74.5-42.5T348 358t75-67.5T454 184q0-86-57-141T237-12z"/><glyph glyph-name="scommaaccent" unicode="ș" horiz-adv-x="402" d="M266-138q0-42-21.5-79.5T189-280l-38 30q22 14 39.5 37.5T212-167q-1 0-6-.5t-7-.5q-20 0-33.5 13.5T152-119q0 23 15.5 38.5T205-65q25 0 43-19.5t18-53.5zM198-12Q85-12 21 57l45 70q23-25 58.5-42.5T196 67q37 0 58.5 17t21.5 46q0 25-24.5 42T192 201t-70.5 27.5-60 48T37 357q0 59 44.5 98.5T203 495q95 0 159-62l-42-68q-42 51-115 51-33 0-53.5-16T131 360q0-20 18-34.5t44.5-22.5 57.5-21.5 57.5-29.5 44.5-47 18-73q0-63-47.5-103.5T198-12z"/><glyph glyph-name="uni021A" unicode="Ț" horiz-adv-x="462" d="M294-138q0-42-21.5-79.5T217-280l-38 30q22 14 39.5 37.5T240-167q-1 0-6-.5t-7-.5q-20 0-33.5 13.5T180-119q0 23 15.5 38.5T233-65q25 0 43-19.5t18-53.5zM286 0H176v570H23v97h416v-97H286V0z"/><glyph glyph-name="uni021B" unicode="ț" horiz-adv-x="283" d="M205-138q0-42-21.5-79.5T128-280l-38 30q22 14 39.5 37.5T151-167q-1 0-6-.5t-7-.5q-20 0-33.5 13.5T91-119q0 23 15.5 38.5T144-65q25 0 43-19.5t18-53.5zM189-12Q77-12 77 108v288H14v87h63v132h100V483h80v-87h-80V129q0-53 37-53 26 0 38 16l24-75q-29-29-87-29z"/><glyph glyph-name="uni0237" unicode="ȷ" horiz-adv-x="218" d="M19-196q-53 0-87 31l28 75q20-22 47-22 52 0 52 71v524h100V-41q0-155-140-155z"/><glyph glyph-name="hsuperior" unicode="ʰ" horiz-adv-x="353" d="M306 326h-74v209q0 51-47 51-39 0-64-41V326H48v434h73V599q14 20 40 34.5t56 14.5q89 0 89-90V326z"/><glyph glyph-name="uni02BC" unicode="ʼ" horiz-adv-x="243" d="M194 589q0-50-25-94t-67-73l-45 37q25 15 45.5 42t25.5 52q-9-3-16-3-25 0-41.5 17.5T54 611q0 27 19 46.5t46 19.5q31 0 53-24t22-64z"/><glyph glyph-name="circumflex" unicode="ˆ" horiz-adv-x="251" d="M251 556h-60l-67 97-64-97H0l79 144h91z"/><glyph glyph-name="caron" unicode="ˇ" horiz-adv-x="251" d="M173 556H82L0 700h60l67-97 64 97h60z"/><glyph glyph-name="uni02C9" unicode="ˉ" horiz-adv-x="309" d="M309 591H0v60h309v-60z"/><glyph glyph-name="uni02CB" unicode="ˋ" horiz-adv-x="202" d="M202 556h-68L0 700h93z"/><glyph glyph-name="breve" unicode="˘" horiz-adv-x="298" d="M298 616q-55-75-149-75-92 0-149 75l47 38q37-53 102-53t102 53z"/><glyph glyph-name="dotaccent" unicode="˙" horiz-adv-x="141" d="M71 550q-23 0-40 16.5T14 606t17 40 40 17 39.5-17 16.5-40-16.5-39.5T71 550z"/><glyph glyph-name="ring" unicode="˚" horiz-adv-x="188" d="M94 538q-38 0-66 28T0 633q0 38 28 66t66 28q39 0 66.5-28t27.5-66q0-39-27.5-67T94 538zm0 47q20 0 33.5 14t13.5 34-13.5 33.5T94 680q-19 0-33-14t-14-33 14-33.5T94 585z"/><glyph glyph-name="ogonek" unicode="˛" horiz-adv-x="168" d="m124-106 44-25q-25-55-82-55-38 0-62 21T0-102Q0-27 81 26l39-26Q53-40 53-99q0-42 33-42 28 0 38 35z"/><glyph glyph-name="tilde" unicode="˜" horiz-adv-x="282" d="M191 554q-21 0-37.5 12.5t-24.5 28-19 28T88 635q-15 0-24.5-19T54 560H0q0 61 24 97.5T92 694q21 0 37-12.5t24.5-27.5 19.5-27.5 22-12.5q33 0 33 74h54q0-61-23.5-97.5T191 554z"/><glyph glyph-name="hungarumlaut" unicode="˝" horiz-adv-x="288" d="M154 700 57 556H0l73 144h81zm134 0-97-144h-56l72 144h81z"/><glyph glyph-name="hookabovecomb" unicode="̉" horiz-adv-x="168" d="m53 727-39 10q15 53 70 53 30 0 48.5-16.5T151 723q0-28-18-56H89q21 25 21 54 0 32-27 32-22 0-30-26z"/><glyph glyph-name="uni037E" unicode=";" horiz-adv-x="242" d="M121 356q-27 0-47 20.5T54 423q0 28 20 47.5t47 19.5q28 0 47.5-19.5T188 423q0-27-20-47t-47-20zm73-318q0-50-25-94t-67-73L57-92q24 14 45 41.5T128 2q-9-3-16-3-25 0-41.5 17.5T54 61t19 46.5 46 19.5q31 0 53-24t22-65z"/><glyph glyph-name="tonos" unicode="΄" horiz-adv-x="211" d="M151 560h-46l19 205h90z"/><glyph glyph-name="dieresistonos" unicode="΅" horiz-adv-x="485" d="M252 560h-47l20 205h90zm182 47q0-23-16.5-39.5T377 551q-23 0-39.5 16.5T321 607t16.5 39.5T377 663q24 0 40.5-16.5T434 607zm-271 0q0-23-16.5-39.5T107 551t-39.5 16.5T51 607t16.5 39.5T107 663t39.5-16.5T163 607z"/><glyph glyph-name="Alphatonos" unicode="Ά" horiz-adv-x="536" d="M121 560H75l19 205h90zM533 0H413l-36 132H158L122 0H2l199 667h133zM355 230l-87 319-87-319h174z"/><glyph glyph-name="Epsilontonos" unicode="Έ" horiz-adv-x="506" d="M35 560h-46L8 765h90zM463 0H98v667h365v-97H209V389h247v-98H209V98h254V0z"/><glyph glyph-name="Etatonos" unicode="Ή" horiz-adv-x="627" d="M35 560h-46L8 765h90zM564 0H453v294H209V0H98v667h111V392h244v275h111V0z"/><glyph glyph-name="Iotatonos" unicode="Ί" horiz-adv-x="272" d="M35 560h-46L8 765h90zM209 0H98v667h111V0z"/><glyph glyph-name="Omicrontonos" unicode="Ό" horiz-adv-x="621" d="M55 560H9l19 205h90zM315-12q-124 0-195.5 97T48 333t71.5 248T315 678t195.5-97T582 333 510.5 85 315-12zm0 99q72 0 113 69.5T469 333q0 108-41 177.5T315 580q-73 0-113.5-69T161 333q0-108 40.5-177T315 87z"/><glyph glyph-name="Upsilontonos" unicode="Ύ" horiz-adv-x="598" d="M32 560h-46L5 765h90zM393 0H283v278L76 667h123l139-285 139 285h122L393 278V0z"/><glyph glyph-name="Omegatonos" unicode="Ώ" horiz-adv-x="621" d="M55 560H9l19 205h90zM65 98h100Q51 187 51 356q0 146 72 234t195 88q124 0 196-88t72-234q0-169-115-258h101V0H367v98q44 20 74.5 83.5T472 334q0 111-39 178t-115 67q-75 0-114.5-67.5T164 334q0-89 30.5-152.5T270 98V0H65v98z"/><glyph glyph-name="iotadieresistonos" unicode="ΐ" horiz-adv-x="230" d="M125 560H78l20 205h90zm182 47q0-23-16.5-39.5T250 551q-23 0-39.5 16.5T194 607t16.5 39.5T250 663q24 0 40.5-16.5T307 607zm-271 0q0-23-16.5-39.5T-20 551t-39.5 16.5T-76 607t16.5 39.5T-20 663t39.5-16.5T36 607zM171-12Q59-12 59 108v375h100V123q0-47 35-47 7 0 17 2l7-84q-16-6-47-6z"/><glyph glyph-name="Alpha" unicode="Α" horiz-adv-x="536" d="M533 0H413l-36 132H158L122 0H2l199 667h133zM355 230l-87 319-87-319h174z"/><glyph glyph-name="Beta" unicode="Β" horiz-adv-x="540" d="M324 0H64v667h252q82 0 127-48t45-122q0-61-29.5-100.5T383 344q49-7 82.5-54.5T499 180q0-81-45-130.5T324 0zm-32 389q41 0 61.5 24.5T374 479t-21 66-61 25H175V389h117zm4-291q44 0 66.5 25.5T385 195q0 42-23 69t-66 27H175V98h121z"/><glyph glyph-name="Gamma" unicode="Γ" horiz-adv-x="464" d="M175 0H64v667h365v-97H175V0z"/><glyph glyph-name="uni0394" unicode="Δ" horiz-adv-x="547" d="M545 0H2l205 667h133zM402 98 273 549 146 98h256z"/><glyph glyph-name="Epsilon" unicode="Ε" horiz-adv-x="472" d="M429 0H64v667h365v-97H175V389h247v-98H175V98h254V0z"/><glyph glyph-name="Zeta" unicode="Ζ" horiz-adv-x="475" d="M437 0H38v92l258 478H38v97h392v-90L171 98h266V0z"/><glyph glyph-name="Eta" unicode="Η" horiz-adv-x="593" d="M530 0H419v294H175V0H64v667h111V392h244v275h111V0z"/><glyph glyph-name="Theta" unicode="Θ" horiz-adv-x="612" d="M421 291H191v98h230v-98zM306-12q-124 0-195.5 97T39 333t71.5 248T306 678t195.5-97T573 333 501.5 85 306-12zm0 99q72 0 113 69.5T460 333q0 108-41 177.5T306 580q-73 0-113.5-69T152 333q0-108 40.5-177T306 87z"/><glyph glyph-name="Iota" unicode="Ι" horiz-adv-x="239" d="M175 0H64v667h111V0z"/><glyph glyph-name="Kappa" unicode="Κ" horiz-adv-x="535" d="M528 0H397L225 275l-50-76V0H64v667h111V346l207 321h130L294 352z"/><glyph glyph-name="Lambda" unicode="Λ" horiz-adv-x="536" d="M533 0H413L268 549 122 0H2l199 667h133z"/><glyph glyph-name="Mu" unicode="Μ" horiz-adv-x="713" d="M650 0H540v460L378 0h-43L175 460V0H64v667h150l143-406 144 406h149V0z"/><glyph glyph-name="Nu" unicode="Ν" horiz-adv-x="592" d="M528 0H422L175 431V0H64v667h112l241-419v419h111V0z"/><glyph glyph-name="Xi" unicode="Ξ" horiz-adv-x="504" d="M460 570H44v97h416v-97zm0-570H44v98h416V0zm-7 291H51v98h402v-98z"/><glyph glyph-name="Omicron" unicode="Ο" horiz-adv-x="612" d="M306-12q-124 0-195.5 97T39 333t71.5 248T306 678t195.5-97T573 333 501.5 85 306-12zm0 99q72 0 113 69.5T460 333q0 108-41 177.5T306 580q-73 0-113.5-69T152 333q0-108 40.5-177T306 87z"/><glyph glyph-name="Pi" unicode="Π" horiz-adv-x="593" d="M530 0H419v570H175V0H64v667h466V0z"/><glyph glyph-name="Rho" unicode="Ρ" horiz-adv-x="513" d="M175 0H64v667h227q94 0 145.5-59.5T488 460q0-89-51.5-148.5T291 252H175V0zm103 350q44 0 70.5 30t26.5 80-26.5 80-70.5 30H175V350h103z"/><glyph glyph-name="Sigma" unicode="Σ" horiz-adv-x="464" d="m171 570 162-227L167 98h257V0H44v100l164 243L44 570v97h380v-97H171z"/><glyph glyph-name="Tau" unicode="Τ" horiz-adv-x="462" d="M286 0H176v570H23v97h416v-97H286V0z"/><glyph glyph-name="Upsilon" unicode="Υ" horiz-adv-x="521" d="M316 0H206v278L-1 667h123l139-285 139 285h122L316 278V0z"/><glyph glyph-name="Phi" unicode="Φ" horiz-adv-x="730" d="M420 0H309v67q-131 13-200.5 84.5T39 333q0 109 70 181t200 85v68h111v-68q131-13 201-84.5T691 333t-70-182-201-84V0zm157 333q0 66-39.5 110.5T420 500V167q78 12 117.5 56T577 333zm-425 0q0-66 39.5-110T309 167v333q-78-12-117.5-56.5T152 333z"/><glyph glyph-name="Chi" unicode="Χ" horiz-adv-x="535" d="M533 0H405L267 254 130 0H2l197 341L14 667h127l126-240 126 240h128L336 342z"/><glyph glyph-name="Psi" unicode="Ψ" horiz-adv-x="739" d="M425 0H315v126q-118 12-184.5 76.5T64 375v292h112V377q0-131 139-151v441h110V226q138 20 138 151v290h112V376q0-109-66-173.5T425 126V0z"/><glyph glyph-name="uni03A9" unicode="Ω" horiz-adv-x="606" d="M50 98h100Q36 187 36 356q0 146 72 234t195 88q124 0 196-88t72-234q0-169-115-258h101V0H352v98q44 20 74.5 83.5T457 334q0 111-39 178t-115 67q-75 0-114.5-67.5T149 334q0-89 30.5-152.5T255 98V0H50v98z"/><glyph glyph-name="Iotadieresis" unicode="Ϊ" horiz-adv-x="239" d="M175 0H64v667h111V0zm92 791q0-23-17-39.5T210 735t-39.5 16.5T154 791t16.5 39.5T210 847t40-16.5 17-39.5zm-182 0q0-23-16.5-39.5T29 735t-40 16.5-17 39.5 17 39.5T29 847t39.5-16.5T85 791z"/><glyph glyph-name="Upsilondieresis" unicode="Ϋ" horiz-adv-x="521" d="M316 0H206v278L-1 667h123l139-285 139 285h122L316 278V0zm92 791q0-23-17-39.5T351 735t-39.5 16.5T295 791t16.5 39.5T351 847t40-16.5 17-39.5zm-182 0q0-23-16.5-39.5T170 735t-40 16.5-17 39.5 17 39.5 40 16.5 39.5-16.5T226 791z"/><glyph glyph-name="alphatonos" unicode="ά" horiz-adv-x="506" d="M267 560h-46l19 205h90zM487 78l7-84q-16-6-47-6-91 0-107 84-20-38-54.5-61T211-12q-81 0-128.5 68.5T35 241t47.5 185T211 495t124-77v65h100V123q0-47 35-47 7 0 17 2zm-246-2q28 0 54.5 19t39.5 47v198q-13 28-39.5 47T241 406q-50 0-76.5-45.5T138 241q0-72 26.5-118.5T241 76z"/><glyph glyph-name="epsilontonos" unicode="έ" horiz-adv-x="437" d="M232 560h-46l19 205h90zm-3-572q-89 0-141.5 40T35 131q0 49 35.5 80t82.5 36q-46 9-78 41.5T43 364q0 61 53.5 96T241 495q106 0 172-77l-50-60q-46 56-124 56-43 0-69.5-17T143 351q0-32 25.5-49.5T238 284h89v-80h-90q-102 0-102-65 0-32 25.5-51T231 69q88 0 140 58l49-61q-68-78-191-78z"/><glyph glyph-name="etatonos" unicode="ή" horiz-adv-x="485" d="M256 560h-46l19 205h90zm170-744H326v513q0 78-69 78-30 0-56.5-19.5T159 340V0H59v483h100v-65q21 32 59.5 54.5T299 495q127 0 127-131v-548z"/><glyph glyph-name="iotatonos" unicode="ί" horiz-adv-x="230" d="M129 560H83l19 205h90zm42-572Q59-12 59 108v375h100V123q0-47 35-47 7 0 17 2l7-84q-16-6-47-6z"/><glyph glyph-name="upsilondieresistonos" unicode="ΰ" horiz-adv-x="486" d="M253 560h-47l20 205h90zm182 47q0-23-16.5-39.5T378 551q-23 0-39.5 16.5T322 607t16.5 39.5T378 663q24 0 40.5-16.5T435 607zm-271 0q0-23-16.5-39.5T108 551t-39.5 16.5T52 607t16.5 39.5T108 663t39.5-16.5T164 607zm78-619q-87 0-135 53.5T59 188v295h100V189q0-54 21-83.5T242 76q53 0 79.5 49.5T348 254q0 113-56 203l91 38q69-109 69-241 0-116-55-191T242-12z"/><glyph glyph-name="alpha" unicode="α" horiz-adv-x="506" d="m487 78 7-84q-16-6-47-6-91 0-107 84-20-38-54.5-61T211-12q-81 0-128.5 68.5T35 241t47.5 185T211 495t124-77v65h100V123q0-47 35-47 7 0 17 2zm-246-2q28 0 54.5 19t39.5 47v198q-13 28-39.5 47T241 406q-50 0-76.5-45.5T138 241q0-72 26.5-118.5T241 76z"/><glyph glyph-name="beta" unicode="β" horiz-adv-x="494" d="M159 455V142q14-28 41-47t58-19q47 0 72 31t25 79q0 54-28 82t-73 28h-28v88h24q42 0 67 26.5t25 75.5q0 48-23 75t-60 27q-45 0-72.5-32.5T159 455zm0-391v-248H59v639q0 114 58 168t143 54 135-46.5T445 498q0-58-31.5-100T332 345q51-9 89-55.5T459 169q0-77-48-129T290-12q-85 0-131 76z"/><glyph glyph-name="gamma" unicode="γ" horiz-adv-x="430" d="M265-184H165v125q0 154-47.5 296.5T-9 483h112q50-75 84.5-169T229 130q35 67 58 165t23 188h99q0-117-40-246T265 7v-191z"/><glyph glyph-name="delta" unicode="δ" horiz-adv-x="488" d="M248-12Q147-12 91 54T35 214q0 69 30.5 124t80.5 88q-65 44-65 115 0 59 44.5 98.5T247 679q94 0 159-62l-42-68q-42 51-116 51-33 0-53-16t-20-40q0-20 20.5-37.5T247 476t67-35.5 67-49 51.5-74T453 209q0-91-53.5-156T248-12zm110 220q0 66-33.5 103T229 380q-42-25-66.5-69T138 214q0-56 28.5-97T247 76q53 0 82 40t29 92z"/><glyph glyph-name="epsilon" unicode="ε" horiz-adv-x="437" d="M229-12q-89 0-141.5 40T35 131q0 49 35.5 80t82.5 36q-46 9-78 41.5T43 364q0 61 53.5 96T241 495q106 0 172-77l-50-60q-46 56-124 56-43 0-69.5-17T143 351q0-32 25.5-49.5T238 284h89v-80h-90q-102 0-102-65 0-32 25.5-51T231 69q88 0 140 58l49-61q-68-78-191-78z"/><glyph glyph-name="zeta" unicode="ζ" horiz-adv-x="410" d="M285-42q0 16-8 23t-28 7q-96 0-155 59.5T35 198q0 221 226 382H46v87h329v-73q-111-85-174-183.5T138 211q0-60 34.5-97.5T269 76q59 0 85.5-23T381-17q0-56-45-140h-98q47 75 47 115z"/><glyph glyph-name="eta" unicode="η" horiz-adv-x="485" d="M426-184H326v513q0 78-69 78-30 0-56.5-19.5T159 340V0H59v483h100v-65q21 32 59.5 54.5T299 495q127 0 127-131v-548z"/><glyph glyph-name="theta" unicode="θ" horiz-adv-x="488" d="M244-12Q141-12 88 84T35 334q0 155 53 250t156 95 156-95 53-250q0-154-53-250T244-12zm0 88q52 0 76.5 54.5T349 292H139q6-216 105-216zm0 515q-52 0-76.5-53.5T139 379h210q-8 212-105 212z"/><glyph glyph-name="iota" unicode="ι" horiz-adv-x="230" d="M171-12Q59-12 59 108v375h100V123q0-47 35-47 7 0 17 2l7-84q-16-6-47-6z"/><glyph glyph-name="kappa" unicode="κ" horiz-adv-x="456" d="M448 0H331L217 202l-58-78V0H59v483h100V246l170 237h116L285 266z"/><glyph glyph-name="lambda" unicode="λ" horiz-adv-x="430" d="m57 584-15 88q23 7 54 7 54-1 88.5-24t53.5-81L429 0H323L215 363 108 0H2l162 492-20 58q-15 41-55 41-19 0-32-7z"/><glyph glyph-name="uni03BC" unicode="μ" horiz-adv-x="497" d="M159 14v-198H59v667h100V153q0-78 70-78 30 0 55.5 19.5T326 142v341h100V123q0-47 35-47 7 0 17 2l7-84q-17-6-47-6-91 0-108 86-18-38-47.5-62T219-12q-43 0-60 26z"/><glyph glyph-name="nu" unicode="ν" horiz-adv-x="430" d="M261 0H161L2 483h106l111-377q43 81 67 182t24 195h99q0-119-41-250T261 0z"/><glyph glyph-name="xi" unicode="ξ" horiz-adv-x="410" d="M249-12Q149-12 92 38.5T35 170q0 60 32.5 101t79.5 55q-44 9-73.5 43.5T44 452q0 39 24 74t63 54H52v87h316v-87H215q-31-12-50.5-39.5T145 481q0-46 30-71.5t77-25.5h110v-86H252q-51 0-82.5-27.5T138 187q0-47 34-79t97-32q59 0 85.5-23T381-17q0-56-45-140h-98q47 75 47 115 0 16-8 23t-28 7z"/><glyph glyph-name="omicron" unicode="ο" horiz-adv-x="488" d="M244-12q-98 0-153.5 73T35 242t55 180.5T244 495t154-72.5T453 242 397.5 61 244-12zm0 88q52 0 79 48t27 118-27 117.5-79 47.5-79-47.5T138 242t27-118 79-48z"/><glyph glyph-name="pi" unicode="π" horiz-adv-x="521" d="M444 0h-99v396H177V0H77v396H14v87h494v-87h-64V0z"/><glyph glyph-name="rho" unicode="ρ" horiz-adv-x="492" d="M283-12q-81 0-124 77v-249H59v426q0 107 52.5 180T258 495q95 0 148-72t53-181q0-116-47.5-185T283-12zm-30 88q50 0 76.5 46.5T356 242q0 71-25 118t-74 47q-48 0-73-47t-25-118v-99q13-28 39.5-47.5T253 76z"/><glyph glyph-name="sigma1" unicode="ς" horiz-adv-x="408" d="M251-12q-96 0-156 70.5T35 242q0 111 58 182t154 71q95 0 147-65l-51-68q-35 45-86 45-55 0-87-47t-32-118q0-74 35-120t94-46q115 0 115-93 0-56-45-140h-96q48 73 48 115 0 30-38 30z"/><glyph glyph-name="sigma" unicode="σ" horiz-adv-x="488" d="M447 220q0-96-53-164T244-12 91 60.5 35 242q0 103 57.5 172T256 483h213v-88h-89q67-67 67-175zm-97 14q0 112-65 161h-29q-59 0-88.5-44.5T138 242q0-70 27-118t79-48q51 0 78.5 46.5T350 234z"/><glyph glyph-name="tau" unicode="τ" horiz-adv-x="383" d="M253-12q-111 0-111 120v288H19v87h345v-87H241V129q0-53 37-53 26 0 38 16l24-75q-29-29-87-29z"/><glyph glyph-name="upsilon" unicode="υ" horiz-adv-x="486" d="M242-12q-87 0-135 53.5T59 188v295h100V189q0-54 21-83.5T242 76q53 0 79.5 49.5T348 254q0 113-56 203l91 38q69-109 69-241 0-116-55-191T242-12z"/><glyph glyph-name="phi" unicode="φ" horiz-adv-x="674" d="M639 242q0-103-63.5-171T387-9v-175h-99V-9Q162 3 98.5 72.5T35 250q0 168 161 245l43-77q-101-51-101-168 0-151 150-171v416h49q149 0 225.5-70T639 242zm-103 0q0 68-38 112t-111 50V79q77 11 113 55t36 108z"/><glyph glyph-name="chi" unicode="χ" horiz-adv-x="424" d="M418-184H311L212 60l-99-244H6l144 340L14 483h107l91-230 91 230h107L274 156z"/><glyph glyph-name="psi" unicode="ψ" horiz-adv-x="675" d="M387-184h-99V-9Q178 2 118.5 62T59 226v257h99V226q0-128 130-147v588h99V79q129 20 129 147v257h100V226q0-104-60-164T387-9v-175z"/><glyph glyph-name="omega" unicode="ω" horiz-adv-x="722" d="M687 242q0-108-47-181T511-12q-57 0-95.5 35T361 117q-17-59-55-94t-95-35q-82 0-129 73T35 242q0 80 27.5 149T139 495l73-57q-74-59-74-197 0-70 22-117.5T224 76q44 0 65.5 47.5T311 242v123h100V242q0-71 22-118.5T497 76t64 47.5T583 242q0 136-73 196l73 57q49-35 76.5-104T687 242z"/><glyph glyph-name="iotadieresis" unicode="ϊ" horiz-adv-x="230" d="M263 607q0-23-17-39.5T206 551t-39.5 16.5T150 607t16.5 39.5T206 663t40-16.5 17-39.5zm-182 0q0-23-16.5-39.5T25 551t-40 16.5-17 39.5 17 39.5T25 663t39.5-16.5T81 607zm90-619Q59-12 59 108v375h100V123q0-47 35-47 7 0 17 2l7-84q-16-6-47-6z"/><glyph glyph-name="upsilondieresis" unicode="ϋ" horiz-adv-x="486" d="M391 607q0-23-17-39.5T334 551t-39.5 16.5T278 607t16.5 39.5T334 663t40-16.5 17-39.5zm-182 0q0-23-16.5-39.5T153 551t-40 16.5T96 607t17 39.5 40 16.5 39.5-16.5T209 607zm33-619q-87 0-135 53.5T59 188v295h100V189q0-54 21-83.5T242 76q53 0 79.5 49.5T348 254q0 113-56 203l91 38q69-109 69-241 0-116-55-191T242-12z"/><glyph glyph-name="omicrontonos" unicode="ό" horiz-adv-x="488" d="M257 560h-46l19 205h90zM244-12q-98 0-153.5 73T35 242t55 180.5T244 495t154-72.5T453 242 397.5 61 244-12zm0 88q52 0 79 48t27 118-27 117.5-79 47.5-79-47.5T138 242t27-118 79-48z"/><glyph glyph-name="upsilontonos" unicode="ύ" horiz-adv-x="486" d="M257 560h-46l19 205h90zM242-12q-87 0-135 53.5T59 188v295h100V189q0-54 21-83.5T242 76q53 0 79.5 49.5T348 254q0 113-56 203l91 38q69-109 69-241 0-116-55-191T242-12z"/><glyph glyph-name="omegatonos" unicode="ώ" horiz-adv-x="722" d="M375 560h-46l19 205h90zm312-318q0-108-47-181T511-12q-57 0-95.5 35T361 117q-17-59-55-94t-95-35q-82 0-129 73T35 242q0 80 27.5 149T139 495l73-57q-74-59-74-197 0-70 22-117.5T224 76q44 0 65.5 47.5T311 242v123h100V242q0-71 22-118.5T497 76t64 47.5T583 242q0 136-73 196l73 57q49-35 76.5-104T687 242z"/><glyph glyph-name="afii10023" unicode="Ё" horiz-adv-x="472" d="M394 774q0-23-17-39.5T337 718t-39.5 16.5T281 774t16.5 39.5T337 830t40-16.5 17-39.5zm-182 0q0-23-16.5-39.5T156 718t-40 16.5T99 774t17 39.5 40 16.5 39.5-16.5T212 774zM429 0H64v667h365v-97H175V389h247v-98H175V98h254V0z"/><glyph glyph-name="afii10051" unicode="Ђ" horiz-adv-x="640" d="M399-12v99q46 0 73.5 26t27.5 77v15q0 52-31 82.5T383 318q-52 0-97-15l1-303H176v570H23v97h416v-97H286V400q52 15 111 15 102 0 158-60.5T611 205v-15q0-101-60-151.5T399-12z"/><glyph glyph-name="afii10052" unicode="Ѓ" horiz-adv-x="464" d="M389 867 255 723h-68l110 144h92zM175 0H64v667h365v-97H175V0z"/><glyph glyph-name="afii10053" unicode="Є" horiz-adv-x="547" d="M311-12q-124 0-198 96.5T39 333q0 153 74 249t198 96q141 0 211-147l-92-41q-39 90-119 90-63 0-104-52t-52-139h267v-98H154q8-92 50-148t107-56q42 0 72.5 27t47.5 71l92-41Q455-12 311-12z"/><glyph glyph-name="afii10054" unicode="Ѕ" horiz-adv-x="486" d="M237-12Q102-12 22 73l56 86q63-72 159-72 49 0 76.5 25.5T341 175t-31 63-74.5 44.5T148 323t-75 65-31 104q0 80 57 133t150 53q117 0 192-72l-54-84q-57 57-141 57-41 0-66-22t-25-59q0-32 31-56t74.5-42.5T348 358t75-67.5T454 184q0-86-57-141T237-12z"/><glyph glyph-name="afii10055" unicode="І" horiz-adv-x="239" d="M175 0H64v667h111V0z"/><glyph glyph-name="afii10056" unicode="Ї" horiz-adv-x="239" d="M175 0H64v667h111V0zm92 774q0-23-17-39.5T210 718t-39.5 16.5T154 774t16.5 39.5T210 830t40-16.5 17-39.5zm-182 0q0-23-16.5-39.5T29 718t-40 16.5-17 39.5 17 39.5T29 830t39.5-16.5T85 774z"/><glyph glyph-name="afii10057" unicode="Ј" horiz-adv-x="409" d="M150-12Q63-12 8 43l43 87q38-43 89-43 45 0 70 26t25 74v480h111V184q0-98-53-147T150-12z"/><glyph glyph-name="afii10058" unicode="Љ" horiz-adv-x="868" d="M24-12v99q32 0 50.5 14.5t33.5 65T132 316l31 351h367V415h116q94 0 145.5-59.5T843 208q0-89-51.5-148.5T646 0H419v570H264l-23-261q-9-101-27.5-167T165 43.5t-62-44T24-12zm609 330H530V98h103q44 0 70.5 30t26.5 80q0 49-26.5 79.5T633 318z"/><glyph glyph-name="afii10059" unicode="Њ" horiz-adv-x="868" d="M64 0v667h111V392h244v275h111V392h123q90 0 140-56.5T843 196q0-84-49.5-140T653 0H419v294H175V0H64zm466 98h110q41 0 65.5 27t24.5 71-24.5 71-65.5 27H530V98z"/><glyph glyph-name="afii10060" unicode="Ћ" horiz-adv-x="653" d="M494 0v192q0 126-111 126-52 0-97-15l1-303H176v570H23v97h416v-97H286V400q52 15 111 15 103 0 155.5-61.5T605 192V0H494z"/><glyph glyph-name="afii10061" unicode="Ќ" horiz-adv-x="535" d="M421 867 287 723h-68l110 144h92zM528 0H397L225 275l-50-76V0H64v667h111V346l207 321h130L294 352z"/><glyph glyph-name="afii10062" unicode="Ў" horiz-adv-x="521" d="M120-12Q49-12 4 26l34 91q32-29 72-29 28 0 46 15t34 49l11 32L-1 667h123l139-354 139 354h122L290 108q-26-62-66-91T120-12zm290 795q-55-75-149-75-92 0-149 75l47 38q37-53 102-53t102 53z"/><glyph glyph-name="afii10145" unicode="Џ" horiz-adv-x="593" d="M64 0v667h111V98h244v569h111V0H352v-128H242V0H64z"/><glyph glyph-name="afii10017" unicode="А" horiz-adv-x="536" d="M533 0H413l-36 132H158L122 0H2l199 667h133zM355 230l-87 319-87-319h174z"/><glyph glyph-name="afii10018" unicode="Б" horiz-adv-x="513" d="M64 667h380v-97H175V415h116q94 0 145.5-59.5T488 208q0-89-51.5-148.5T291 0H64v667zm214-349H175V98h103q44 0 70.5 30t26.5 80q0 49-26.5 79.5T278 318z"/><glyph glyph-name="afii10019" unicode="В" horiz-adv-x="540" d="M324 0H64v667h252q82 0 127-48t45-122q0-61-29.5-100.5T383 344q49-7 82.5-54.5T499 180q0-81-45-130.5T324 0zm-32 389q41 0 61.5 24.5T374 479t-21 66-61 25H175V389h117zm4-291q44 0 66.5 25.5T385 195q0 42-23 69t-66 27H175V98h121z"/><glyph glyph-name="afii10020" unicode="Г" horiz-adv-x="464" d="M175 0H64v667h365v-97H175V0z"/><glyph glyph-name="afii10021" unicode="Д" horiz-adv-x="604" d="M23-123V87q34 5 51 19t33 66 25 155l31 340h367V98h59v-221H478V0H133v-123H23zm219 442q-14-152-75-221h252v472H264z"/><glyph glyph-name="afii10022" unicode="Е" horiz-adv-x="472" d="M429 0H64v667h365v-97H175V389h247v-98H175V98h254V0z"/><glyph glyph-name="afii10024" unicode="Ж" horiz-adv-x="776" d="M138 0H7l234 352L23 667h130l180-279v279h110V388l180 279h130L535 352 769 0H638L466 275l-23-35V0H333v240l-23 35z"/><glyph glyph-name="afii10025" unicode="З" horiz-adv-x="509" d="M246-12q-73 0-132 30.5T24 97l68 69q25-36 65-57.5T241 87q57 0 86 28t29 77q0 50-33 74.5T232 291H128v98h100q54 0 86 23.5t32 68.5q0 48-30.5 73T234 579q-82 0-136-72l-65 64q33 49 89.5 77.5T246 677q94 0 153.5-46.5T459 498q0-58-37-100t-94-54q58-7 99-51t41-111q0-85-61-139.5T246-12z"/><glyph glyph-name="afii10026" unicode="И" horiz-adv-x="592" d="M170 0H64v667h111V233l241 434h112V0H418v446z"/><glyph glyph-name="afii10027" unicode="Й" horiz-adv-x="592" d="M170 0H64v667h111V233l241 434h112V0H418v446zm275 783q-55-75-149-75-92 0-149 75l47 38q37-53 102-53t102 53z"/><glyph glyph-name="afii10028" unicode="К" horiz-adv-x="535" d="M528 0H397L225 275l-50-76V0H64v667h111V346l207 321h130L294 352z"/><glyph glyph-name="afii10029" unicode="Л" horiz-adv-x="593" d="M24-12v99q32 0 50.5 14.5T108 167t24 150l31 350h367V0H419v570H264l-23-261q-9-101-27.5-167T165 43.5t-62-44T24-12z"/><glyph glyph-name="afii10030" unicode="М" horiz-adv-x="713" d="M650 0H540v460L378 0h-43L175 460V0H64v667h150l143-406 144 406h149V0z"/><glyph glyph-name="afii10031" unicode="Н" horiz-adv-x="593" d="M530 0H419v294H175V0H64v667h111V392h244v275h111V0z"/><glyph glyph-name="afii10032" unicode="О" horiz-adv-x="612" d="M306-12q-124 0-195.5 97T39 333t71.5 248T306 678t195.5-97T573 333 501.5 85 306-12zm0 99q72 0 113 69.5T460 333q0 108-41 177.5T306 580q-73 0-113.5-69T152 333q0-108 40.5-177T306 87z"/><glyph glyph-name="afii10033" unicode="П" horiz-adv-x="593" d="M530 0H419v570H175V0H64v667h466V0z"/><glyph glyph-name="afii10034" unicode="Р" horiz-adv-x="513" d="M175 0H64v667h227q94 0 145.5-59.5T488 460q0-89-51.5-148.5T291 252H175V0zm103 350q44 0 70.5 30t26.5 80-26.5 80-70.5 30H175V350h103z"/><glyph glyph-name="afii10035" unicode="С" horiz-adv-x="547" d="M311-12q-124 0-198 96.5T39 333q0 153 74 249t198 96q141 0 211-147l-92-41q-39 90-119 90-72 0-115.5-69T152 333q0-108 43.5-177T311 87q42 0 72.5 27t47.5 71l92-41Q455-12 311-12z"/><glyph glyph-name="afii10036" unicode="Т" horiz-adv-x="462" d="M286 0H176v570H23v97h416v-97H286V0z"/><glyph glyph-name="afii10037" unicode="У" horiz-adv-x="521" d="M120-12Q49-12 4 26l34 91q32-29 72-29 28 0 46 15t34 49l11 32L-1 667h123l139-354 139 354h122L290 108q-26-62-66-91T120-12z"/><glyph glyph-name="afii10038" unicode="Ф" horiz-adv-x="730" d="M420 0H309v67q-131 13-200.5 84.5T39 333q0 109 70 181t200 85v68h111v-68q131-13 201-84.5T691 333t-70-182-201-84V0zm157 333q0 66-39.5 110.5T420 500V167q78 12 117.5 56T577 333zm-425 0q0-66 39.5-110T309 167v333q-78-12-117.5-56.5T152 333z"/><glyph glyph-name="afii10039" unicode="Х" horiz-adv-x="535" d="M533 0H405L267 254 130 0H2l197 341L14 667h127l126-240 126 240h128L336 342z"/><glyph glyph-name="afii10040" unicode="Ц" horiz-adv-x="604" d="M478-123V0H64v667h111V98h244v569h111V98h59v-221H478z"/><glyph glyph-name="afii10041" unicode="Ч" horiz-adv-x="541" d="M159 667V476q0-126 111-126 56 0 96 15v302h111V0H366v267q-58-15-110-15-103 0-155.5 61.5T48 476v191h111z"/><glyph glyph-name="afii10042" unicode="Ш" horiz-adv-x="806" d="M632 667h110V0H64v667h110V98h174v569h110V98h174v569z"/><glyph glyph-name="afii10043" unicode="Щ" horiz-adv-x="817" d="M632 667h110V98h59v-221H691V0H64v667h110V98h174v569h110V98h174v569z"/><glyph glyph-name="afii10044" unicode="Ъ" horiz-adv-x="625" d="M403 0H176v570H23v97h263V415h117q93 0 145-59.5T600 208q0-89-51.5-148.5T403 0zm-13 318H286V98h104q44 0 70 30t26 80q0 49-26 79.5T390 318z"/><glyph glyph-name="afii10045" unicode="Ы" horiz-adv-x="722" d="M64 667h111V415h116q94 0 145.5-59.5T488 208q0-89-51.5-148.5T291 0H64v667zm214-349H175V98h103q44 0 70.5 30t26.5 80q0 49-26.5 79.5T278 318zM658 0H547v667h111V0z"/><glyph glyph-name="afii10046" unicode="Ь" horiz-adv-x="513" d="M64 667h111V415h116q94 0 145.5-59.5T488 208q0-89-51.5-148.5T291 0H64v667zm214-349H175V98h103q44 0 70.5 30t26.5 80q0 49-26.5 79.5T278 318z"/><glyph glyph-name="afii10047" unicode="Э" horiz-adv-x="547" d="M237-12Q94-12 24 144l93 41q17-44 47.5-71T237 87q65 0 106.5 56T393 291H125v98h266q-11 87-51.5 139T237 580q-79 0-120-90l-92 41q72 147 212 147 124 0 198-96t74-249q0-152-74-248.5T237-12z"/><glyph glyph-name="afii10048" unicode="Ю" horiz-adv-x="839" d="M532-12q-116 0-186.5 85T266 294h-91V0H64v667h111V392h93q14 128 83.5 207T532 678q124 0 196-97t72-248-72-248-196-97zm0 99q73 0 113.5 69T686 333q0 109-40.5 178T532 580q-72 0-112.5-69T379 333q0-107 40.5-176.5T532 87z"/><glyph glyph-name="afii10049" unicode="Я" horiz-adv-x="533" d="M163 0H40l129 271q-51 14-87.5 61.5T45 461q0 92 54 149t141 57h229V0H359v252h-82zm92 350h104v220H255q-44 0-70-30t-26-80 26-80 70-30z"/><glyph glyph-name="afii10065" unicode="а" d="M408 0h-99v49q-44-61-127-61-62 0-105 43.5T34 149t43 115.5T182 306q85 0 127-58v70q0 44-24.5 68T215 410q-66 0-120-55l-39 70q70 70 177 70 80 0 127.5-40.5T408 330V0zM218 57q60 0 91 53v73q-14 25-39 39.5T218 237q-38 0-61-25t-23-65 23-65 61-25z"/><glyph glyph-name="afii10066" unicode="б" horiz-adv-x="490" d="M243 76q52 0 79 48.5T349 244q0 68-27 115.5T243 407q-51 0-78-47.5T138 244q0-71 27-119.5T243 76zm0-88Q143-12 89 64.5T35 264q0 185 45.5 261T244 621q53 9 73.5 19t20.5 27h99q0-33-16-57.5T376.5 571 324 550t-55-12q-138-22-150-119 21 35 58 55.5t83 20.5q89 0 140.5-73T452 243q0-107-55-181T243-12z"/><glyph glyph-name="afii10067" unicode="в" horiz-adv-x="487" d="M288 0H59v483h223q71 0 108.5-34.5T428 360q0-42-22.5-70.5T345 250q40-9 66-42.5t26-76.5q0-59-37.5-95T288 0zm-21 84q68 0 68 60 0 26-17.5 44T267 206H159V84h108zm-4 205q62 0 62 55 0 25-15.5 40.5T263 400H159V289h104z"/><glyph glyph-name="afii10068" unicode="г" horiz-adv-x="377" d="M359 483v-87H159V0H59v483h300z"/><glyph glyph-name="afii10069" unicode="д" horiz-adv-x="493" d="M18-123V79q34 7 50 35t24 116l22 253h312V87h52v-210H378V0H117v-123H18zm187 519-13-174q-7-90-54-135h189v309H205z"/><glyph glyph-name="afii10070" unicode="е" horiz-adv-x="474" d="M252-12q-99 0-158 70T35 242q0 108 56.5 180.5T242 495q95 0 148-72t53-185v-29H136q3-62 36-100.5T262 70q65 0 109 52l48-60q-65-74-167-74zm94 292q-1 53-26.5 93.5T241 414q-51 0-77-41t-29-93h211z"/><glyph glyph-name="afii10072" unicode="ж" horiz-adv-x="620" d="M125 0H8l163 266L11 483h116l133-186v186h100V297l133 186h116L449 266 612 0H495L381 202l-21-28V0H260v174l-21 28z"/><glyph glyph-name="afii10073" unicode="з" horiz-adv-x="437" d="M208-12Q84-12 18 66l49 61q52-58 139-58 45 0 70.5 19t25.5 51q0 65-101 65h-90v80h88q45 0 70.5 17.5T295 351q0 29-26.5 46T199 414q-79 0-124-56l-51 60q66 77 172 77 91 0 145-35t54-96q0-43-32.5-75.5T285 247q47-5 82.5-36t35.5-80q0-63-52.5-103T208-12z"/><glyph glyph-name="afii10074" unicode="и" horiz-adv-x="485" d="M156 0H59v483h100V180l165 303h102V0h-99v313z"/><glyph glyph-name="afii10075" unicode="й" horiz-adv-x="485" d="M156 0H59v483h100V180l165 303h102V0h-99v313zm236 616q-55-75-149-75-92 0-149 75l47 38q37-53 102-53t102 53z"/><glyph glyph-name="afii10076" unicode="к" horiz-adv-x="456" d="M448 0H331L217 202l-58-78V0H59v483h100V246l170 237h116L285 266z"/><glyph glyph-name="afii10077" unicode="л" horiz-adv-x="485" d="M18-12v85q31 0 48.5 33T92 230l22 253h312V0h-99v396H205l-13-174Q182 94 139 41T18-12z"/><glyph glyph-name="afii10078" unicode="м" horiz-adv-x="593" d="M534 0h-98v315L317 0h-40L159 315V0H59v483h128l110-291 110 291h127V0z"/><glyph glyph-name="afii10079" unicode="н" horiz-adv-x="485" d="M159 0H59v483h100V293h168v190h99V0h-99v206H159V0z"/><glyph glyph-name="afii10080" unicode="о" horiz-adv-x="488" d="M244-12q-98 0-153.5 73T35 242t55 180.5T244 495t154-72.5T453 242 397.5 61 244-12zm0 88q52 0 79 48t27 118-27 117.5-79 47.5-79-47.5T138 242t27-118 79-48z"/><glyph glyph-name="afii10081" unicode="п" horiz-adv-x="485" d="M426 0h-99v396H159V0H59v483h367V0z"/><glyph glyph-name="afii10082" unicode="р" horiz-adv-x="492" d="M283-12q-81 0-124 77v-249H59v667h100v-64q21 36 54 56t70 20q82 0 129-68t47-185q0-116-47.5-185T283-12zm-30 88q50 0 76.5 46.5T356 242t-26.5 119-76.5 46q-28 0-54.5-19T159 341V143q13-28 39.5-47.5T253 76z"/><glyph glyph-name="afii10083" unicode="с" horiz-adv-x="415" d="M247-12q-95 0-153.5 71.5T35 242t58 182 154 71q95 0 147-65l-51-68q-35 45-86 45-55 0-87-47t-32-118q0-72 32-119t87-47q50 0 86 45l51-68q-52-65-147-65z"/><glyph glyph-name="afii10084" unicode="т" horiz-adv-x="354" d="M227 0H127v396H18v87h318v-87H227V0z"/><glyph glyph-name="afii10085" unicode="у" horiz-adv-x="430" d="m42-189 15 88q13-7 32-7 40 0 55 40l20 58L2 483h106l107-363 108 363h106L238-91q-19-58-53.5-81.5T96-196q-31 0-54 7z"/><glyph glyph-name="afii10086" unicode="ф" horiz-adv-x="722" d="M202 495q69 0 109-76v248h100V419q40 76 109 76 72 0 113.5-68T675 242q0-116-41.5-185T520-12q-70 0-109 77v-249H311V65q-18-37-47-57t-62-20q-72 0-113.5 68.5T47 242t41.5 185T202 495zm32-88q-41 0-63-46t-22-119q0-72 23-119t64-47q22 0 43 19.5t32 47.5v198q-11 28-32.5 47T234 407zM486 76q41 0 64 47t23 119q0 73-22 119t-63 46q-23 0-44.5-19T411 341V143q11-28 32-47.5T486 76z"/><glyph glyph-name="afii10087" unicode="х" horiz-adv-x="424" d="M418 0H309l-97 176L115 0H6l144 246L14 483h109l89-166 89 166h109L274 246z"/><glyph glyph-name="afii10088" unicode="ц" horiz-adv-x="493" d="M378-123V0H59v483h100V87h168v396h99V87h52v-210H378z"/><glyph glyph-name="afii10089" unicode="ч" horiz-adv-x="470" d="M45 483h99V341q0-41 20-58.5t66-17.5q48 0 82 16v202h99V0h-99v203q-45-26-113-26-84 0-119 32t-35 98v176z"/><glyph glyph-name="afii10090" unicode="ш" horiz-adv-x="688" d="M529 483h100V0H59v483h100V87h135v396h100V87h135v396z"/><glyph glyph-name="afii10091" unicode="щ" horiz-adv-x="701" d="M529 483h100V87h56v-210h-99V0H59v483h100V87h135v396h100V87h135v396z"/><glyph glyph-name="afii10092" unicode="ъ" horiz-adv-x="527" d="M334 0H127v396H18v87h209V306h107q79 0 120.5-44T496 152q0-65-42.5-108.5T334 0zm-12 222h-95V84h95q34 0 53 19t19 50q0 30-19 49.5T322 222z"/><glyph glyph-name="afii10093" unicode="ы" horiz-adv-x="648" d="M59 483h100V306h107q79 0 120.5-44T428 152q0-65-42.5-108.5T266 0H59v483zm195-261h-95V84h95q34 0 53 19t19 50q0 30-19 49.5T254 222zM589 0h-99v483h99V0z"/><glyph glyph-name="afii10094" unicode="ь" horiz-adv-x="459" d="M59 483h100V306h107q79 0 120.5-44T428 152q0-65-42.5-108.5T266 0H59v483zm195-261h-95V84h95q34 0 53 19t19 50q0 30-19 49.5T254 222z"/><glyph glyph-name="afii10095" unicode="э" horiz-adv-x="415" d="M169-12Q73-12 22 53l49 64q36-47 88-47 47 0 77 35.5t39 95.5H95v86h179q-8 59-38 93t-77 34q-52 0-88-47l-49 63q51 65 147 65t154-71 58-182-58.5-182.5T169-12z"/><glyph glyph-name="afii10096" unicode="ю" horiz-adv-x="688" d="M444-12q-89 0-144 61.5T236 206h-77V0H59v483h100V293h79q13 89 66.5 145.5T444 495q99 0 154-72.5T653 242 598 61 444-12zm0 88q52 0 79 47.5T550 242t-27 118-79 47-78.5-47T339 242t26.5-118.5T444 76z"/><glyph glyph-name="afii10097" unicode="я" horiz-adv-x="482" d="M155 0H41l104 190q-41 11-69 47.5T48 331q0 66 43 109t119 43h213V0H323v178h-80zm67 261h101v139H222q-34 0-53.5-19T149 331t19-50.5 54-19.5z"/><glyph glyph-name="afii10071" unicode="ё" horiz-adv-x="474" d="M390 607q0-23-17-39.5T333 551t-39.5 16.5T277 607t16.5 39.5T333 663t40-16.5 17-39.5zm-182 0q0-23-16.5-39.5T152 551t-40 16.5T95 607t17 39.5 40 16.5 39.5-16.5T208 607zm44-619q-99 0-158 70T35 242q0 108 56.5 180.5T242 495q95 0 148-72t53-185v-29H136q3-62 36-100.5T262 70q65 0 109 52l48-60q-65-74-167-74zm94 292q-1 53-26.5 93.5T241 414q-51 0-77-41t-29-93h211z"/><glyph glyph-name="afii10099" unicode="ђ" horiz-adv-x="493" d="M300 532H167V418q21 32 59.5 54.5T308 495q126 0 126-130V-41q0-155-140-155-52 0-86 31l28 75q20-22 47-22 52 0 52 71v371q0 77-70 77-30 0-56-19.5T167 340V0H67v532H14v60h53v75h100v-75h133v-60z"/><glyph glyph-name="afii10100" unicode="ѓ" horiz-adv-x="377" d="M360 700 226 556h-68l110 144h92zm-1-217v-87H159V0H59v483h300z"/><glyph glyph-name="afii10101" unicode="є" horiz-adv-x="415" d="M247-12q-95 0-153.5 71.5T35 242t58 182 154 71q95 0 147-65l-49-63q-38 47-88 47-47 0-77.5-34.5T141 287h180v-86H141q8-59 38-95t78-36q50 0 88 47l49-64q-52-65-147-65z"/><glyph glyph-name="afii10102" unicode="ѕ" horiz-adv-x="401" d="M198-12Q85-12 21 57l45 70q23-25 58.5-42.5T196 67q37 0 58.5 17t21.5 46q0 25-24.5 42T192 201t-70.5 27.5-60 48T37 357q0 59 44.5 98.5T203 495q95 0 159-62l-42-68q-42 51-115 51-33 0-53.5-16T131 360q0-20 18-34.5t44.5-22.5 57.5-21.5 57.5-29.5 44.5-47 18-73q0-63-47.5-103.5T198-12z"/><glyph glyph-name="afii10103" unicode="і" horiz-adv-x="218" d="M109 544q-26 0-44.5 18.5T46 606q0 26 18.5 44.5T109 669t44-18.5 18-44.5-18.5-44-43.5-18zM159 0H59v483h100V0z"/><glyph glyph-name="afii10104" unicode="ї" horiz-adv-x="218" d="M256 607q0-23-17-39.5T199 551t-39.5 16.5T143 607t16.5 39.5T199 663t40-16.5 17-39.5zm-182 0q0-23-16.5-39.5T18 551t-40 16.5-17 39.5 17 39.5T18 663t39.5-16.5T74 607zM159 0H59v483h100V0z"/><glyph glyph-name="afii10105" unicode="ј" horiz-adv-x="218" d="M109 544q-26 0-44.5 18.5T46 606q0 26 18.5 44.5T109 669t44-18.5 18-44.5-18.5-44-43.5-18zM19-196q-53 0-87 31l28 75q20-22 47-22 52 0 52 71v524h100V-41q0-155-140-155z"/><glyph glyph-name="afii10106" unicode="љ" horiz-adv-x="727" d="M18-12v85q31 0 48.5 33T92 230l22 253h312V306h107q79 0 121-44t42-110q0-65-42.5-108.5T533 0H327v396H205l-13-174Q182 94 139 41T18-12zm503 234h-95V84h95q35 0 54 19t19 50q0 30-19 49.5T521 222z"/><glyph glyph-name="afii10107" unicode="њ" horiz-adv-x="727" d="M159 0H59v483h100V293h168v190h99V293h111q77 0 118-41.5T696 146q0-63-41.5-104.5T537 0H327v206H159V0zm366 210h-99V84h99q33 0 51 17t18 45q0 29-18 46.5T525 210z"/><glyph glyph-name="afii10108" unicode="ћ" horiz-adv-x="493" d="M303 532H167V418q21 32 59.5 54.5T308 495q126 0 126-130V0h-99v331q0 76-70 76-30 0-56-19.5T167 340V0H67v532H14v60h53v75h100v-75h136v-60z"/><glyph glyph-name="afii10109" unicode="ќ" horiz-adv-x="456" d="M381 700 247 556h-68l110 144h92zM448 0H331L217 202l-58-78V0H59v483h100V246l170 237h116L285 266z"/><glyph glyph-name="afii10110" unicode="ў" horiz-adv-x="430" d="m42-189 15 88q13-7 32-7 40 0 55 40l20 58L2 483h106l107-363 108 363h106L238-91q-19-58-53.5-81.5T96-196q-31 0-54 7zm322 805q-55-75-149-75-92 0-149 75l47 38q37-53 102-53t102 53z"/><glyph glyph-name="afii10193" unicode="џ" horiz-adv-x="485" d="M193-128V0H59v483h100V87h168v396h99V0H293v-128H193z"/><glyph glyph-name="afii10050" unicode="Ґ" horiz-adv-x="464" d="M175 570V0H64v667h255v123h110V570H175z"/><glyph glyph-name="afii10098" unicode="ґ" horiz-adv-x="377" d="M159 396V0H59v483h200v128h100V396H159z"/><glyph glyph-name="uni1E02" unicode="Ḃ" horiz-adv-x="540" d="M324 0H64v667h252q82 0 127-48t45-122q0-61-29.5-100.5T383 344q49-7 82.5-54.5T499 180q0-81-45-130.5T324 0zm-32 389q41 0 61.5 24.5T374 479t-21 66-61 25H175V389h117zm4-291q44 0 66.5 25.5T385 195q0 42-23 69t-66 27H175V98h121zm-26 619q-23 0-40 16.5T213 773t17 40 40 17 39.5-17 16.5-40-16.5-39.5T270 717z"/><glyph glyph-name="uni1E03" unicode="ḃ" horiz-adv-x="494" d="M159 142q13-28 39.5-47T253 76q50 0 76.5 46T356 241q0 74-26.5 120T253 407q-28 0-54.5-19.5T159 340V142zm0-142H59v667h100V418q43 77 124 77t128.5-69.5T459 241q0-116-47.5-184.5T283-12q-78 0-124 76V0zm95 717q-23 0-40 16.5T197 773t17 40 40 17 39.5-17 16.5-40-16.5-39.5T254 717z"/><glyph glyph-name="uni1E0A" unicode="Ḋ" horiz-adv-x="583" d="M263 0H64v667h199q131 0 206-92.5T544 333 469.5 92 263 0zm0 98q80 0 123.5 64.5T430 333q0 108-43 172.5T263 570h-88V98h88zm29 619q-23 0-40 16.5T235 773t17 40 40 17 39.5-17 16.5-40-16.5-39.5T292 717z"/><glyph glyph-name="uni1E0B" unicode="ḋ" horiz-adv-x="494" d="M435 0H335v64q-22-36-55-56t-69-20q-81 0-128.5 68.5T35 241t47.5 185T211 495t124-77v249h100V0zM241 76q28 0 54.5 19t39.5 47v199q-13 28-39.5 47T241 407q-50 0-76.5-46T138 241q0-72 26.5-118.5T241 76zm1 641q-23 0-40 16.5T185 773t17 40 40 17 39.5-17 16.5-40-16.5-39.5T242 717z"/><glyph glyph-name="uni1E1E" unicode="Ḟ" horiz-adv-x="464" d="M249 717q-23 0-40 16.5T192 773t17 40 40 17 39.5-17 16.5-40-16.5-39.5T249 717zM175 0H64v667h365v-97H175V389h247v-98H175V0z"/><glyph glyph-name="uni1E1F" unicode="ḟ" horiz-adv-x="274" d="M215 717q-23 0-40 16.5T158 773t17 40 40 17 39.5-17 16.5-40-16.5-39.5T215 717zM179 0H79v396H16v87h63v45q0 70 36.5 109.5T215 677q62 0 97-34l-34-70q-20 20-45 20-54 0-54-65v-45h80v-87h-80V0z"/><glyph glyph-name="uni1E22" unicode="Ḣ" horiz-adv-x="593" d="M530 0H419v294H175V0H64v667h111V392h244v275h111V0zM297 717q-23 0-40 16.5T240 773t17 40 40 17 39.5-17 16.5-40-16.5-39.5T297 717z"/><glyph glyph-name="uni1E23" unicode="ḣ" horiz-adv-x="485" d="M426 0h-99v331q0 76-70 76-30 0-56-19.5T159 340V0H59v667h100V418q21 32 59.5 54.5T300 495q126 0 126-130V0zM243 717q-23 0-40 16.5T186 773t17 40 40 17 39.5-17 16.5-40-16.5-39.5T243 717z"/><glyph glyph-name="uni1E56" unicode="Ṗ" horiz-adv-x="513" d="M175 0H64v667h227q94 0 145.5-59.5T488 460q0-89-51.5-148.5T291 252H175V0zm103 350q44 0 70.5 30t26.5 80-26.5 80-70.5 30H175V350h103zm-21 367q-23 0-40 16.5T200 773t17 40 40 17 39.5-17 16.5-40-16.5-39.5T257 717z"/><glyph glyph-name="uni1E57" unicode="ṗ" horiz-adv-x="492" d="M283-12q-81 0-124 77v-249H59v667h100v-64q21 36 54 56t70 20q82 0 129-68t47-185q0-116-47.5-185T283-12zm-30 88q50 0 76.5 46.5T356 242t-26.5 119-76.5 46q-28 0-54.5-19T159 341V143q13-28 39.5-47.5T253 76zm1 474q-23 0-40 16.5T197 606t17 40 40 17 39.5-17 16.5-40-16.5-39.5T254 550z"/><glyph glyph-name="uni1E60" unicode="Ṡ" horiz-adv-x="486" d="M237-12Q102-12 22 73l56 86q63-72 159-72 49 0 76.5 25.5T341 175t-31 63-74.5 44.5T148 323t-75 65-31 104q0 80 57 133t150 53q117 0 192-72l-54-84q-57 57-141 57-41 0-66-22t-25-59q0-32 31-56t74.5-42.5T348 358t75-67.5T454 184q0-86-57-141T237-12zm6 729q-23 0-40 16.5T186 773t17 40 40 17 39.5-17 16.5-40-16.5-39.5T243 717z"/><glyph glyph-name="uni1E61" unicode="ṡ" horiz-adv-x="401" d="M198-12Q85-12 21 57l45 70q23-25 58.5-42.5T196 67q37 0 58.5 17t21.5 46q0 25-24.5 42T192 201t-70.5 27.5-60 48T37 357q0 59 44.5 98.5T203 495q95 0 159-62l-42-68q-42 51-115 51-33 0-53.5-16T131 360q0-20 18-34.5t44.5-22.5 57.5-21.5 57.5-29.5 44.5-47 18-73q0-63-47.5-103.5T198-12zm3 562q-23 0-40 16.5T144 606t17 40 40 17 39.5-17 16.5-40-16.5-39.5T201 550z"/><glyph glyph-name="uni1E6A" unicode="Ṫ" horiz-adv-x="462" d="M286 0H176v570H23v97h416v-97H286V0zm-55 717q-23 0-40 16.5T174 773t17 40 40 17 39.5-17 16.5-40-16.5-39.5T231 717z"/><glyph glyph-name="uni1E6B" unicode="ṫ" horiz-adv-x="283" d="M189-12Q77-12 77 108v288H14v87h63v132h100V483h80v-87h-80V129q0-53 37-53 26 0 38 16l24-75q-29-29-87-29zm-58 729q-23 0-40 16.5T74 773t17 40 40 17 39.5-17 16.5-40-16.5-39.5T131 717z"/><glyph glyph-name="Wgrave" unicode="Ẁ" horiz-adv-x="745" d="M584 0H468l-96 479L277 0H161L10 667h119l96-498 103 498h89l104-498 95 498h119zM423 723h-68L221 867h93z"/><glyph glyph-name="wgrave" unicode="ẁ" horiz-adv-x="667" d="M531 0H427l-93 355L240 0H136L7 483h103l84-352 92 352h92l94-352 85 352h103zM385 556h-68L183 700h93z"/><glyph glyph-name="Wacute" unicode="Ẃ" horiz-adv-x="745" d="M523 867 389 723h-68l110 144h92zM584 0H468l-96 479L277 0H161L10 667h119l96-498 103 498h89l104-498 95 498h119z"/><glyph glyph-name="wacute" unicode="ẃ" horiz-adv-x="667" d="M485 700 351 556h-68l110 144h92zM531 0H427l-93 355L240 0H136L7 483h103l84-352 92 352h92l94-352 85 352h103z"/><glyph glyph-name="Wdieresis" unicode="Ẅ" horiz-adv-x="745" d="M520 774q0-23-17-39.5T463 718t-39.5 16.5T407 774t16.5 39.5T463 830t40-16.5 17-39.5zm-182 0q0-23-16.5-39.5T282 718t-40 16.5-17 39.5 17 39.5 40 16.5 39.5-16.5T338 774zM584 0H468l-96 479L277 0H161L10 667h119l96-498 103 498h89l104-498 95 498h119z"/><glyph glyph-name="wdieresis" unicode="ẅ" horiz-adv-x="667" d="M481 607q0-23-17-39.5T424 551t-39.5 16.5T368 607t16.5 39.5T424 663t40-16.5 17-39.5zm-182 0q0-23-16.5-39.5T243 551t-40 16.5-17 39.5 17 39.5 40 16.5 39.5-16.5T299 607zM531 0H427l-93 355L240 0H136L7 483h103l84-352 92 352h92l94-352 85 352h103z"/><glyph glyph-name="uni1EA0" unicode="Ạ" horiz-adv-x="536" d="M533 0H413l-36 132H158L122 0H2l199 667h133zM355 230l-87 319-87-319h174zm-86-419q-23 0-40 16.5T212-133t17 40 40 17 39.5-17 16.5-40-16.5-39.5T269-189z"/><glyph glyph-name="uni1EA1" unicode="ạ" d="M408 0h-99v49q-44-61-127-61-62 0-105 43.5T34 149t43 115.5T182 306q85 0 127-58v70q0 44-24.5 68T215 410q-66 0-120-55l-39 70q70 70 177 70 80 0 127.5-40.5T408 330V0zM218 57q60 0 91 53v73q-14 25-39 39.5T218 237q-38 0-61-25t-23-65 23-65 61-25zm17-246q-23 0-40 16.5T178-133t17 40 40 17 39.5-17 16.5-40-16.5-39.5T235-189z"/><glyph glyph-name="uni1EA2" unicode="Ả" horiz-adv-x="536" d="M533 0H413l-36 132H158L122 0H2l199 667h133zM355 230l-87 319-87-319h174zM238 757l-39 10q15 53 70 53 30 0 48.5-16.5T336 753q0-28-18-56h-44q21 25 21 54 0 32-27 32-22 0-30-26z"/><glyph glyph-name="uni1EA3" unicode="ả" d="M408 0h-99v49q-44-61-127-61-62 0-105 43.5T34 149t43 115.5T182 306q85 0 127-58v70q0 44-24.5 68T215 410q-66 0-120-55l-39 70q70 70 177 70 80 0 127.5-40.5T408 330V0zM218 57q60 0 91 53v73q-14 25-39 39.5T218 237q-38 0-61-25t-23-65 23-65 61-25zm-14 530-39 10q15 53 70 53 30 0 48.5-16.5T302 583q0-28-18-56h-44q21 25 21 54 0 32-27 32-22 0-30-26z"/><glyph glyph-name="uni1EA4" unicode="Ấ" horiz-adv-x="536" d="M394 682h-60l-67 73-64-73h-60l79 108h91zM533 0H413l-36 132H158L122 0H2l199 667h133zM355 230l-87 319-87-319h174zm213 614L434 736h-68l110 108h92z"/><glyph glyph-name="uni1EA5" unicode="ấ" d="M408 0h-99v49q-44-61-127-61-62 0-105 43.5T34 149t43 115.5T182 306q85 0 127-58v70q0 44-24.5 68T215 410q-66 0-120-55l-39 70q70 70 177 70 80 0 127.5-40.5T408 330V0zM218 57q60 0 91 53v73q-14 25-39 39.5T218 237q-38 0-61-25t-23-65 23-65 61-25zm142 499h-60l-67 97-64-97h-60l79 144h91zm171 215L397 627h-68l110 144h92z"/><glyph glyph-name="uni1EA6" unicode="Ầ" horiz-adv-x="536" d="M394 682h-60l-67 73-64-73h-60l79 108h91zM533 0H413l-36 132H158L122 0H2l199 667h133zM355 230l-87 319-87-319h174zM171 736h-68L-31 844h93z"/><glyph glyph-name="uni1EA7" unicode="ầ" d="M408 0h-99v49q-44-61-127-61-62 0-105 43.5T34 149t43 115.5T182 306q85 0 127-58v70q0 44-24.5 68T215 410q-66 0-120-55l-39 70q70 70 177 70 80 0 127.5-40.5T408 330V0zM218 57q60 0 91 53v73q-14 25-39 39.5T218 237q-38 0-61-25t-23-65 23-65 61-25zm142 499h-60l-67 97-64-97h-60l79 144h91zm-222 71H70L-64 771h93z"/><glyph glyph-name="uni1EA8" unicode="Ẩ" horiz-adv-x="536" d="M394 682h-60l-67 73-64-73h-60l79 108h91zM533 0H413l-36 132H158L122 0H2l199 667h133zM355 230l-87 319-87-319h174zm18 559-39 8q15 39 70 39 30 0 48.5-12.5T471 786q0-21-18-42h-44q21 20 21 41 0 24-27 24-22 0-30-20z"/><glyph glyph-name="uni1EA9" unicode="ẩ" d="M408 0h-99v49q-44-61-127-61-62 0-105 43.5T34 149t43 115.5T182 306q85 0 127-58v70q0 44-24.5 68T215 410q-66 0-120-55l-39 70q70 70 177 70 80 0 127.5-40.5T408 330V0zM218 57q60 0 91 53v73q-14 25-39 39.5T218 237q-38 0-61-25t-23-65 23-65 61-25zm142 499h-60l-67 97-64-97h-60l79 144h91zm-67 171-39 10q15 53 70 53 30 0 48.5-16.5T391 723q0-28-18-56h-44q21 25 21 54 0 32-27 32-22 0-30-26z"/><glyph glyph-name="uni1EAA" unicode="Ẫ" horiz-adv-x="536" d="M394 678h-60l-67 48-64-48h-60l79 72h91zM533 0H413l-36 132H158L122 0H2l199 667h133zM355 230l-87 319-87-319h174zm-38 527q-35 0-62 20t-41 20q-15 0-24.5-9.5T180 760h-54q0 30 24 48.5t68 18.5q34 0 61.5-20t41.5-20q33 0 33 37h54q0-31-23.5-49T317 757z"/><glyph glyph-name="uni1EAB" unicode="ẫ" d="M408 0h-99v49q-44-61-127-61-62 0-105 43.5T34 149t43 115.5T182 306q85 0 127-58v70q0 44-24.5 68T215 410q-66 0-120-55l-39 70q70 70 177 70 80 0 127.5-40.5T408 330V0zM218 57q60 0 91 53v73q-14 25-39 39.5T218 237q-38 0-61-25t-23-65 23-65 61-25zm142 466h-60l-67 97-64-97h-60l79 144h91zm-77 159q-21 0-37.5 12.5t-24.5 28-19 28-22 12.5q-15 0-24.5-19t-9.5-56H92q0 61 24 97.5t68 36.5q21 0 37-12.5t24.5-27.5 19.5-27.5 22-12.5q33 0 33 74h54q0-61-23.5-97.5T283 682z"/><glyph glyph-name="uni1EAC" unicode="Ậ" horiz-adv-x="536" d="M533 0H413l-36 132H158L122 0H2l199 667h133zM355 230l-87 319-87-319h174zm39 493h-60l-67 97-64-97h-60l79 144h91zM269-189q-23 0-40 16.5T212-133t17 40 40 17 39.5-17 16.5-40-16.5-39.5T269-189z"/><glyph glyph-name="uni1EAD" unicode="ậ" d="M408 0h-99v49q-44-61-127-61-62 0-105 43.5T34 149t43 115.5T182 306q85 0 127-58v70q0 44-24.5 68T215 410q-66 0-120-55l-39 70q70 70 177 70 80 0 127.5-40.5T408 330V0zM218 57q60 0 91 53v73q-14 25-39 39.5T218 237q-38 0-61-25t-23-65 23-65 61-25zm141 499h-60l-67 97-64-97h-60l79 144h91zM235-189q-23 0-40 16.5T178-133t17 40 40 17 39.5-17 16.5-40-16.5-39.5T235-189z"/><glyph glyph-name="uni1EAE" unicode="Ắ" horiz-adv-x="536" d="M533 0H413l-36 132H158L122 0H2l199 667h133zM355 230l-87 319-87-319h174zm63 605-134-91h-68l110 91h92zm-1-93q-55-58-149-58-93 0-149 58l47 29q36-41 102-41t102 41z"/><glyph glyph-name="uni1EAF" unicode="ắ" d="M408 0h-99v49q-44-61-127-61-62 0-105 43.5T34 149t43 115.5T182 306q85 0 127-58v70q0 44-24.5 68T215 410q-66 0-120-55l-39 70q70 70 177 70 80 0 127.5-40.5T408 330V0zM218 57q60 0 91 53v73q-14 25-39 39.5T218 237q-38 0-61-25t-23-65 23-65 61-25zm167 715L251 628h-68l110 144h92zm-2-177q-55-75-149-75-92 0-149 75l47 38q37-53 102-53t102 53z"/><glyph glyph-name="uni1EB0" unicode="Ằ" horiz-adv-x="536" d="M533 0H413l-36 132H158L122 0H2l199 667h133zM355 230l-87 319-87-319h174zm-34 514h-68l-134 91h93zm96-4q-55-58-149-58-93 0-149 58l47 29q36-41 102-41t102 41z"/><glyph glyph-name="uni1EB1" unicode="ằ" d="M408 0h-99v49q-44-61-127-61-62 0-105 43.5T34 149t43 115.5T182 306q85 0 127-58v70q0 44-24.5 68T215 410q-66 0-120-55l-39 70q70 70 177 70 80 0 127.5-40.5T408 330V0zM218 57q60 0 91 53v73q-14 25-39 39.5T218 237q-38 0-61-25t-23-65 23-65 61-25zm65 571h-68L81 772h93zm100-32q-55-75-149-75-92 0-149 75l47 38q37-53 102-53t102 53z"/><glyph glyph-name="uni1EB2" unicode="Ẳ" horiz-adv-x="536" d="M533 0H413l-36 132H158L122 0H2l199 667h133zM355 230l-87 319-87-319h174zM238 784l-39 7q15 33 70 33 30 0 48.5-10.5T336 782q0-18-18-36h-44q21 17 21 34 0 21-27 21-22 0-30-17zm179-44q-55-58-149-58-93 0-149 58l47 29q36-41 102-41t102 41z"/><glyph glyph-name="uni1EB3" unicode="ẳ" d="M408 0h-99v49q-44-61-127-61-62 0-105 43.5T34 149t43 115.5T182 306q85 0 127-58v70q0 44-24.5 68T215 410q-66 0-120-55l-39 70q70 70 177 70 80 0 127.5-40.5T408 330V0zM218 57q60 0 91 53v73q-14 25-39 39.5T218 237q-38 0-61-25t-23-65 23-65 61-25zm-13 630-39 10q15 53 70 53 30 0 48.5-16.5T303 683q0-28-18-56h-44q21 25 21 54 0 32-27 32-22 0-30-26zm178-91q-55-75-149-75-92 0-149 75l47 38q37-53 102-53t102 53z"/><glyph glyph-name="uni1EB4" unicode="Ẵ" horiz-adv-x="536" d="M533 0H413l-36 132H158L122 0H2l199 667h133zM355 230l-87 319-87-319h174zm62 497q-56-46-149-46-92 0-149 46l47 23q37-32 102-32t102 32zm-100 30q-35 0-62 20t-41 20q-15 0-24.5-9.5T180 760h-54q0 30 24 48.5t68 18.5q34 0 61.5-20t41.5-20q33 0 33 37h54q0-31-23.5-49T317 757z"/><glyph glyph-name="uni1EB5" unicode="ẵ" d="M408 0h-99v49q-44-61-127-61-62 0-105 43.5T34 149t43 115.5T182 306q85 0 127-58v70q0 44-24.5 68T215 410q-66 0-120-55l-39 70q70 70 177 70 80 0 127.5-40.5T408 330V0zM218 57q60 0 91 53v73q-14 25-39 39.5T218 237q-38 0-61-25t-23-65 23-65 61-25zm165 539q-55-75-149-75-92 0-149 75l47 38q37-53 102-53t102 53zm-100 57q-21 0-37.5 12.5t-24.5 28-19 28-22 12.5q-15 0-24.5-19t-9.5-56H92q0 61 24 97.5t68 36.5q21 0 37-12.5t24.5-27.5 19.5-27.5 22-12.5q33 0 33 74h54q0-61-23.5-97.5T283 653z"/><glyph glyph-name="uni1EB6" unicode="Ặ" horiz-adv-x="536" d="M533 0H413l-36 132H158L122 0H2l199 667h133zM355 230l-87 319-87-319h174zm-86-419q-23 0-40 16.5T212-133t17 40 40 17 39.5-17 16.5-40-16.5-39.5T269-189zm148 972q-55-75-149-75-92 0-149 75l47 38q37-53 102-53t102 53z"/><glyph glyph-name="uni1EB7" unicode="ặ" d="M408 0h-99v49q-44-61-127-61-62 0-105 43.5T34 149t43 115.5T182 306q85 0 127-58v70q0 44-24.5 68T215 410q-66 0-120-55l-39 70q70 70 177 70 80 0 127.5-40.5T408 330V0zM218 57q60 0 91 53v73q-14 25-39 39.5T218 237q-38 0-61-25t-23-65 23-65 61-25zm17-246q-23 0-40 16.5T178-133t17 40 40 17 39.5-17 16.5-40-16.5-39.5T235-189zm147 805q-55-75-149-75-92 0-149 75l47 38q37-53 102-53t102 53z"/><glyph glyph-name="uni1EB8" unicode="Ẹ" horiz-adv-x="472" d="M429 0H64v667h365v-97H175V389h247v-98H175V98h254V0zM251-189q-23 0-40 16.5T194-133t17 40 40 17 39.5-17 16.5-40-16.5-39.5T251-189z"/><glyph glyph-name="uni1EB9" unicode="ẹ" horiz-adv-x="474" d="M252-12q-99 0-158 70T35 242q0 108 56.5 180.5T242 495q95 0 148-72t53-185v-29H136q3-62 36-100.5T262 70q65 0 109 52l48-60q-65-74-167-74zm94 292q-1 53-26.5 93.5T241 414q-51 0-77-41t-29-93h211zM244-189q-23 0-40 16.5T187-133t17 40 40 17 39.5-17 16.5-40-16.5-39.5T244-189z"/><glyph glyph-name="uni1EBA" unicode="Ẻ" horiz-adv-x="472" d="M429 0H64v667h365v-97H175V389h247v-98H175V98h254V0zM212 757l-39 10q15 53 70 53 30 0 48.5-16.5T310 753q0-28-18-56h-44q21 25 21 54 0 32-27 32-22 0-30-26z"/><glyph glyph-name="uni1EBB" unicode="ẻ" horiz-adv-x="474" d="M252-12q-99 0-158 70T35 242q0 108 56.5 180.5T242 495q95 0 148-72t53-185v-29H136q3-62 36-100.5T262 70q65 0 109 52l48-60q-65-74-167-74zm94 292q-1 53-26.5 93.5T241 414q-51 0-77-41t-29-93h211zM213 587l-39 10q15 53 70 53 30 0 48.5-16.5T311 583q0-28-18-56h-44q21 25 21 54 0 32-27 32-22 0-30-26z"/><glyph glyph-name="uni1EBC" unicode="Ẽ" horiz-adv-x="472" d="M429 0H64v667h365v-97H175V389h247v-98H175V98h254V0zM296 721q-21 0-37.5 12.5t-24.5 28-19 28-22 12.5q-15 0-24.5-19t-9.5-56h-54q0 61 24 97.5t68 36.5q21 0 37-12.5t24.5-27.5 19.5-27.5 22-12.5q33 0 33 74h54q0-61-23.5-97.5T296 721z"/><glyph glyph-name="uni1EBD" unicode="ẽ" horiz-adv-x="474" d="M252-12q-99 0-158 70T35 242q0 108 56.5 180.5T242 495q95 0 148-72t53-185v-29H136q3-62 36-100.5T262 70q65 0 109 52l48-60q-65-74-167-74zm94 292q-1 53-26.5 93.5T241 414q-51 0-77-41t-29-93h211zm-53 274q-21 0-37.5 12.5t-24.5 28-19 28-22 12.5q-15 0-24.5-19t-9.5-56h-54q0 61 24 97.5t68 36.5q21 0 37-12.5t24.5-27.5 19.5-27.5 22-12.5q33 0 33 74h54q0-61-23.5-97.5T293 554z"/><glyph glyph-name="uni1EBE" unicode="Ế" horiz-adv-x="472" d="M375 682h-60l-67 73-64-73h-60l79 108h91zm174 162L415 736h-68l110 108h92zM429 0H64v667h365v-97H175V389h247v-98H175V98h254V0z"/><glyph glyph-name="uni1EBF" unicode="ế" horiz-adv-x="474" d="M369 556h-60l-67 97-64-97h-60l79 144h91zm169 215L404 627h-68l110 144h92zM252-12q-99 0-158 70T35 242q0 108 56.5 180.5T242 495q95 0 148-72t53-185v-29H136q3-62 36-100.5T262 70q65 0 109 52l48-60q-65-74-167-74zm94 292q-1 53-26.5 93.5T241 414q-51 0-77-41t-29-93h211z"/><glyph glyph-name="uni1EC0" unicode="Ề" horiz-adv-x="472" d="M375 682h-60l-67 73-64-73h-60l79 108h91zM429 0H64v667h365v-97H175V389h247v-98H175V98h254V0zM151 736H83L-51 844h93z"/><glyph glyph-name="uni1EC1" unicode="ề" horiz-adv-x="474" d="M369 556h-60l-67 97-64-97h-60l79 144h91zM252-12q-99 0-158 70T35 242q0 108 56.5 180.5T242 495q95 0 148-72t53-185v-29H136q3-62 36-100.5T262 70q65 0 109 52l48-60q-65-74-167-74zm94 292q-1 53-26.5 93.5T241 414q-51 0-77-41t-29-93h211zM146 627H78L-56 771h93z"/><glyph glyph-name="uni1EC2" unicode="Ể" horiz-adv-x="472" d="M375 682h-60l-67 73-64-73h-60l79 108h91zM429 0H64v667h365v-97H175V389h247v-98H175V98h254V0zm-76 789-39 8q15 39 70 39 30 0 48.5-12.5T451 786q0-21-18-42h-44q21 20 21 41 0 24-27 24-22 0-30-20z"/><glyph glyph-name="uni1EC3" unicode="ể" horiz-adv-x="474" d="M368 556h-60l-67 97-64-97h-60l79 144h91zM252-12q-99 0-158 70T35 242q0 108 56.5 180.5T242 495q95 0 148-72t53-185v-29H136q3-62 36-100.5T262 70q65 0 109 52l48-60q-65-74-167-74zm94 292q-1 53-26.5 93.5T241 414q-51 0-77-41t-29-93h211zm-45 447-39 10q15 53 70 53 30 0 48.5-16.5T399 723q0-28-18-56h-44q21 25 21 54 0 32-27 32-22 0-30-26z"/><glyph glyph-name="uni1EC4" unicode="Ễ" horiz-adv-x="472" d="M374 678h-60l-67 48-64-48h-60l79 72h91zM429 0H64v667h365v-97H175V389h247v-98H175V98h254V0zM297 757q-35 0-62 20t-41 20q-15 0-24.5-9.5T160 760h-54q0 30 24 48.5t68 18.5q34 0 61.5-20t41.5-20q33 0 33 37h54q0-31-23.5-49T297 757z"/><glyph glyph-name="uni1EC5" unicode="ễ" horiz-adv-x="474" d="M368 523h-60l-67 97-64-97h-60l79 144h91zM252-12q-99 0-158 70T35 242q0 108 56.5 180.5T242 495q95 0 148-72t53-185v-29H136q3-62 36-100.5T262 70q65 0 109 52l48-60q-65-74-167-74zm94 292q-1 53-26.5 93.5T241 414q-51 0-77-41t-29-93h211zm-53 402q-21 0-37.5 12.5t-24.5 28-19 28-22 12.5q-15 0-24.5-19t-9.5-56h-54q0 61 24 97.5t68 36.5q21 0 37-12.5t24.5-27.5 19.5-27.5 22-12.5q33 0 33 74h54q0-61-23.5-97.5T293 682z"/><glyph glyph-name="uni1EC6" unicode="Ệ" horiz-adv-x="472" d="M373 723h-60l-67 97-64-97h-60l79 144h91zM429 0H64v667h365v-97H175V389h247v-98H175V98h254V0zM251-189q-23 0-40 16.5T194-133t17 40 40 17 39.5-17 16.5-40-16.5-39.5T251-189z"/><glyph glyph-name="uni1EC7" unicode="ệ" horiz-adv-x="474" d="M369 556h-60l-67 97-64-97h-60l79 144h91zM252-12q-99 0-158 70T35 242q0 108 56.5 180.5T242 495q95 0 148-72t53-185v-29H136q3-62 36-100.5T262 70q65 0 109 52l48-60q-65-74-167-74zm94 292q-1 53-26.5 93.5T241 414q-51 0-77-41t-29-93h211zM244-189q-23 0-40 16.5T187-133t17 40 40 17 39.5-17 16.5-40-16.5-39.5T244-189z"/><glyph glyph-name="uni1EC8" unicode="Ỉ" horiz-adv-x="239" d="M175 0H64v667h111V0zM90 757l-39 10q15 53 70 53 30 0 48.5-16.5T188 753q0-28-18-56h-44q21 25 21 54 0 32-27 32-22 0-30-26z"/><glyph glyph-name="uni1EC9" unicode="ỉ" horiz-adv-x="218" d="M159 0H59v483h100V0zM79 587l-39 10q15 53 70 53 30 0 48.5-16.5T177 583q0-28-18-56h-44q21 25 21 54 0 32-27 32-22 0-30-26z"/><glyph glyph-name="uni1ECA" unicode="Ị" horiz-adv-x="239" d="M175 0H64v667h111V0zm-54-189q-23 0-40 16.5T64-133t17 40 40 17 39.5-17 16.5-40-16.5-39.5T121-189z"/><glyph glyph-name="uni1ECB" unicode="ị" horiz-adv-x="218" d="M109 544q-26 0-44.5 18.5T46 606q0 26 18.5 44.5T109 669t44-18.5 18-44.5-18.5-44-43.5-18zM159 0H59v483h100V0zm-49-189q-23 0-40 16.5T53-133t17 40 40 17 39.5-17 16.5-40-16.5-39.5T110-189z"/><glyph glyph-name="uni1ECC" unicode="Ọ" horiz-adv-x="612" d="M306-12q-124 0-195.5 97T39 333t71.5 248T306 678t195.5-97T573 333 501.5 85 306-12zm0 99q72 0 113 69.5T460 333q0 108-41 177.5T306 580q-73 0-113.5-69T152 333q0-108 40.5-177T306 87zm3-276q-23 0-40 16.5T252-133t17 40 40 17 39.5-17 16.5-40-16.5-39.5T309-189z"/><glyph glyph-name="uni1ECD" unicode="ọ" horiz-adv-x="488" d="M244-12q-98 0-153.5 73T35 242t55 180.5T244 495t154-72.5T453 242 397.5 61 244-12zm0 88q52 0 79 48t27 118-27 117.5-79 47.5-79-47.5T138 242t27-118 79-48zm1-265q-23 0-40 16.5T188-133t17 40 40 17 39.5-17 16.5-40-16.5-39.5T245-189z"/><glyph glyph-name="uni1ECE" unicode="Ỏ" horiz-adv-x="612" d="M306-12q-124 0-195.5 97T39 333t71.5 248T306 678t195.5-97T573 333 501.5 85 306-12zm0 99q72 0 113 69.5T460 333q0 108-41 177.5T306 580q-73 0-113.5-69T152 333q0-108 40.5-177T306 87zm-30 670-39 10q15 53 70 53 30 0 48.5-16.5T374 753q0-28-18-56h-44q21 25 21 54 0 32-27 32-22 0-30-26z"/><glyph glyph-name="uni1ECF" unicode="ỏ" horiz-adv-x="488" d="M244-12q-98 0-153.5 73T35 242t55 180.5T244 495t154-72.5T453 242 397.5 61 244-12zm0 88q52 0 79 48t27 118-27 117.5-79 47.5-79-47.5T138 242t27-118 79-48zm-29 511-39 10q15 53 70 53 30 0 48.5-16.5T313 583q0-28-18-56h-44q21 25 21 54 0 32-27 32-22 0-30-26z"/><glyph glyph-name="uni1ED0" unicode="Ố" horiz-adv-x="612" d="M429 682h-60l-67 73-64-73h-60l79 108h91zm174 162L469 736h-68l110 108h92zM306-12q-124 0-195.5 97T39 333t71.5 248T306 678t195.5-97T573 333 501.5 85 306-12zm0 99q72 0 113 69.5T460 333q0 108-41 177.5T306 580q-73 0-113.5-69T152 333q0-108 40.5-177T306 87z"/><glyph glyph-name="uni1ED1" unicode="ố" horiz-adv-x="488" d="M370 556h-60l-67 97-64-97h-60l79 144h91zm169 215L405 627h-68l110 144h92zM244-12q-98 0-153.5 73T35 242t55 180.5T244 495t154-72.5T453 242 397.5 61 244-12zm0 88q52 0 79 48t27 118-27 117.5-79 47.5-79-47.5T138 242t27-118 79-48z"/><glyph glyph-name="uni1ED2" unicode="Ồ" horiz-adv-x="612" d="M427 682h-60l-67 73-64-73h-60l79 108h91zM306-12q-124 0-195.5 97T39 333t71.5 248T306 678t195.5-97T573 333 501.5 85 306-12zm0 99q72 0 113 69.5T460 333q0 108-41 177.5T306 580q-73 0-113.5-69T152 333q0-108 40.5-177T306 87zM204 736h-68L2 844h93z"/><glyph glyph-name="uni1ED3" unicode="ồ" horiz-adv-x="488" d="M370 556h-60l-67 97-64-97h-60l79 144h91zM244-12q-98 0-153.5 73T35 242t55 180.5T244 495t154-72.5T453 242 397.5 61 244-12zm0 88q52 0 79 48t27 118-27 117.5-79 47.5-79-47.5T138 242t27-118 79-48zm-97 551H79L-55 771h93z"/><glyph glyph-name="uni1ED4" unicode="Ổ" horiz-adv-x="612" d="M427 682h-60l-67 73-64-73h-60l79 108h91zM306-12q-124 0-195.5 97T39 333t71.5 248T306 678t195.5-97T573 333 501.5 85 306-12zm0 99q72 0 113 69.5T460 333q0 108-41 177.5T306 580q-73 0-113.5-69T152 333q0-108 40.5-177T306 87zm99 702-39 8q15 39 70 39 30 0 48.5-12.5T503 786q0-21-18-42h-44q21 20 21 41 0 24-27 24-22 0-30-20z"/><glyph glyph-name="uni1ED5" unicode="ổ" horiz-adv-x="488" d="M370 556h-60l-67 97-64-97h-60l79 144h91zM244-12q-98 0-153.5 73T35 242t55 180.5T244 495t154-72.5T453 242 397.5 61 244-12zm0 88q52 0 79 48t27 118-27 117.5-79 47.5-79-47.5T138 242t27-118 79-48zm58 651-39 10q15 53 70 53 30 0 48.5-16.5T400 723q0-28-18-56h-44q21 25 21 54 0 32-27 32-22 0-30-26z"/><glyph glyph-name="uni1ED6" unicode="Ỗ" horiz-adv-x="612" d="M431 678h-60l-67 48-64-48h-60l79 72h91zM306-12q-124 0-195.5 97T39 333t71.5 248T306 678t195.5-97T573 333 501.5 85 306-12zm0 99q72 0 113 69.5T460 333q0 108-41 177.5T306 580q-73 0-113.5-69T152 333q0-108 40.5-177T306 87zm48 670q-34 0-62 20t-41 20q-15 0-24.5-9.5T217 760h-54q0 30 24 48.5t68 18.5q34 0 61.5-20t41.5-20q33 0 33 37h54q0-31-23.5-49T354 757z"/><glyph glyph-name="uni1ED7" unicode="ỗ" horiz-adv-x="488" d="M370 523h-60l-67 97-64-97h-60l79 144h91zM244-12q-98 0-153.5 73T35 242t55 180.5T244 495t154-72.5T453 242 397.5 61 244-12zm0 88q52 0 79 48t27 118-27 117.5-79 47.5-79-47.5T138 242t27-118 79-48zm50 606q-21 0-37.5 12.5t-24.5 28-19 28-22 12.5q-15 0-24.5-19t-9.5-56h-54q0 61 24 97.5t68 36.5q21 0 37-12.5t24.5-27.5 19.5-27.5 22-12.5q33 0 33 74h54q0-61-23.5-97.5T294 682z"/><glyph glyph-name="uni1ED8" unicode="Ộ" horiz-adv-x="612" d="M433 723h-60l-67 97-64-97h-60l79 144h91zM306-12q-124 0-195.5 97T39 333t71.5 248T306 678t195.5-97T573 333 501.5 85 306-12zm0 99q72 0 113 69.5T460 333q0 108-41 177.5T306 580q-73 0-113.5-69T152 333q0-108 40.5-177T306 87zm3-276q-23 0-40 16.5T252-133t17 40 40 17 39.5-17 16.5-40-16.5-39.5T309-189z"/><glyph glyph-name="uni1ED9" unicode="ộ" horiz-adv-x="488" d="M370 556h-60l-67 97-64-97h-60l79 144h91zM244-12q-98 0-153.5 73T35 242t55 180.5T244 495t154-72.5T453 242 397.5 61 244-12zm0 88q52 0 79 48t27 118-27 117.5-79 47.5-79-47.5T138 242t27-118 79-48zm0-265q-23 0-40 16.5T187-133t17 40 40 17 39.5-17 16.5-40-16.5-39.5T244-189z"/><glyph glyph-name="uni1EDA" unicode="Ớ" horiz-adv-x="612" d="M457 867 323 723h-68l110 144h92zM306-12q-124 0-195.5 97T39 333t71.5 248T306 678q127 0 201-105 35 32 40 67-2-2-12-2-19 0-31 13t-12 33 14 34.5 35 14.5q23 0 39-18.5t16-49.5q0-77-67-129 44-90 44-203 0-151-71.5-248T306-12zm0 99q72 0 113 69.5T460 333q0 108-41 177.5T306 580q-73 0-113.5-69T152 333q0-108 40.5-177T306 87z"/><glyph glyph-name="uni1EDB" unicode="ớ" horiz-adv-x="488" d="M395 700 261 556h-68l110 144h92zm71-169q0-70-59-122 46-69 46-167 0-108-55.5-181T244-12 90.5 61 35 242t55 180.5T244 495q80 0 135-53 34 32 38 64-2-2-12-2-19 0-31 13t-12 33 14 34.5 35 14.5q23 0 39-18.5t16-49.5zM244 76q52 0 79 48t27 118-27 117.5-79 47.5-79-47.5T138 242t27-118 79-48z"/><glyph glyph-name="uni1EDC" unicode="Ờ" horiz-adv-x="612" d="M306-12q-124 0-195.5 97T39 333t71.5 248T306 678q127 0 201-105 35 32 40 67-2-2-12-2-19 0-31 13t-12 33 14 34.5 35 14.5q23 0 39-18.5t16-49.5q0-77-67-129 44-90 44-203 0-151-71.5-248T306-12zm0 99q72 0 113 69.5T460 333q0 108-41 177.5T306 580q-73 0-113.5-69T152 333q0-108 40.5-177T306 87zm51 636h-68L155 867h93z"/><glyph glyph-name="uni1EDD" unicode="ờ" horiz-adv-x="488" d="M466 531q0-70-59-122 46-69 46-167 0-108-55.5-181T244-12 90.5 61 35 242t55 180.5T244 495q80 0 135-53 34 32 38 64-2-2-12-2-19 0-31 13t-12 33 14 34.5 35 14.5q23 0 39-18.5t16-49.5zM244 76q52 0 79 48t27 118-27 117.5-79 47.5-79-47.5T138 242t27-118 79-48zm51 480h-68L93 700h93z"/><glyph glyph-name="uni1EDE" unicode="Ở" horiz-adv-x="612" d="M306-12q-124 0-195.5 97T39 333t71.5 248T306 678q127 0 201-105 35 32 40 67-2-2-12-2-19 0-31 13t-12 33 14 34.5 35 14.5q23 0 39-18.5t16-49.5q0-77-67-129 44-90 44-203 0-151-71.5-248T306-12zm0 99q72 0 113 69.5T460 333q0 108-41 177.5T306 580q-73 0-113.5-69T152 333q0-108 40.5-177T306 87zm-30 670-39 10q15 53 70 53 30 0 48.5-16.5T374 753q0-28-18-56h-44q21 25 21 54 0 32-27 32-22 0-30-26z"/><glyph glyph-name="uni1EDF" unicode="ở" horiz-adv-x="488" d="M466 531q0-70-59-122 46-69 46-167 0-108-55.5-181T244-12 90.5 61 35 242t55 180.5T244 495q80 0 135-53 34 32 38 64-2-2-12-2-19 0-31 13t-12 33 14 34.5 35 14.5q23 0 39-18.5t16-49.5zM244 76q52 0 79 48t27 118-27 117.5-79 47.5-79-47.5T138 242t27-118 79-48zm-29 511-39 10q15 53 70 53 30 0 48.5-16.5T313 583q0-28-18-56h-44q21 25 21 54 0 32-27 32-22 0-30-26z"/><glyph glyph-name="uni1EE0" unicode="Ỡ" horiz-adv-x="612" d="M306-12q-124 0-195.5 97T39 333t71.5 248T306 678q127 0 201-105 35 32 40 67-2-2-12-2-19 0-31 13t-12 33 14 34.5 35 14.5q23 0 39-18.5t16-49.5q0-77-67-129 44-90 44-203 0-151-71.5-248T306-12zm0 99q72 0 113 69.5T460 333q0 108-41 177.5T306 580q-73 0-113.5-69T152 333q0-108 40.5-177T306 87zm51 634q-21 0-37.5 12.5t-24.5 28-19 28-22 12.5q-15 0-24.5-19t-9.5-56h-54q0 61 24 97.5t68 36.5q21 0 37-12.5t24.5-27.5 19.5-27.5 22-12.5q33 0 33 74h54q0-61-23.5-97.5T357 721z"/><glyph glyph-name="uni1EE1" unicode="ỡ" horiz-adv-x="488" d="M466 531q0-70-59-122 46-69 46-167 0-108-55.5-181T244-12 90.5 61 35 242t55 180.5T244 495q80 0 135-53 34 32 38 64-2-2-12-2-19 0-31 13t-12 33 14 34.5 35 14.5q23 0 39-18.5t16-49.5zM244 76q52 0 79 48t27 118-27 117.5-79 47.5-79-47.5T138 242t27-118 79-48zm42 478q-21 0-37.5 12.5t-24.5 28-19 28-22 12.5q-15 0-24.5-19t-9.5-56H95q0 61 24 97.5t68 36.5q21 0 37-12.5t24.5-27.5 19.5-27.5 22-12.5q33 0 33 74h54q0-61-23.5-97.5T286 554z"/><glyph glyph-name="uni1EE2" unicode="Ợ" horiz-adv-x="612" d="M306-12q-124 0-195.5 97T39 333t71.5 248T306 678q127 0 201-105 35 32 40 67-2-2-12-2-19 0-31 13t-12 33 14 34.5 35 14.5q23 0 39-18.5t16-49.5q0-77-67-129 44-90 44-203 0-151-71.5-248T306-12zm0 99q72 0 113 69.5T460 333q0 108-41 177.5T306 580q-73 0-113.5-69T152 333q0-108 40.5-177T306 87zm3-276q-23 0-40 16.5T252-133t17 40 40 17 39.5-17 16.5-40-16.5-39.5T309-189z"/><glyph glyph-name="uni1EE3" unicode="ợ" horiz-adv-x="488" d="M466 531q0-70-59-122 46-69 46-167 0-108-55.5-181T244-12 90.5 61 35 242t55 180.5T244 495q80 0 135-53 34 32 38 64-2-2-12-2-19 0-31 13t-12 33 14 34.5 35 14.5q23 0 39-18.5t16-49.5zM244 76q52 0 79 48t27 118-27 117.5-79 47.5-79-47.5T138 242t27-118 79-48zm1-265q-23 0-40 16.5T188-133t17 40 40 17 39.5-17 16.5-40-16.5-39.5T245-189z"/><glyph glyph-name="uni1EE4" unicode="Ụ" horiz-adv-x="592" d="M296-12q-109 0-170.5 62T64 224v443h111V223q0-66 31.5-101.5T296 86t89.5 35.5T417 223v444h111V224q0-112-61.5-174T296-12zm3-177q-23 0-40 16.5T242-133t17 40 40 17 39.5-17 16.5-40-16.5-39.5T299-189z"/><glyph glyph-name="uni1EE5" unicode="ụ" horiz-adv-x="485" d="M426 0H326v64q-22-32-59.5-54T185-12Q59-12 59 118v365h100V153q0-77 69-77 30 0 56.5 19t41.5 47v341h100V0zM244-189q-23 0-40 16.5T187-133t17 40 40 17 39.5-17 16.5-40-16.5-39.5T244-189z"/><glyph glyph-name="uni1EE6" unicode="Ủ" horiz-adv-x="592" d="M296-12q-109 0-170.5 62T64 224v443h111V223q0-66 31.5-101.5T296 86t89.5 35.5T417 223v444h111V224q0-112-61.5-174T296-12zm-29 769-39 10q15 53 70 53 30 0 48.5-16.5T365 753q0-28-18-56h-44q21 25 21 54 0 32-27 32-22 0-30-26z"/><glyph glyph-name="uni1EE7" unicode="ủ" horiz-adv-x="485" d="M426 0H326v64q-22-32-59.5-54T185-12Q59-12 59 118v365h100V153q0-77 69-77 30 0 56.5 19t41.5 47v341h100V0zM213 587l-39 10q15 53 70 53 30 0 48.5-16.5T311 583q0-28-18-56h-44q21 25 21 54 0 32-27 32-22 0-30-26z"/><glyph glyph-name="uni1EE8" unicode="Ứ" horiz-adv-x="592" d="M447 867 313 723h-68l110 144h92zm184-139q0-45-27-85.5T528 577V224q0-112-61.5-174T296-12 125.5 50 64 224v443h111V223q0-66 31.5-101.5T296 86t89.5 35.5T417 223v444h111v-43q47 33 54 79-4-2-12-2-19 0-31 13t-12 33 14 34 34 14q24 0 40-18t16-49z"/><glyph glyph-name="uni1EE9" unicode="ứ" horiz-adv-x="485" d="M393 700 259 556h-68l110 144h92zM426 0H326v64q-22-32-59.5-54T185-12Q59-12 59 118v365h100V153q0-77 69-77 30 0 56.5 19t41.5 47v341h100v-24q26 30 29 56l-5-1h-7q-19 0-31.5 12.5T399 559t14.5 34.5T448 608q24 0 40-18t16-49q0-82-78-136V0z"/><glyph glyph-name="uni1EEA" unicode="Ừ" horiz-adv-x="592" d="M347 723h-68L145 867h93zm284 5q0-45-27-85.5T528 577V224q0-112-61.5-174T296-12 125.5 50 64 224v443h111V223q0-66 31.5-101.5T296 86t89.5 35.5T417 223v444h111v-43q47 33 54 79-4-2-12-2-19 0-31 13t-12 33 14 34 34 14q24 0 40-18t16-49z"/><glyph glyph-name="uni1EEB" unicode="ừ" horiz-adv-x="485" d="M293 556h-68L91 700h93zM426 0H326v64q-22-32-59.5-54T185-12Q59-12 59 118v365h100V153q0-77 69-77 30 0 56.5 19t41.5 47v341h100v-24q26 30 29 56l-5-1h-7q-19 0-31.5 12.5T399 559t14.5 34.5T448 608q24 0 40-18t16-49q0-82-78-136V0z"/><glyph glyph-name="uni1EEC" unicode="Ử" horiz-adv-x="592" d="m267 757-39 10q15 53 70 53 30 0 48.5-16.5T365 753q0-28-18-56h-44q21 25 21 54 0 32-27 32-22 0-30-26zm364-29q0-45-27-85.5T528 577V224q0-112-61.5-174T296-12 125.5 50 64 224v443h111V223q0-66 31.5-101.5T296 86t89.5 35.5T417 223v444h111v-43q47 33 54 79-4-2-12-2-19 0-31 13t-12 33 14 34 34 14q24 0 40-18t16-49z"/><glyph glyph-name="uni1EED" unicode="ử" horiz-adv-x="485" d="m213 587-39 10q15 53 70 53 30 0 48.5-16.5T311 583q0-28-18-56h-44q21 25 21 54 0 32-27 32-22 0-30-26zM426 0H326v64q-22-32-59.5-54T185-12Q59-12 59 118v365h100V153q0-77 69-77 30 0 56.5 19t41.5 47v341h100v-24q26 30 29 56l-5-1h-7q-19 0-31.5 12.5T399 559t14.5 34.5T448 608q24 0 40-18t16-49q0-82-78-136V0z"/><glyph glyph-name="uni1EEE" unicode="Ữ" horiz-adv-x="592" d="M631 728q0-45-27-85.5T528 577V224q0-112-61.5-174T296-12 125.5 50 64 224v443h111V223q0-66 31.5-101.5T296 86t89.5 35.5T417 223v444h111v-43q47 33 54 79-4-2-12-2-19 0-31 13t-12 33 14 34 34 14q24 0 40-18t16-49zm-285-7q-21 0-37.5 12.5t-24.5 28-19 28-22 12.5q-15 0-24.5-19t-9.5-56h-54q0 61 24 97.5t68 36.5q21 0 37-12.5t24.5-27.5 19.5-27.5 22-12.5q33 0 33 74h54q0-61-23.5-97.5T346 721z"/><glyph glyph-name="uni1EEF" unicode="ữ" horiz-adv-x="485" d="M426 0H326v64q-22-32-59.5-54T185-12Q59-12 59 118v365h100V153q0-77 69-77 30 0 56.5 19t41.5 47v341h100v-24q26 30 29 56l-5-1h-7q-19 0-31.5 12.5T399 559t14.5 34.5T448 608q24 0 40-18t16-49q0-82-78-136V0zM293 554q-21 0-37.5 12.5t-24.5 28-19 28-22 12.5q-15 0-24.5-19t-9.5-56h-54q0 61 24 97.5t68 36.5q21 0 37-12.5t24.5-27.5 19.5-27.5 22-12.5q33 0 33 74h54q0-61-23.5-97.5T293 554z"/><glyph glyph-name="uni1EF0" unicode="Ự" horiz-adv-x="592" d="M299-189q-23 0-40 16.5T242-133t17 40 40 17 39.5-17 16.5-40-16.5-39.5T299-189zm332 917q0-45-27-85.5T528 577V224q0-112-61.5-174T296-12 125.5 50 64 224v443h111V223q0-66 31.5-101.5T296 86t89.5 35.5T417 223v444h111v-43q47 33 54 79-4-2-12-2-19 0-31 13t-12 33 14 34 34 14q24 0 40-18t16-49z"/><glyph glyph-name="uni1EF1" unicode="ự" horiz-adv-x="485" d="M244-189q-23 0-40 16.5T187-133t17 40 40 17 39.5-17 16.5-40-16.5-39.5T244-189zM426 0H326v64q-22-32-59.5-54T185-12Q59-12 59 118v365h100V153q0-77 69-77 30 0 56.5 19t41.5 47v341h100v-24q26 30 29 56l-5-1h-7q-19 0-31.5 12.5T399 559t14.5 34.5T448 608q24 0 40-18t16-49q0-82-78-136V0z"/><glyph glyph-name="Ygrave" unicode="Ỳ" horiz-adv-x="521" d="M316 0H206v278L-1 667h123l139-285 139 285h122L316 278V0zm-4 723h-68L110 867h93z"/><glyph glyph-name="ygrave" unicode="ỳ" horiz-adv-x="430" d="m42-189 15 88q13-7 32-7 40 0 55 40l20 58L2 483h106l107-363 108 363h106L238-91q-19-58-53.5-81.5T96-196q-31 0-54 7zm224 745h-68L64 700h93z"/><glyph glyph-name="thinspace" horiz-adv-x="42"/><glyph glyph-name="endash" unicode="–" horiz-adv-x="527" d="M497 199H30v86h467v-86z"/><glyph glyph-name="emdash" unicode="—" horiz-adv-x="737" d="M707 199H30v86h677v-86z"/><glyph glyph-name="afii00208" unicode="―" horiz-adv-x="527" d="M497 199H30v86h467v-86z"/><glyph glyph-name="quoteleft" unicode="‘" horiz-adv-x="243" d="M47 511q0 50 25 93.5t66 72.5l46-36q-25-16-46-42.5T113 547q6 2 16 2 25 0 41.5-17t16.5-44q0-26-19.5-45.5T121 423q-31 0-52.5 24T47 511z"/><glyph glyph-name="quoteright" unicode="’" horiz-adv-x="243" d="M194 589q0-50-25-94t-67-73l-45 37q25 15 45.5 42t25.5 52q-9-3-16-3-25 0-41.5 17.5T54 611q0 27 19 46.5t46 19.5q31 0 53-24t22-64z"/><glyph glyph-name="quotesinglbase" unicode="‚" horiz-adv-x="242" d="M194 35q0-50-25-94t-67-73L57-95q25 15 45.5 42T128-1q-6-2-16-2-25 0-41.5 17T54 58t19 46.5 46 19.5q31 0 53-24t22-65z"/><glyph glyph-name="quotereversed" unicode="‛" horiz-adv-x="243" d="M49 589q0 40 22 64t53 24q27 0 46-19.5t19-46.5q0-26-16.5-43.5T131 550q-7 0-16 3 5-25 25.5-52t45.5-42l-46-37q-41 30-66 74t-25 93z"/><glyph glyph-name="quotedblleft" unicode="“" horiz-adv-x="423" d="M49 511q0 50 25 93.5t66 72.5l46-36q-25-16-46-42.5T115 547q4 2 16 2 24 0 40.5-17t16.5-44-19-46-46-19q-31 0-52.5 24T49 511zm180 0q0 50 25 93.5t66 72.5l46-36q-25-16-45.5-42.5T296 547q4 2 16 2 24 0 40.5-17t16.5-44q0-26-19-45.5T304 423q-31 0-53 24t-22 64z"/><glyph glyph-name="quotedblright" unicode="”" horiz-adv-x="423" d="M374 589q0-49-25-93t-66-74l-46 37q25 16 46 42.5t25 51.5q-9-3-16-3-25 0-41.5 17.5T234 611q0 27 19.5 46.5T300 677q31 0 52.5-24t21.5-64zm-180 0q0-50-25-94t-67-73l-45 37q25 15 45.5 42t25.5 52q-9-3-16-3-25 0-41.5 17.5T54 611q0 27 19 46.5t46 19.5q31 0 53-24t22-64z"/><glyph glyph-name="quotedblbase" unicode="„" horiz-adv-x="423" d="M194 35q0-50-25-94t-67-73L57-95q25 15 45.5 42T128-1q-6-2-16-2-25 0-41.5 17T54 58t19 46.5 46 19.5q31 0 53-24t22-65zm180 0q0-49-25-93t-66-74l-46 37q25 16 46 42.5T308-1q-6-2-16-2-25 0-41.5 17T234 58t19.5 46.5T300 124q31 0 52.5-24T374 35z"/><glyph glyph-name="dagger" unicode="†" horiz-adv-x="270" d="m248 527-89 4 4-204h-57l5 204-89-4v52l89-3-5 101h57l-4-101 89 3v-52z"/><glyph glyph-name="daggerdbl" unicode="‡" horiz-adv-x="270" d="M248 579v-52l-89 4V327l89 4v-52l-89 3 4-102h-57l4 102-88-3v52l88-4v204l-88-4v52l88-3-4 101h57l-4-101z"/><glyph glyph-name="bullet" unicode="•" horiz-adv-x="358" d="M293 242q0-46-33-79t-80-33q-46 0-79.5 33T67 242q0 47 33 80t80 33 80-33 33-80z"/><glyph glyph-name="ellipsis" unicode="…" horiz-adv-x="726" d="M188 57q0-27-20-47.5T120-11Q93-11 73.5 9.5T54 57t19.5 47 46.5 20q28 0 48-20t20-47zm242 0q0-27-20-47.5T362-11q-27 0-46.5 20.5T296 57t19.5 47 46.5 20q28 0 48-20t20-47zm242 0q0-27-20-47.5T604-11q-27 0-46.5 20.5T538 57t19.5 47 46.5 20q28 0 48-20t20-47z"/><glyph glyph-name="perthousand" unicode="‰" horiz-adv-x="980" d="M318 511q0-71-40.5-117.5T172 347 66.5 393.5 26 511q0 72 40.5 119T172 677t105.5-47T318 511zm219 156L185 0h-56l351 667h57zm100-515q0-71-40.5-117.5T491-12 386 34.5 346 152q0 72 40 119.5T491 319t105.5-47.5T637 152zM246 511q0 47-20 76t-54 29-54-29-20-76q0-46 20.5-75t53.5-29 53.5 29 20.5 75zm320-359q0 47-20.5 76.5T491 258t-54-29-20-77q0-46 20-74.5T491 49t54.5 28.5T566 152zm388 0q0-71-40.5-117.5T808-12 703 34.5 663 152q0 72 40 119.5T808 319t105.5-47.5T954 152zm-71 0q0 47-20.5 76.5T808 258t-54-29-20-77q0-46 20-74.5T808 49t54.5 28.5T883 152z"/><glyph glyph-name="guilsinglleft" unicode="‹" horiz-adv-x="272" d="M242 63h-87L30 243l125 177h87L117 243z"/><glyph glyph-name="guilsinglright" unicode="›" horiz-adv-x="272" d="M242 243 117 63H30l125 180L30 420h87z"/><glyph glyph-name="uni203E" unicode="‾" horiz-adv-x="309" d="M309 567H0v60h309v-60z"/><glyph glyph-name="fraction" unicode="⁄" horiz-adv-x="138" d="M273 667-79 0h-57l352 667h57z"/><glyph glyph-name="zerosuperior" unicode="⁰" horiz-adv-x="337" d="M315 621q0-85-37-146t-109-61q-73 0-110 61T22 621t37 145.5T169 827q72 0 109-60.5T315 621zm-78 0q0 144-68 144-69 0-69-144 0-145 69-145 68 0 68 145z"/><glyph glyph-name="foursuperior" unicode="⁴" horiz-adv-x="337" d="M316 515h-45v-94h-76v94H24v57l147 249h100V576h45v-61zm-121 61v170L95 576h100z"/><glyph glyph-name="fivesuperior" unicode="⁵" horiz-adv-x="337" d="M308 550q0-60-39-98t-104-38q-91 0-137 65l46 48q34-51 90-51 31 0 49 21t18 51q0 34-17 53t-47 19q-43 0-73-39l-55 19v221h246v-62H116V643q29 34 79 34 48 0 80.5-33.5T308 550z"/><glyph glyph-name="sixsuperior" unicode="⁶" horiz-adv-x="337" d="M312 549q0-58-37.5-96.5T177 414q-77 0-114.5 58T25 621q0 92 43 149t121 57q65 0 106-43l-36-53q-28 34-69 34t-64-37-23-90v-11q33 54 92 54 50 0 83.5-35t33.5-97zm-77-2q0 37-18.5 55T171 620q-40 0-68-46 7-98 70-98 29 0 45.5 21.5T235 547z"/><glyph glyph-name="sevensuperior" unicode="⁷" horiz-adv-x="311" d="M287 768 154 421H74l135 338H22v62h265v-53z"/><glyph glyph-name="eightsuperior" unicode="⁸" horiz-adv-x="337" d="M310 523q0-52-39.5-80.5T168 414q-62 0-102 28t-40 81q0 36 25 65t61 39q-34 11-56.5 36T33 723q0 52 40 78t95 26q56 0 96-26t40-78q0-35-22.5-60T226 627q35-10 59.5-39t24.5-65zm-81 189q0 26-16.5 40.5T168 767q-27 0-43-14.5T109 712q0-19 13-33t24.5-19.5T168 652q11 2 23 7.5t25 19.5 13 33zm5-181q0 30-24 48.5T168 600q-18-3-41.5-21.5T103 530q0-27 18.5-42t46.5-15 47 15.5 19 42.5z"/><glyph glyph-name="ninesuperior" unicode="⁹" horiz-adv-x="337" d="M26 692q0 58 37.5 96.5T161 827q77 0 114.5-58T313 620q0-92-43-149t-121-57q-65 0-106 44l37 53q26-35 68-35 40 0 63.5 37t23.5 91v11q-14-23-38.5-39T143 560q-50 0-83.5 35T26 692zm77 3q0-38 18.5-56t45.5-18q42 0 68 47-2 39-18.5 68T166 765q-29 0-46-21.5T103 695z"/><glyph glyph-name="parenleftsuperior" unicode="⁽" horiz-adv-x="164" d="m152 374-43-18Q26 469 26 621q0 150 83 265l43-18Q97 751 97 621q0-131 55-247z"/><glyph glyph-name="parenrightsuperior" unicode="⁾" horiz-adv-x="164" d="M142 621q0-152-83-265l-43 18q56 118 56 247T16 868l43 18q83-113 83-265z"/><glyph glyph-name="nsuperior" unicode="ⁿ" horiz-adv-x="354" d="M306 326h-74v208q0 52-46 52-39 0-64-41V326H48v314h74v-41q14 20 40 34.5t55 14.5q89 0 89-91V326z"/><glyph glyph-name="zeroinferior" unicode="₀" horiz-adv-x="337" d="M315 54q0-85-37-146t-109-61q-73 0-110 61T22 54t37 145.5T169 260q72 0 109-60.5T315 54zm-78 0q0 144-68 144-69 0-69-144 0-145 69-145 68 0 68 145z"/><glyph glyph-name="oneinferior" unicode="₁" horiz-adv-x="248" d="M194-146h-77v301L55 91l-44 46 117 117h66v-400z"/><glyph glyph-name="twoinferior" unicode="₂" horiz-adv-x="337" d="M307-146H39v57Q156 17 192 60t36 80q0 27-18 42.5T165 198q-59 0-90-50l-44 47q50 65 137 65 60 0 98-30.5t38-85.5q0-46-35.5-93.5T143-84h164v-62z"/><glyph glyph-name="threeinferior" unicode="₃" horiz-adv-x="337" d="M308-36q0-52-38-84.5T167-153q-96 0-140 65l44 47q37-50 93-50 33 0 50.5 16T232-31q0 59-76 59-30 0-36-1v62q7-1 34-1 72 0 72 55 0 27-17.5 41T161 198q-51 0-87-45l-43 44q50 63 136 63 62 0 98.5-28.5T302 152q0-35-23-60.5T224 61q32-4 58-30.5T308-36z"/><glyph glyph-name="fourinferior" unicode="₄" horiz-adv-x="337" d="M316-52h-45v-94h-76v94H24V5l147 249h100V9h45v-61zM195 9v170L95 9h100z"/><glyph glyph-name="fiveinferior" unicode="₅" horiz-adv-x="337" d="M308-17q0-60-39-98t-104-38q-91 0-137 65l46 48q34-51 90-51 31 0 49 21t18 51q0 34-17 53t-47 19q-43 0-73-39L39 33v221h246v-62H116V76q29 34 79 34 48 0 80.5-33.5T308-17z"/><glyph glyph-name="sixinferior" unicode="₆" horiz-adv-x="337" d="M312-18q0-58-37.5-96.5T177-153q-77 0-114.5 58T25 54q0 92 43 149t121 57q65 0 106-43l-36-53q-28 34-69 34t-64-37-23-90V60q33 54 92 54 50 0 83.5-35T312-18zm-77-2q0 37-18.5 55T171 53q-40 0-68-46 7-98 70-98 29 0 45.5 21.5T235-20z"/><glyph glyph-name="seveninferior" unicode="₇" horiz-adv-x="311" d="M287 201 154-146H74l135 338H22v62h265v-53z"/><glyph glyph-name="eightinferior" unicode="₈" horiz-adv-x="337" d="M310-44q0-52-39.5-80.5T168-153q-62 0-102 28T26-44q0 36 25 65t61 39Q78 71 55.5 96T33 156q0 52 40 78t95 26q56 0 96-26t40-78q0-35-22.5-60T226 60q35-10 59.5-39T310-44zm-81 189q0 26-16.5 40.5T168 200q-27 0-43-14.5T109 145q0-19 13-33t24.5-19.5T168 85q11 2 23 7.5t25 19.5 13 33zm5-181q0 30-24 48.5T168 33q-18-3-41.5-21.5T103-37q0-27 18.5-42T168-94t47 15.5T234-36z"/><glyph glyph-name="nineinferior" unicode="₉" horiz-adv-x="337" d="M26 125q0 58 37.5 96.5T161 260q77 0 114.5-58T313 53q0-92-43-149t-121-57q-65 0-106 44l37 53q26-35 68-35 40 0 63.5 37T235 37v11q-14-23-38.5-39T143-7Q93-7 59.5 28T26 125zm77 3q0-38 18.5-56T167 54q42 0 68 47-2 39-18.5 68T166 198q-29 0-46-21.5T103 128z"/><glyph glyph-name="parenleftinferior" unicode="₍" horiz-adv-x="164" d="m152-193-43-18Q26-98 26 54q0 150 83 265l43-18Q97 184 97 54q0-131 55-247z"/><glyph glyph-name="parenrightinferior" unicode="₎" horiz-adv-x="164" d="M142 54q0-152-83-265l-43 18Q72-75 72 54T16 301l43 18q83-113 83-265z"/><glyph glyph-name="colonmonetary" unicode="₡" horiz-adv-x="541" d="M311-12q-3 0-7 .5t-6 .5l-24-89h-60l27 98q-29 8-54 21l-31-119H97l40 157q-98 98-98 276 0 151 72 247t194 98l25 90h60l-26-96q28-6 53-20l31 116h59l-41-153q31-32 56-84l-89-40L325 87q74 10 106 98l92-41Q455-12 311-12zm-95 140q24-24 51-34l122 455q-25 21-51 27zm-64 205q0-80 23-138l103 381q-59-16-92.5-82T152 333z"/><glyph glyph-name="frenchfranc" unicode="₣" horiz-adv-x="476" d="M187 0H76v124H14v60h62v483h365v-97H187V389h247v-98H187V184h134v-60H187V0z"/><glyph glyph-name="lira" unicode="₤" horiz-adv-x="471" d="M26 331v55h42q-21 46-21 92 0 84 61 141.5T252 677q68 0 116.5-31t69.5-89l-88-46q-11 34-34 54.5T261 586q-40 0-67.5-30T166 476q0-48 23-90h139v-55H221q16-32 21-62h86v-55h-85q-11-65-63-104 20 8 44 8 27 0 61.5-16T342 86q51 0 78 35l39-87q-40-47-124-47-42 0-85.5 22T181 31q-41 0-99-38L45 71q46 25 73.5 62.5T146 211v3H26v55h108q-8 18-35 62H26z"/><glyph glyph-name="uni20A6" unicode="₦" horiz-adv-x="616" d="M540 0H434L299 236H187V0H76v236H14v60h62v81H14v60h62v230h112l132-230h109v230h111V437h60v-60h-60v-81h60v-60h-60V0zM187 377v-81h77l-46 81h-31zm168 0 46-81h28v81h-74z"/><glyph glyph-name="peseta" unicode="₧" horiz-adv-x="565" d="M556 428h-58q-10-78-60-127t-135-49H187V0H76v428H14v63h62v176h227q85 0 135-49.5T498 491h58v-63zM187 570v-79h197q-8 36-33 57.5T290 570H187zm103-220q36 0 60.5 21t32.5 57H187v-78h103z"/><glyph glyph-name="rupee" unicode="₨" horiz-adv-x="891" d="M688-12q-113 0-177 69l45 70q23-25 58.5-42.5T686 67q37 0 58.5 17t21.5 46q0 25-24.5 42t-60 29-70.5 27.5-59.5 48T527 357q0 59 44.5 98.5T693 495q95 0 159-62l-42-68q-42 51-115 51-33 0-53.5-16T621 360q0-20 18-34.5t44.5-22.5 57.5-21.5 57.5-29.5 44.5-47 18-73q0-63-47.5-103.5T688-12zM494 0H370L257 252h-82V0H64v667h230q86 0 140-57t54-149q0-81-36-128.5T365 271zM278 350q44 0 70.5 30t26.5 80-26.5 80-70.5 30H175V350h103z"/><glyph glyph-name="uni20A9" unicode="₩" horiz-adv-x="761" d="M592 0H476l-48 237h-96L285 0H169l-54 237H22v59h80l-19 81H22v60h48L18 667h119l44-230h107l48 230h89l48-230h107l44 230h119l-52-230h45v-60h-59l-18-81h77v-59h-91zM485 377l17-81h51l16 81h-84zm-292 0 15-81h51l17 81h-83zm166 0-16-81h73l-16 81h-41zM220 237l13-68 14 68h-27zm295 0 14-68 13 68h-27zM380 479l-9-42h17z"/><glyph glyph-name="afii57636" unicode="₪" horiz-adv-x="684" d="M431 0H218v387h86V80h127q56 0 82 27.5t26 86.5v356h86V208q0-107-47-157.5T431 0zM273 550q100 0 146.5-50.5T466 342V162h-86v194q0 59-26 86.5T273 470H145V0H59v550h214z"/><glyph glyph-name="dong" unicode="₫" horiz-adv-x="502" d="M411-156H102v60h309v-60zM435 0H335v64q-22-36-55-56t-69-20q-81 0-128.5 68.5T35 241t47.5 185T211 495t124-77v114H201v60h134v75h100v-75h56v-60h-56V0zM241 76q28 0 54.5 19t39.5 47v199q-13 28-39.5 47T241 407q-50 0-76.5-46T138 241q0-72 26.5-118.5T241 76z"/><glyph glyph-name="Euro" unicode="€" horiz-adv-x="565" d="M330-12q-102 0-171 66T68 232H20v64h39q-1 12-1 37 0 27 1 40H20v64h48q23 111 92 176t170 65q141 0 211-147l-92-41q-39 90-119 90-53 0-91-38t-56-105h190v-64H173q-2-26-2-40 0-25 1-37h201v-64H182q17-67 55.5-106T330 87q42 0 72.5 27t47.5 71l92-41Q474-12 330-12z"/><glyph glyph-name="afii61289" unicode="ℓ" horiz-adv-x="456" d="M162 255V119q0-53 37-53 23 0 39 16l24-65q-29-29-87-29Q63-12 63 108v395q0 76 53.5 125T256 677q72 0 125-38t53-98q0-41-27-77t-83-81zm0 102 109 85q36 29 52 50t16 47q0 29-24.5 47T255 604q-42 0-67.5-27T162 502V357z"/><glyph glyph-name="afii61352" unicode="№" horiz-adv-x="944" d="M768 350q-67 0-106 48t-39 117q0 70 39 117.5T768 680q68 0 107-47.5T914 515t-39-117.5T768 350zm0 60q34 0 52 29t18 76-17.5 75.5T768 619q-34 0-51.5-29T699 515q0-47 17.5-76t51.5-29zM528 0H422L175 431V0H64v667h112l241-419v419h111V0z"/><glyph glyph-name="published" unicode="℗" horiz-adv-x="778" d="M734 334q0-142-101-243.5T389-11 145 90.5 44 334t101 243.5T389 679t244-101.5T734 334zm-33 0q0 128-92 220t-220 92-219.5-92T78 334t91.5-219.5T389 23t220 91.5T701 334zm-149 84q0-52-36.5-84T426 302H314V131h-41v405h153q52 0 89-32t37-86zm-42 0q0 36-24 58t-60 22H314V339h112q36 0 60 22t24 57z"/><glyph glyph-name="servicemark" unicode="℠" horiz-adv-x="425" d="M388 447h-28v182l-65-182h-8l-65 182V447h-28v220h43l54-158 54 158h43V447zm-233 57q0-29-19-46.5T84 440q-43 0-69 29l16 23q22-26 51-26 20 0 31 10t11 26q0 18-16 30.5T72 551t-36 22-16 40q0 26 19 43t48 17q41 0 63-24l-15-21q-18 20-46 20-16 0-26.5-9T52 615q0-16 16-27t35.5-18 35.5-23.5 16-42.5z"/><glyph glyph-name="trademark" unicode="™" horiz-adv-x="414" d="M379 447h-28v182l-65-182h-8l-65 182V447h-28v220h43l54-158 54 158h43V447zM149 641H97V447H69v194H17v26h132v-26z"/><glyph glyph-name="Omega" unicode="Ω" horiz-adv-x="606" d="M50 98h100Q36 187 36 356q0 146 72 234t195 88q124 0 196-88t72-234q0-169-115-258h101V0H352v98q44 20 74.5 83.5T457 334q0 111-39 178t-115 67q-75 0-114.5-67.5T149 334q0-89 30.5-152.5T255 98V0H50v98z"/><glyph glyph-name="estimated" unicode="℮" horiz-adv-x="842" d="M811 324H179q-5 0-5-5V129q0-14 9-23Q281 3 423 3q151 0 250 115h57q-54-63-135-99.5T421-18Q260-18 145.5 85T31 333t114.5 248T421 684t275.5-103T811 333v-9zm-143 25v191q0 14-10 24-97 99-235 99-140 0-239-102-10-10-10-24V349q0-6 5-6h485q4 0 4 6z"/><glyph glyph-name="onethird" unicode="⅓" horiz-adv-x="746" d="M194 267h-77v301l-62-64-44 46 117 117h66V267zm350 400L192 0h-57l352 667h57zm173-557q0-52-38-84.5T576-7q-96 0-140 65l44 47q37-50 93-50 33 0 50.5 16t17.5 44q0 59-76 59-30 0-36-1v62q7-1 34-1 72 0 72 55 0 27-17.5 41T570 344q-51 0-87-45l-43 44q50 63 136 63 62 0 98.5-28.5T711 298q0-35-23-60.5T633 207q32-4 58-30.5t26-66.5z"/><glyph glyph-name="twothirds" unicode="⅔" horiz-adv-x="812" d="M307 267H39v57q117 106 153 149t36 80q0 27-18 42.5T165 611q-59 0-90-50l-44 47q50 65 137 65 60 0 98-30.5t38-85.5q0-46-35.5-93.5T143 329h164v-62zm303 400L258 0h-57l352 667h57zm173-557q0-52-38-84.5T642-7q-96 0-140 65l44 47q37-50 93-50 33 0 50.5 16t17.5 44q0 59-76 59-30 0-36-1v62q7-1 34-1 72 0 72 55 0 27-17.5 41T636 344q-51 0-87-45l-43 44q50 63 136 63 62 0 98.5-28.5T777 298q0-35-23-60.5T699 207q32-4 58-30.5t26-66.5z"/><glyph glyph-name="oneeighth" unicode="⅛" horiz-adv-x="746" d="M194 267h-77v301l-62-64-44 46 117 117h66V267zm525-165q0-52-39.5-80.5T577-7q-62 0-102 28t-40 81q0 36 25 65t61 39q-34 11-56.5 36T442 302q0 52 40 78t95 26q56 0 96-26t40-78q0-35-22.5-60T635 206q35-10 59.5-39t24.5-65zm-81 189q0 26-16.5 40.5T577 346q-27 0-43-14.5T518 291q0-19 13-33t24.5-19.5T577 231q11 2 23 7.5t25 19.5 13 33zm5-181q0 30-24 48.5T577 179q-18-3-41.5-21.5T512 109q0-27 18.5-42T577 52t47 15.5 19 42.5zm-99 557L192 0h-57l352 667h57z"/><glyph glyph-name="threeeighths" unicode="⅜" horiz-adv-x="812" d="M785 102q0-52-39.5-80.5T643-7q-62 0-102 28t-40 81q0 36 25 65t61 39q-34 11-56.5 36T508 302q0 52 40 78t95 26q56 0 96-26t40-78q0-35-22.5-60T701 206q35-10 59.5-39t24.5-65zm-81 189q0 26-16.5 40.5T643 346q-27 0-43-14.5T584 291q0-19 13-33t24.5-19.5T643 231q11 2 23 7.5t25 19.5 13 33zm5-181q0 30-24 48.5T643 179q-18-3-41.5-21.5T578 109q0-27 18.5-42T643 52t47 15.5 19 42.5zm-99 557L258 0h-57l352 667h57zM308 377q0-52-38-84.5T167 260q-96 0-140 65l44 47q37-50 93-50 33 0 50.5 16t17.5 44q0 59-76 59-30 0-36-1v62q7-1 34-1 72 0 72 55 0 27-17.5 41T161 611q-51 0-87-45l-43 44q50 63 136 63 62 0 98.5-28.5T302 565q0-35-23-60.5T224 474q32-4 58-30.5t26-66.5z"/><glyph glyph-name="fiveeighths" unicode="⅝" horiz-adv-x="808" d="M781 102q0-52-39.5-80.5T639-7q-62 0-102 28t-40 81q0 36 25 65t61 39q-34 11-56.5 36T504 302q0 52 40 78t95 26q56 0 96-26t40-78q0-35-22.5-60T697 206q35-10 59.5-39t24.5-65zm-81 189q0 26-16.5 40.5T639 346q-27 0-43-14.5T580 291q0-19 13-33t24.5-19.5T639 231q11 2 23 7.5t25 19.5 13 33zm5-181q0 30-24 48.5T639 179q-18-3-41.5-21.5T574 109q0-27 18.5-42T639 52t47 15.5 19 42.5zM308 396q0-60-39-98t-104-38q-91 0-137 65l46 48q34-51 90-51 31 0 49 21t18 51q0 34-17 53t-47 19q-43 0-73-39l-55 19v221h246v-62H116V489q29 34 79 34 48 0 80.5-33.5T308 396zm298 271L254 0h-57l352 667h57z"/><glyph glyph-name="seveneighths" unicode="⅞" horiz-adv-x="742" d="M715 102q0-52-39.5-80.5T573-7q-62 0-102 28t-40 81q0 36 25 65t61 39q-34 11-56.5 36T438 302q0 52 40 78t95 26q56 0 96-26t40-78q0-35-22.5-60T631 206q35-10 59.5-39t24.5-65zm-81 189q0 26-16.5 40.5T573 346q-27 0-43-14.5T514 291q0-19 13-33t24.5-19.5T573 231q11 2 23 7.5t25 19.5 13 33zm5-181q0 30-24 48.5T573 179q-18-3-41.5-21.5T508 109q0-27 18.5-42T573 52t47 15.5 19 42.5zM287 614 154 267H74l135 338H22v62h265v-53zm253 53L188 0h-57l352 667h57z"/><glyph glyph-name="arrowleft" unicode="←" horiz-adv-x="582" d="M538 211H269l12-130L0 286l281 204-12-129h269V211z"/><glyph glyph-name="arrowup" unicode="↑" horiz-adv-x="582" d="M216 17v269L86 274l205 281 204-281-129 12V17H216z"/><glyph glyph-name="arrowright" unicode="→" horiz-adv-x="582" d="M584 286 303 81l12 130H47v150h268l-12 129z"/><glyph glyph-name="arrowdown" unicode="↓" horiz-adv-x="582" d="M366 555V286l130 12L291 17 87 298l129-12v269h150z"/><glyph glyph-name="partialdiff" unicode="∂" horiz-adv-x="488" d="M244-12q-98 0-153.5 70T35 230q0 101 49.5 170.5T216 470q80 0 121-72-45 145-164 235l81 49q88-81 143.5-192.5T453 248q0-115-55-187.5T244-12zm0 88q52 0 79 44t27 110q0 65-27 108.5T244 382t-79-43.5T138 230q0-66 27-110t79-44z"/><glyph glyph-name="Delta" unicode="∆" horiz-adv-x="547" d="M545 0H2l205 667h133zM402 98 273 549 146 98h256z"/><glyph glyph-name="product" unicode="∏" horiz-adv-x="615" d="M513-90H403v660H213V-90H102v660H23v97h569v-97h-79V-90z"/><glyph glyph-name="summation" unicode="∑" horiz-adv-x="464" d="m171 570 162-272L167 8h257v-98H44V10l164 288L44 570v97h380v-97H171z"/><glyph glyph-name="minus" unicode="−" horiz-adv-x="442" d="M413 305H29v65h384v-65z"/><glyph glyph-name="uni2215" unicode="∕" horiz-adv-x="138" d="M273 667-79 0h-57l352 667h57z"/><glyph glyph-name="uni2219" unicode="∙" horiz-adv-x="242" d="M188 245q0-27-19.5-47T121 178t-47.5 20T54 245t19.5 47 47.5 20 47.5-20 19.5-47z"/><glyph glyph-name="radical" unicode="√" horiz-adv-x="583" d="M352 0h-71l-94 311-121-37-17 63 184 53 85-289 171 566h71z"/><glyph glyph-name="infinity" unicode="∞" horiz-adv-x="582" d="M165 165q-67 0-101.5 50.5T29 335q0 70 34.5 120.5T165 506q82 0 126-104 18 45 51 74.5t74 29.5q68 0 102.5-50.5T553 335q0-69-34.5-119.5T416 165q-41 0-74 29t-51 75q-43-104-126-104zm242 65q36 0 57.5 29t21.5 76q0 48-21.5 77.5T407 442q-56 0-87-107 31-105 87-105zm-232-1q55 0 88 106-33 107-88 107-36 0-58-29.5T95 335q0-47 22-76.5t58-29.5z"/><glyph glyph-name="integral" unicode="∫" horiz-adv-x="301" d="M62-100H17v68h45q21 0 36.5 18T114 31v606q0 58 37.5 94.5T239 768h45v-69h-45q-21 0-36-17.5T188 637V30q0-58-37.5-94T62-100z"/><glyph glyph-name="approxequal" unicode="≈" horiz-adv-x="442" d="M29 206v70q43-25 96-25 39 0 90.5 22T316 295q55 0 97-20v-70q-44 26-97 26-39 0-90.5-22.5T125 186q-54 0-96 20zm0 187v70q43-25 96-25 39 0 90.5 22T316 482q55 0 97-20v-70q-43 25-97 25-39 0-90.5-22T125 373q-51 0-96 20z"/><glyph glyph-name="notequal" unicode="≠" horiz-adv-x="442" d="M122 93H66l59 113H29v65h130l67 126H29v65h231l59 112h57l-59-112h96v-65H282l-66-126h197v-65H182z"/><glyph glyph-name="lessequal" unicode="≤" horiz-adv-x="442" d="M413 132 29 307v71l384 175v-77L106 342l307-133v-77zm0-115H29v65h384V17z"/><glyph glyph-name="greaterequal" unicode="≥" horiz-adv-x="442" d="M412 307 29 132v77l307 133L29 476v77l383-175v-71zm0-290H29v65h383V17z"/><glyph glyph-name="triangleright" unicode="⊲" horiz-adv-x="587" d="M589 286 54-23v618z"/><glyph glyph-name="triangleleft" unicode="⊳" horiz-adv-x="587" d="M535 595V-23L0 286z"/><glyph glyph-name="dotmath" unicode="⋅" horiz-adv-x="242" d="M188 245q0-27-19.5-47T121 178t-47.5 20T54 245t19.5 47 47.5 20 47.5-20 19.5-47z"/><glyph glyph-name="uni2318" unicode="⌘" horiz-adv-x="667" d="M223 154v70h-70q-29 0-49-20.5T84 154t20-50 49-21 49.5 21 20.5 50zm0 289v71q0 29-20 49.5T154 584t-49.5-20.5T84 514t20.5-50 49.5-21h69zm42-178h137v137H265V265zm318-111q0 29-20 49.5T514 224h-70v-70q0-29 20.5-50T514 83t49 21 20 50zm0 360q0 29-20 49.5T514 584t-49.5-20.5T444 514v-71h70q29 0 49 21t20 50zm42-360q0-46-32.5-79T514 42t-79 33-33 79v70H265v-70q0-46-33-79t-79-33-78.5 33T42 154t32.5 78.5T153 265h70v137h-69q-46 0-79 33t-33 79 33 78.5 79 32.5 78.5-32.5T265 514v-71h137v71q0 46 33 78.5t79 32.5 78.5-32.5T625 514t-32.5-79-78.5-33h-70V265h70q46 0 78.5-32.5T625 154z"/><glyph glyph-name="blacksquare" unicode="■" horiz-adv-x="661" d="M618 0H47v572h571V0z"/><glyph glyph-name="triagup" unicode="▲" horiz-adv-x="616" d="M617 29-2 30l309 535z"/><glyph glyph-name="triagdn" unicode="▼" horiz-adv-x="616" d="M617 510 307-25-2 510h619z"/><glyph glyph-name="lozenge" unicode="◊" horiz-adv-x="375" d="M198 0h-21L19 334l158 333h21l158-333zm-10 41 132 293-133 292L55 334z"/><glyph glyph-name="circlesolid" unicode="●" horiz-adv-x="695" d="M644 285q0-123-87-210T347-12 137 75 50 285t87 210 210 87 210-87 87-210z"/><glyph glyph-name="blackstar" unicode="★" horiz-adv-x="759" d="M759 421 524 250l90-275-235 170L145-25l89 275L0 421h290l89 276 90-276h290z"/><glyph glyph-name="ballotbox" unicode="☐" horiz-adv-x="661" d="M616 0H45v572h571V0zm-70 65v442H115V65h431z"/><glyph glyph-name="boxchecked" unicode="☑" horiz-adv-x="661" d="m684 698-69-126h1V0H45v572h495l88 161zM546 65v378L355 91 153 337l51 48 142-173 159 295H115V65h431z"/><glyph glyph-name="diamond" unicode="♦" horiz-adv-x="501" d="M501 285 250 35 0 285l250 251z"/><glyph glyph-name="checkmark" unicode="✓" horiz-adv-x="531" d="M531 698 202 91 0 337l51 48 142-173 282 521z"/><glyph glyph-name="perthousand.onum" unicode="" horiz-adv-x="799" d="M261 424q0-59-33-97.5T141 288q-53 0-86 38.5T22 424t33 98.5 86 39.5q54 0 87-39.5t33-98.5zm256-298q0-59-33.5-98T397-11t-86.5 39-33.5 98 33.5 98.5T397 264t86.5-39.5T517 126zm-61 424L141 0H87l314 550h55zM198 424q0 37-15.5 60.5T141 508q-25 0-40.5-23.5T85 424q0-36 15.5-59t40.5-23q26 0 41.5 23t15.5 59zm256-298q0 37-16 60t-41 23q-26 0-42-23t-16-60q0-36 16-59t42-23q25 0 41 23t16 59zm324 0q0-59-33.5-98T658-11t-86 39.5-33 97.5q0 59 33 98.5t86 39.5 86.5-39.5T778 126zm-63 0q0 37-16 60t-41 23q-26 0-41.5-23T601 126q0-36 15.5-59T658 44q25 0 41 23t16 59z"/><glyph glyph-name="uniF637" unicode="" horiz-adv-x="353" d="M306 326h-74v209q0 51-47 51-39 0-64-41V326H48v434h73V599q14 20 40 34.5t56 14.5q89 0 89-90V326z"/><glyph glyph-name="zero.tzero" unicode="" horiz-adv-x="516" d="M257-12q-74 0-125 48L112 0H38l50 92q-55 93-55 241 0 65 13 124.5T84.5 567t70 80T257 677q72 0 125-47l20 37h74l-50-92q56-95 56-242 0-89-21.5-164t-74-128T257-12zm0 99q112 0 112 246 0 69-10 120L183 130q27-43 74-43zM146 333q0-71 8-119l176 322q-27 43-73 43-111 0-111-246z"/><glyph glyph-name="zero.tnum" unicode="" horiz-adv-x="516" d="M257-12q-58 0-102.5 30t-70 80.5-38.5 110T33 333t13 124.5T84.5 567t70 80T257 677q77 0 129.5-52.5t74-127.5T482 333t-21.5-164-74-128T257-12zm0 99q112 0 112 246T257 579q-111 0-111-246T257 87z"/><glyph glyph-name="two.tnum" unicode="" horiz-adv-x="516" d="M469 0H59v90q189 197 241.5 265T353 483q0 44-28 70t-68 26q-88 0-142-79l-68 69q77 108 211 108 90 0 149-52.5T466 484q0-74-52.5-152.5T221 98h248V0z"/><glyph glyph-name="three.tnum" unicode="" horiz-adv-x="516" d="M255-12q-73 0-129 30.5T39 97l68 69q55-79 143-79 55 0 82.5 28t27.5 77q0 100-116 100-49 0-58-2v100q10-1 56-1 49 0 79 23.5t30 68.5q0 48-28.5 73T247 579q-80 0-134-72l-65 64q72 106 207 106 94 0 150-46.5T461 498q0-57-36-99.5T338 345q52-8 92-52.5T470 182q0-86-58-140T255-12z"/><glyph glyph-name="four.tnum" unicode="" horiz-adv-x="516" d="M411 0H301v155H33v93l236 419h142V252h70v-97h-70V0zM301 252v300L133 252h168z"/><glyph glyph-name="five.tnum" unicode="" horiz-adv-x="516" d="M257-12Q118-12 45 95l69 70q53-78 140-78 49 0 79 35.5t30 86.5q0 58-27.5 90.5T259 332q-66 0-114-58l-81 23v370h374v-97H175V372q44 56 122 56 77 0 127.5-57.5T475 212q0-99-60-161.5T257-12z"/><glyph glyph-name="six.tnum" unicode="" horiz-adv-x="516" d="M274-12q-62 0-107.5 28t-72 77-39 109T43 333q0 150 64 247t185 97q105 0 164-77l-56-81q-41 60-107 60-65 0-101.5-67.5T155 351v-15q19 37 58.5 63.5T299 426q78 0 130-56.5T481 211q0-94-57-158.5T274-12zm-6 99q48 0 74 36t26 84q0 63-29 93.5T266 331q-34 0-62.5-23.5T156 248q2-39 11.5-72.5t35.5-61T268 87z"/><glyph glyph-name="seven.tnum" unicode="" horiz-adv-x="516" d="M250 0H131l204 570H56v97h404v-76z"/><glyph glyph-name="eight.tnum" unicode="" horiz-adv-x="516" d="M258-12q-97 0-156.5 48T42 168q0 60 37.5 107.5T171 344q-51 19-85.5 60.5T51 505q0 84 60.5 128T258 677q85 0 146-44t61-128q0-59-34.5-100.5T344 344q54-21 92-68.5T474 168q0-84-60-132T258-12zm0 397q31 7 63.5 32.5T354 487q0 42-26.5 67T258 579q-44 0-70-25t-26-67q0-44 32.5-69.5T258 385zm0-298q45 0 75 25.5t30 70.5q0 49-37 80.5T258 299q-31-4-68-35.5T153 183q0-45 29.5-70.5T258 87z"/><glyph glyph-name="nine.tnum" unicode="" horiz-adv-x="516" d="M225-11Q120-11 61 66l56 81q40-59 107-59t102.5 67T362 315v16q-20-38-59-64.5T218 240q-78 0-130 56.5T36 455q0 94 57 158.5T243 678q81 0 134.5-49.5t75-124T474 333q0-150-64.5-247T225-11zm25 347q69 0 111 82-2 40-11.5 73t-35 61-64.5 28q-48 0-74.5-36.5T149 459q0-63 28.5-93t72.5-30z"/><glyph glyph-name="percent.onum" unicode="" horiz-adv-x="538" d="M261 424q0-59-33-97.5T141 288q-53 0-86 38.5T22 424t33 98.5 86 39.5q54 0 87-39.5t33-98.5zm256-298q0-59-33.5-98T397-11t-86.5 39-33.5 98 33.5 98.5T397 264t86.5-39.5T517 126zm-63 424L138 0H84l315 550h55zM198 424q0 37-15.5 60.5T141 508q-25 0-40.5-23.5T85 424q0-36 15.5-59t40.5-23q26 0 41.5 23t15.5 59zm256-298q0 37-16 60t-41 23q-26 0-42-23t-16-60q0-36 16-59t42-23q25 0 41 23t16 59z"/><glyph glyph-name="zero.tonum" unicode="" horiz-adv-x="516" d="M482 275q0-55-13-104.5t-39-91T359.5 13 257-12q-76 0-128.5 43.5T54.5 138 33 275q0 55 13 105t38.5 91.5 70 66T257 562q76 0 128.5-43T460 413t22-138zm-113 0q0 78-27 133.5T257 464q-57 0-84-55.5T146 275q0-79 26.5-133.5T257 87t85 55 27 133z"/><glyph glyph-name="one.tonum" unicode="" horiz-adv-x="516" d="M376 0H266v406L164 299l-65 68 181 183h96V0z"/><glyph glyph-name="two.tonum" unicode="" horiz-adv-x="516" d="M447 0H62v91q283 158 283 280 0 41-26.5 67T252 464q-85 0-139-77l-68 67q76 108 212 108 90 0 145-47.5T457 388q0-68-56.5-143T238 98h209V0z"/><glyph glyph-name="three.tonum" unicode="" horiz-adv-x="516" d="M255-127q-73 0-129 30.5T39-18l68 69q55-79 143-79 55 0 82.5 28T360 77q0 100-116 100-49 0-58-2v100q10-1 56-1 49 0 79 23.5t30 68.5q0 48-28.5 73T247 464q-80 0-134-72l-65 64q72 106 207 106 94 0 150-46.5T461 383q0-57-36-99.5T338 230q52-8 92-52.5T470 67q0-86-58-140t-157-54z"/><glyph glyph-name="four.tonum" unicode="" horiz-adv-x="516" d="M481 42h-70v-159H301V42H33v94l236 414h142V140h70V42zm-180 98v295L133 140h168z"/><glyph glyph-name="five.tonum" unicode="" horiz-adv-x="516" d="M257-129Q118-129 45-22l69 70q53-78 140-78 49 0 79 35.5T363 92q0 58-27.5 90.5T259 215q-66 0-114-58l-81 23v370h374v-97H175V255q44 56 122 56 77 0 127.5-57.5T475 95q0-99-60-161.5T257-129z"/><glyph glyph-name="six.tonum" unicode="" horiz-adv-x="516" d="M274-12q-62 0-107.5 28t-72 77-39 109T43 333q0 150 64 247t185 97q105 0 164-77l-56-81q-41 60-107 60-65 0-101.5-67.5T155 351v-15q19 37 58.5 63.5T299 426q78 0 130-56.5T481 211q0-94-57-158.5T274-12zm-6 99q48 0 74 36t26 84q0 63-29 93.5T266 331q-34 0-62.5-23.5T156 248q2-39 11.5-72.5t35.5-61T268 87z"/><glyph glyph-name="seven.tonum" unicode="" horiz-adv-x="516" d="M250-117H131l204 570H56v97h404v-76z"/><glyph glyph-name="eight.tonum" unicode="" horiz-adv-x="516" d="M258-12q-97 0-156.5 48T42 168q0 60 37.5 107.5T171 344q-51 19-85.5 60.5T51 505q0 84 60.5 128T258 677q85 0 146-44t61-128q0-59-34.5-100.5T344 344q54-21 92-68.5T474 168q0-84-60-132T258-12zm0 397q31 7 63.5 32.5T354 487q0 42-26.5 67T258 579q-44 0-70-25t-26-67q0-44 32.5-69.5T258 385zm0-298q45 0 75 25.5t30 70.5q0 49-37 80.5T258 299q-31-4-68-35.5T153 183q0-45 29.5-70.5T258 87z"/><glyph glyph-name="nine.tonum" unicode="" horiz-adv-x="516" d="M225-127q-105 0-164 77l56 81q40-59 107-59t102.5 67T362 199v16q-20-38-59-64.5T218 124q-78 0-130 56.5T36 339q0 94 57 158.5T243 562q81 0 134.5-49.5t75-124T474 217q0-150-64.5-247T225-127zm25 347q69 0 111 82-2 40-11.5 73t-35 61-64.5 28q-48 0-74.5-36.5T149 343q0-63 28.5-93t72.5-30z"/><glyph glyph-name="colonmonetary.onum" unicode="" horiz-adv-x="478" d="m100-53 26 94q-90 79-90 234 0 126 63 206t170 81l10 37h47l-11-41q21-5 38-13l15 54h46l-21-79q38-32 64-86l-85-35-8 15-92-335q34 0 60 20t40 54l85-34Q397-12 272-12q-9 0-25 2l-11-43h-47l14 51q-21 6-38 15l-18-66h-47zm93 166q16-17 36-26l99 366q-15 11-38 16zm-52 162q0-63 20-111l82 303q-48-13-75-65t-27-127z"/><glyph glyph-name="Euro.onum" unicode="" horiz-adv-x="497" d="M319 307H161q-1-11-1-32 0-23 1-33h158v-51H171q14-52 45-82t75-30q34 0 60 20t40 54l85-34Q416-12 291-12q-89 0-148.5 55T63 191H20v51h36q-1 15-1 33 0 16 1 32H20v52h43q19 93 79 148t149 55q124 0 185-128l-85-35q-34 72-100 72-44 0-75-30t-46-82h149v-52z"/><glyph glyph-name="florin.onum" unicode="" horiz-adv-x="366" d="M134-119H22l72 328H53v73h57l30 131q34 148 152 148 53 0 84-31l-40-81q-9 15-31 15-40 0-56-67l-25-115h78v-73h-95z"/><glyph glyph-name="numbersign.onum" unicode="" horiz-adv-x="445" d="m427 398-15-57h-67l-36-128h68l-16-58h-69L248 0h-70l45 155h-71L108 0H38l44 155H18l15 58h67l36 128H69l15 57h68l43 152h70l-44-152h71l44 152h69l-44-152h66zm-152-57h-70l-37-128h71z"/><glyph glyph-name="sterling.onum" unicode="" horiz-adv-x="387" d="M19 226v58h49q-32 64-32 115 0 71 50 116.5T205 561q55 0 96-25t58-72l-77-36q-21 58-70 58-31 0-52.5-24.5T138 398q0-42 35-114h97v-58h-74q7-23 7-41 0-56-44-94 12 5 21 5 22 0 51-12t46-12q40 0 64 28l36-71q-34-39-106-39-35 0-68.5 16T147 22q-32 0-80-30L35 58q80 42 80 105 0 27-17 63H19z"/><glyph glyph-name="yen.onum" unicode="" horiz-adv-x="458" d="M281 0H178v111H22v57h156v61H22v57h124L-1 550h114l117-225 115 225h114L312 286h123v-57H281v-61h154v-57H281V0z"/><glyph glyph-name="cent.onum" unicode="" horiz-adv-x="478" d="M233-88v79Q141 5 88.5 83T36 275q0 115 52.5 192T233 559v62h74v-62q97-16 150-125l-85-35q-24 50-65 66V85q44 17 65 68l85-34Q406 7 307-9v-79h-74zm-92 363q0-70 24.5-121.5T233 86v378q-44-16-68-67t-24-122z"/><glyph glyph-name="zero.dnom" unicode="" horiz-adv-x="337" d="M315 200q0-85-37-146T169-7Q96-7 59 54T22 200t37 145.5T169 406q72 0 109-60.5T315 200zm-78 0q0 144-68 144-69 0-69-144 0-145 69-145 68 0 68 145z"/><glyph glyph-name="one.dnom" unicode="" horiz-adv-x="248" d="M194 0h-77v301l-62-64-44 46 117 117h66V0z"/><glyph glyph-name="two.dnom" unicode="" horiz-adv-x="337" d="M307 0H39v57q117 106 153 149t36 80q0 27-18 42.5T165 344q-59 0-90-50l-44 47q50 65 137 65 60 0 98-30.5t38-85.5q0-46-35.5-93.5T143 62h164V0z"/><glyph glyph-name="three.dnom" unicode="" horiz-adv-x="337" d="M308 110q0-52-38-84.5T167-7Q71-7 27 58l44 47q37-50 93-50 33 0 50.5 16t17.5 44q0 59-76 59-30 0-36-1v62q7-1 34-1 72 0 72 55 0 27-17.5 41T161 344q-51 0-87-45l-43 44q50 63 136 63 62 0 98.5-28.5T302 298q0-35-23-60.5T224 207q32-4 58-30.5t26-66.5z"/><glyph glyph-name="four.dnom" unicode="" horiz-adv-x="337" d="M316 94h-45V0h-76v94H24v57l147 249h100V155h45V94zm-121 61v170L95 155h100z"/><glyph glyph-name="five.dnom" unicode="" horiz-adv-x="337" d="M308 129q0-60-39-98T165-7Q74-7 28 58l46 48q34-51 90-51 31 0 49 21t18 51q0 34-17 53t-47 19q-43 0-73-39l-55 19v221h246v-62H116V222q29 34 79 34 48 0 80.5-33.5T308 129z"/><glyph glyph-name="six.dnom" unicode="" horiz-adv-x="337" d="M312 128q0-58-37.5-96.5T177-7Q100-7 62.5 51T25 200q0 92 43 149t121 57q65 0 106-43l-36-53q-28 34-69 34t-64-37-23-90v-11q33 54 92 54 50 0 83.5-35t33.5-97zm-77-2q0 37-18.5 55T171 199q-40 0-68-46 7-98 70-98 29 0 45.5 21.5T235 126z"/><glyph glyph-name="seven.dnom" unicode="" horiz-adv-x="311" d="M287 347 154 0H74l135 338H22v62h265v-53z"/><glyph glyph-name="eight.dnom" unicode="" horiz-adv-x="337" d="M310 102q0-52-39.5-80.5T168-7Q106-7 66 21t-40 81q0 36 25 65t61 39q-34 11-56.5 36T33 302q0 52 40 78t95 26q56 0 96-26t40-78q0-35-22.5-60T226 206q35-10 59.5-39t24.5-65zm-81 189q0 26-16.5 40.5T168 346q-27 0-43-14.5T109 291q0-19 13-33t24.5-19.5T168 231q11 2 23 7.5t25 19.5 13 33zm5-181q0 30-24 48.5T168 179q-18-3-41.5-21.5T103 109q0-27 18.5-42T168 52t47 15.5 19 42.5z"/><glyph glyph-name="nine.dnom" unicode="" horiz-adv-x="337" d="M26 271q0 58 37.5 96.5T161 406q77 0 114.5-58T313 199q0-92-43-149T149-7Q84-7 43 37l37 53q26-35 68-35 40 0 63.5 37t23.5 91v11q-14-23-38.5-39T143 139q-50 0-83.5 35T26 271zm77 3q0-38 18.5-56t45.5-18q42 0 68 47-2 39-18.5 68T166 344q-29 0-46-21.5T103 274z"/><glyph glyph-name="zero.numr" unicode="" horiz-adv-x="337" d="M315 467q0-85-37-146t-109-61q-73 0-110 61T22 467t37 145.5T169 673q72 0 109-60.5T315 467zm-78 0q0 144-68 144-69 0-69-144 0-145 69-145 68 0 68 145z"/><glyph glyph-name="one.numr" unicode="" horiz-adv-x="248" d="M194 267h-77v301l-62-64-44 46 117 117h66V267z"/><glyph glyph-name="two.numr" unicode="" horiz-adv-x="337" d="M307 267H39v57q117 106 153 149t36 80q0 27-18 42.5T165 611q-59 0-90-50l-44 47q50 65 137 65 60 0 98-30.5t38-85.5q0-46-35.5-93.5T143 329h164v-62z"/><glyph glyph-name="three.numr" unicode="" horiz-adv-x="337" d="M308 377q0-52-38-84.5T167 260q-96 0-140 65l44 47q37-50 93-50 33 0 50.5 16t17.5 44q0 59-76 59-30 0-36-1v62q7-1 34-1 72 0 72 55 0 27-17.5 41T161 611q-51 0-87-45l-43 44q50 63 136 63 62 0 98.5-28.5T302 565q0-35-23-60.5T224 474q32-4 58-30.5t26-66.5z"/><glyph glyph-name="four.numr" unicode="" horiz-adv-x="337" d="M316 361h-45v-94h-76v94H24v57l147 249h100V422h45v-61zm-121 61v170L95 422h100z"/><glyph glyph-name="five.numr" unicode="" horiz-adv-x="337" d="M308 396q0-60-39-98t-104-38q-91 0-137 65l46 48q34-51 90-51 31 0 49 21t18 51q0 34-17 53t-47 19q-43 0-73-39l-55 19v221h246v-62H116V489q29 34 79 34 48 0 80.5-33.5T308 396z"/><glyph glyph-name="six.numr" unicode="" horiz-adv-x="337" d="M312 395q0-58-37.5-96.5T177 260q-77 0-114.5 58T25 467q0 92 43 149t121 57q65 0 106-43l-36-53q-28 34-69 34t-64-37-23-90v-11q33 54 92 54 50 0 83.5-35t33.5-97zm-77-2q0 37-18.5 55T171 466q-40 0-68-46 7-98 70-98 29 0 45.5 21.5T235 393z"/><glyph glyph-name="seven.numr" unicode="" horiz-adv-x="311" d="M287 614 154 267H74l135 338H22v62h265v-53z"/><glyph glyph-name="eight.numr" unicode="" horiz-adv-x="337" d="M310 369q0-52-39.5-80.5T168 260q-62 0-102 28t-40 81q0 36 25 65t61 39q-34 11-56.5 36T33 569q0 52 40 78t95 26q56 0 96-26t40-78q0-35-22.5-60T226 473q35-10 59.5-39t24.5-65zm-81 189q0 26-16.5 40.5T168 613q-27 0-43-14.5T109 558q0-19 13-33t24.5-19.5T168 498q11 2 23 7.5t25 19.5 13 33zm5-181q0 30-24 48.5T168 446q-18-3-41.5-21.5T103 376q0-27 18.5-42t46.5-15 47 15.5 19 42.5z"/><glyph glyph-name="nine.numr" unicode="" horiz-adv-x="337" d="M26 538q0 58 37.5 96.5T161 673q77 0 114.5-58T313 466q0-92-43-149t-121-57q-65 0-106 44l37 53q26-35 68-35 40 0 63.5 37t23.5 91v11q-14-23-38.5-39T143 406q-50 0-83.5 35T26 538zm77 3q0-38 18.5-56t45.5-18q42 0 68 47-2 39-18.5 68T166 611q-29 0-46-21.5T103 541z"/><glyph glyph-name="Abreve.smcp" unicode="" d="M173 550h121L465 0H354l-30 107H143L113 0H1zm129-353-69 241-69-241h138zm81 469q-55-75-149-75-92 0-149 75l47 38q37-53 102-53t102 53z"/><glyph glyph-name="Amacron.smcp" unicode="" d="M388 617H79v60h309v-60zm-215-67h121L465 0H354l-30 107H143L113 0H1zm129-353-69 241-69-241h138z"/><glyph glyph-name="Aogonek.smcp" unicode="" d="M173 550h121L465 0q-67-40-67-99 0-42 33-42 28 0 38 35l44-25q-25-55-82-55-38 0-62 21t-24 63q0 56 48 102h-39l-30 107H143L113 0H1zm129-353-69 241-69-241h138z"/><glyph glyph-name="AEacute.smcp" unicode="" horiz-adv-x="669" d="M510 750 376 606h-68l110 144h92zM629 0H307v107H159L110 0H-2l267 550h364v-90H411V326h212v-90H411V90h218V0zM307 197v241L196 197h111z"/><glyph glyph-name="Cacute.smcp" unicode="" horiz-adv-x="478" d="M423 750 289 606h-68l110 144h92zM272-12q-108 0-172 80.5T36 275q0 127 63.5 207T272 562q124 0 185-128l-85-35q-34 72-100 72-60 0-95.5-54.5T141 275q0-85 35.5-140.5T272 79q34 0 60 20t40 54l85-34Q397-12 272-12z"/><glyph glyph-name="Ccaron.smcp" unicode="" horiz-adv-x="478" d="M320 606h-91l-82 144h60l67-97 64 97h60zM272-12q-108 0-172 80.5T36 275q0 127 63.5 207T272 562q124 0 185-128l-85-35q-34 72-100 72-60 0-95.5-54.5T141 275q0-85 35.5-140.5T272 79q34 0 60 20t40 54l85-34Q397-12 272-12z"/><glyph glyph-name="Ccircumflex.smcp" unicode="" horiz-adv-x="478" d="M398 606h-60l-67 97-64-97h-60l79 144h91zM272-12q-108 0-172 80.5T36 275q0 127 63.5 207T272 562q124 0 185-128l-85-35q-34 72-100 72-60 0-95.5-54.5T141 275q0-85 35.5-140.5T272 79q34 0 60 20t40 54l85-34Q397-12 272-12z"/><glyph glyph-name="Cdotaccent.smcp" unicode="" horiz-adv-x="478" d="M272-12q-108 0-172 80.5T36 275q0 127 63.5 207T272 562q124 0 185-128l-85-35q-34 72-100 72-60 0-95.5-54.5T141 275q0-85 35.5-140.5T272 79q34 0 60 20t40 54l85-34Q397-12 272-12zm1 612q-23 0-40 16.5T216 656t17 40 40 17 39.5-17 16.5-40-16.5-39.5T273 600z"/><glyph glyph-name="Dcaron.smcp" unicode="" horiz-adv-x="515" d="M299 606h-91l-82 144h60l67-97 64 97h60zM229 0H51v550h177q115 0 179.5-76.5T472 274q0-122-64.5-198T229 0zm-1 90q66 0 102 51t36 133q0 85-35 135.5T228 460h-73V90h73z"/><glyph glyph-name="Dcroat.smcp" unicode="" horiz-adv-x="532" d="M247 0H69v241H14v69h55v240h177q115 0 179.5-76.5T490 274q0-122-64.5-198T247 0zm16 241h-90V90h73q66 0 102 51t36 133q0 85-35 135.5T246 460h-73V310h90v-69z"/><glyph glyph-name="Ebreve.smcp" unicode="" horiz-adv-x="421" d="M381 0H59v550h322v-90H163V326h212v-90H163V90h218V0zm-12 666q-55-75-149-75-92 0-149 75l47 38q37-53 102-53t102 53z"/><glyph glyph-name="Ecaron.smcp" unicode="" horiz-adv-x="421" d="M268 606h-91L95 750h60l67-97 64 97h60zM381 0H59v550h322v-90H163V326h212v-90H163V90h218V0z"/><glyph glyph-name="Edotaccent.smcp" unicode="" horiz-adv-x="421" d="M381 0H59v550h322v-90H163V326h212v-90H163V90h218V0zM221 600q-23 0-40 16.5T164 656t17 40 40 17 39.5-17 16.5-40-16.5-39.5T221 600z"/><glyph glyph-name="Emacron.smcp" unicode="" horiz-adv-x="421" d="M381 0H59v550h322v-90H163V326h212v-90H163V90h218V0zm-6 617H66v60h309v-60z"/><glyph glyph-name="Eng.smcp" unicode="" horiz-adv-x="525" d="M292-196q-75 0-124 49l37 80q33-38 78-38 37 0 58.5 21.5T363-23v22L163 365V0H59v550h109l195-354v354h103V-34q0-81-46.5-121.5T292-196z"/><glyph glyph-name="Eogonek.smcp" unicode="" horiz-adv-x="421" d="m385-106 44-25q-25-55-82-55-38 0-62 21t-24 63q0 56 48 102H59v550h322v-90H163V326h212v-90H163V90h218V0q-67-40-67-99 0-42 33-42 28 0 38 35z"/><glyph glyph-name="Gbreve.smcp" unicode="" horiz-adv-x="506" d="M272-12q-107 0-171.5 79.5T36 275q0 129 64.5 208T272 562q122 0 183-119l-83-39q-37 67-100 67-60 0-95-53t-35-143q0-89 35.5-142.5T274 79q57 0 88 37v95H257v86h204V74q-78-86-189-86zm150 678q-55-75-149-75-92 0-149 75l47 38q37-53 102-53t102 53z"/><glyph glyph-name="Gcircumflex.smcp" unicode="" horiz-adv-x="506" d="M272-12q-107 0-171.5 79.5T36 275q0 129 64.5 208T272 562q122 0 183-119l-83-39q-37 67-100 67-60 0-95-53t-35-143q0-89 35.5-142.5T274 79q57 0 88 37v95H257v86h204V74q-78-86-189-86zm127 618h-60l-67 97-64-97h-60l79 144h91z"/><glyph glyph-name="Gcommaaccent.smcp" unicode="" horiz-adv-x="506" d="M272-12q-107 0-171.5 79.5T36 275q0 129 64.5 208T272 562q122 0 183-119l-83-39q-37 67-100 67-60 0-95-53t-35-143q0-89 35.5-142.5T274 79q57 0 88 37v95H257v86h204V74q-78-86-189-86zm59-126q0-42-21.5-79.5T254-280l-38 30q22 14 39.5 37.5T277-167q-1 0-6-.5t-7-.5q-20 0-33.5 13.5T217-119q0 23 15.5 38.5T270-65q25 0 43-19.5t18-53.5z"/><glyph glyph-name="Gdotaccent.smcp" unicode="" horiz-adv-x="506" d="M272-12q-107 0-171.5 79.5T36 275q0 129 64.5 208T272 562q122 0 183-119l-83-39q-37 67-100 67-60 0-95-53t-35-143q0-89 35.5-142.5T274 79q57 0 88 37v95H257v86h204V74q-78-86-189-86zm2 612q-23 0-40 16.5T217 656t17 40 40 17 39.5-17 16.5-40-16.5-39.5T274 600z"/><glyph glyph-name="Hcircumflex.smcp" unicode="" horiz-adv-x="530" d="M391 606h-60l-67 97-64-97h-60l79 144h91zM470 0H367v237H163V0H59v550h104V327h204v223h103V0z"/><glyph glyph-name="Hbar.smcp" unicode="" horiz-adv-x="556" d="M484 0H381v237H177V0H73v407H14v60h59v83h104v-83h204v83h103v-83h54v-60h-54V0zM177 327h204v80H177v-80z"/><glyph glyph-name="Ibreve.smcp" unicode="" horiz-adv-x="222" d="M163 0H59v550h104V0zm97 666q-55-75-149-75-92 0-149 75l47 38q37-53 102-53t102 53z"/><glyph glyph-name="IJ.smcp" unicode="" horiz-adv-x="584" d="M351-12q-74 0-123 50l37 79q31-38 77-38 37 0 58.5 21.5T422 161v389h104V151q0-82-47-122.5T351-12zM163 0H59v550h104V0z"/><glyph glyph-name="Imacron.smcp" unicode="" horiz-adv-x="222" d="M266 617H-43v60h309v-60zM163 0H59v550h104V0z"/><glyph glyph-name="Iogonek.smcp" unicode="" horiz-adv-x="222" d="M163 0Q96-40 96-99q0-42 33-42 28 0 38 35l44-25q-25-55-82-55-38 0-62 21t-24 63Q43-46 91 0H59v550h104V0z"/><glyph glyph-name="Itilde.smcp" unicode="" horiz-adv-x="222" d="M163 0H59v550h104V0zm-2 604q-21 0-37.5 12.5t-24.5 28-19 28T58 685q-15 0-24.5-19T24 610h-54q0 61 24 97.5T62 744q21 0 37-12.5t24.5-27.5 19.5-27.5 22-12.5q33 0 33 74h54q0-61-23.5-97.5T161 604z"/><glyph glyph-name="Jcircumflex.smcp" unicode="" horiz-adv-x="363" d="M378 606h-60l-67 97-64-97h-60l79 144h91zM129-12Q55-12 6 38l37 79q31-38 77-38 37 0 58.5 21.5T200 161v389h104V151q0-82-47-122.5T129-12z"/><glyph glyph-name="Kcommaaccent.smcp" unicode="" horiz-adv-x="475" d="M304-138q0-42-21.5-79.5T227-280l-38 30q22 14 39.5 37.5T250-167q-1 0-6-.5t-7-.5q-20 0-33.5 13.5T190-119q0 23 15.5 38.5T243-65q25 0 43-19.5t18-53.5zM468 0H347L201 221l-38-57V0H59v550h104V300l171 250h120L265 290z"/><glyph glyph-name="Lacute.smcp" unicode="" horiz-adv-x="388" d="M361 0H59v550h104V90h198V0zm0 750L227 606h-68l110 144h92z"/><glyph glyph-name="Lcaron.smcp" unicode="" horiz-adv-x="388" d="M332 486q0-42-21.5-79.5T255 344l-38 30q22 14 39.5 37.5T278 457q-1 0-6-.5t-7-.5q-20 0-33.5 13.5T218 505q0 23 15.5 38.5T271 559q25 0 43-19.5t18-53.5zM361 0H59v550h104V90h198V0z"/><glyph glyph-name="Lcommaaccent.smcp" unicode="" horiz-adv-x="388" d="M271-138q0-42-21.5-79.5T194-280l-38 30q22 14 39.5 37.5T217-167q-1 0-6-.5t-7-.5q-20 0-33.5 13.5T157-119q0 23 15.5 38.5T210-65q25 0 43-19.5t18-53.5zM361 0H59v550h104V90h198V0z"/><glyph glyph-name="Ldot.smcp" unicode="" horiz-adv-x="434" d="M361 0H59v550h104V90h198V0zm38 299q0-27-19.5-47T332 232t-47.5 20-19.5 47 19.5 47 47.5 20 47.5-20 19.5-47z"/><glyph glyph-name="Nacute.smcp" unicode="" horiz-adv-x="525" d="M413 750 279 606h-68l110 144h92zM466 0H363L163 345V0H59v550h109l195-334v334h103V0z"/><glyph glyph-name="Ncaron.smcp" unicode="" horiz-adv-x="525" d="M309 606h-91l-82 144h60l67-97 64 97h60zM466 0H363L163 345V0H59v550h109l195-334v334h103V0z"/><glyph glyph-name="Ncommaaccent.smcp" unicode="" horiz-adv-x="525" d="M325-138q0-42-21.5-79.5T248-280l-38 30q22 14 39.5 37.5T271-167q-1 0-6-.5t-7-.5q-20 0-33.5 13.5T211-119q0 23 15.5 38.5T264-65q25 0 43-19.5t18-53.5zM466 0H363L163 345V0H59v550h109l195-334v334h103V0z"/><glyph glyph-name="Obreve.smcp" unicode="" horiz-adv-x="537" d="M268-12Q159-12 97.5 68.5T36 275t61.5 206.5T268 562t171-81 62-206-62-206-171-81zm0 91q60 0 93.5 55.5T395 275q0 86-33.5 141T268 471q-61 0-94-55t-33-141q0-85 33-140.5T268 79zm150 587q-55-75-149-75-92 0-149 75l47 38q37-53 102-53t102 53z"/><glyph glyph-name="Ohungarumlaut.smcp" unicode="" horiz-adv-x="537" d="M268-12Q159-12 97.5 68.5T36 275t61.5 206.5T268 562t171-81 62-206-62-206-171-81zm0 91q60 0 93.5 55.5T395 275q0 86-33.5 141T268 471q-61 0-94-55t-33-141q0-85 33-140.5T268 79zm50 671-97-144h-57l73 144h81zm134 0-97-144h-56l72 144h81z"/><glyph glyph-name="Omacron.smcp" unicode="" horiz-adv-x="537" d="M268-12Q159-12 97.5 68.5T36 275t61.5 206.5T268 562t171-81 62-206-62-206-171-81zm0 91q60 0 93.5 55.5T395 275q0 86-33.5 141T268 471q-61 0-94-55t-33-141q0-85 33-140.5T268 79zm155 538H114v60h309v-60z"/><glyph glyph-name="Oslashacute.smcp" unicode="" horiz-adv-x="537" d="M268-12q-71 0-124 36L128 0H57l42 66q-63 80-63 209 0 126 61.5 206.5T268 562q73 0 125-37l16 25h71l-43-67q64-79 64-208 0-125-62-206T268-12zM141 275q0-66 19-113l180 280q-31 29-72 29-61 0-94-55t-33-141zM268 79q60 0 93.5 55.5T395 275q0 61-19 112L196 107q30-28 72-28zm151 671L285 606h-68l110 144h92z"/><glyph glyph-name="Racute.smcp" unicode="" horiz-adv-x="471" d="M393 750 259 606h-68l110 144h92zM437 0H321l-94 202h-64V0H59v550h202q79 0 124-49t45-124q0-66-30.5-107T325 218zM249 292q36 0 56 23.5t20 61.5q0 37-20 60t-56 23h-86V292h86z"/><glyph glyph-name="Rcaron.smcp" unicode="" horiz-adv-x="471" d="M278 606h-91l-82 144h60l67-97 64 97h60zM437 0H321l-94 202h-64V0H59v550h202q79 0 124-49t45-124q0-66-30.5-107T325 218zM249 292q36 0 56 23.5t20 61.5q0 37-20 60t-56 23h-86V292h86z"/><glyph glyph-name="Rcommaaccent.smcp" unicode="" horiz-adv-x="471" d="M294-138q0-42-21.5-79.5T217-280l-38 30q22 14 39.5 37.5T240-167q-1 0-6-.5t-7-.5q-20 0-33.5 13.5T180-119q0 23 15.5 38.5T233-65q25 0 43-19.5t18-53.5zM437 0H321l-94 202h-64V0H59v550h202q79 0 124-49t45-124q0-66-30.5-107T325 218zM249 292q36 0 56 23.5t20 61.5q0 37-20 60t-56 23h-86V292h86z"/><glyph glyph-name="Sacute.smcp" unicode="" horiz-adv-x="423" d="M364 750 230 606h-68l110 144h92zM207-12Q93-12 20 59l47 79q56-61 138-61 41 0 64 19.5t23 51.5q0 29-26 49.5T203 233t-74.5 33.5-63.5 54T39 407q0 66 50 110.5T219 562q102 0 169-61l-45-77q-49 49-122 49-33 0-54.5-17.5T145 409q0-25 26-44t63.5-34 74.5-34.5 63-56.5 26-89q0-73-50.5-118T207-12z"/><glyph glyph-name="Scedilla.smcp" unicode="" horiz-adv-x="423" d="M208-194q-55 0-94 31l21 44q34-28 71-28 21 0 35.5 10t14.5 27q0 30-30 30-18 0-30-14l-39 22 22 61Q81-2 20 59l47 79q56-61 138-61 41 0 64 19.5t23 51.5q0 29-26 49.5T203 233t-74.5 33.5-63.5 54T39 407q0 66 50 110.5T219 562q102 0 169-61l-45-77q-49 49-122 49-33 0-54.5-17.5T145 409q0-25 26-44t63.5-34 74.5-34.5 63-56.5 26-89q0-68-44-111.5T232-11l-17-43q14 11 32 11 27 0 44.5-19t17.5-49q0-37-29-60t-72-23z"/><glyph glyph-name="Scircumflex.smcp" unicode="" horiz-adv-x="423" d="M341 606h-60l-67 97-64-97H90l79 144h91zM207-12Q93-12 20 59l47 79q56-61 138-61 41 0 64 19.5t23 51.5q0 29-26 49.5T203 233t-74.5 33.5-63.5 54T39 407q0 66 50 110.5T219 562q102 0 169-61l-45-77q-49 49-122 49-33 0-54.5-17.5T145 409q0-25 26-44t63.5-34 74.5-34.5 63-56.5 26-89q0-73-50.5-118T207-12z"/><glyph glyph-name="Scommaaccent.smcp" unicode="" horiz-adv-x="423" d="M275-138q0-42-21.5-79.5T198-280l-38 30q22 14 39.5 37.5T221-167q-1 0-6-.5t-7-.5q-20 0-33.5 13.5T161-119q0 23 15.5 38.5T214-65q25 0 43-19.5t18-53.5zM207-12Q93-12 20 59l47 79q56-61 138-61 41 0 64 19.5t23 51.5q0 29-26 49.5T203 233t-74.5 33.5-63.5 54T39 407q0 66 50 110.5T219 562q102 0 169-61l-45-77q-49 49-122 49-33 0-54.5-17.5T145 409q0-25 26-44t63.5-34 74.5-34.5 63-56.5 26-89q0-73-50.5-118T207-12z"/><glyph glyph-name="Tbar.smcp" unicode="" horiz-adv-x="387" d="M245 0H142v224H62v60h80v176H19v90h349v-90H245V284h75v-60h-75V0z"/><glyph glyph-name="Tcaron.smcp" unicode="" horiz-adv-x="387" d="M242 606h-91L69 750h60l67-97 64 97h60zm3-606H142v460H19v90h349v-90H245V0z"/><glyph glyph-name="Tcommaaccent.smcp" unicode="" horiz-adv-x="387" d="M255-138q0-42-21.5-79.5T178-280l-38 30q22 14 39.5 37.5T201-167q-1 0-6-.5t-7-.5q-20 0-33.5 13.5T141-119q0 23 15.5 38.5T194-65q25 0 43-19.5t18-53.5zM245 0H142v460H19v90h349v-90H245V0z"/><glyph glyph-name="Ubreve.smcp" unicode="" horiz-adv-x="525" d="M263-12q-100 0-152 56.5T59 208v342h104V194q0-55 25.5-85T263 79q48 0 73.5 30t25.5 85v356h104V208q0-107-52-163.5T263-12zm149 678q-55-75-149-75-92 0-149 75l47 38q37-53 102-53t102 53z"/><glyph glyph-name="Uhungarumlaut.smcp" unicode="" horiz-adv-x="525" d="M263-12q-100 0-152 56.5T59 208v342h104V194q0-55 25.5-85T263 79q48 0 73.5 30t25.5 85v356h104V208q0-107-52-163.5T263-12zm47 762-97-144h-57l73 144h81zm134 0-97-144h-56l72 144h81z"/><glyph glyph-name="Umacron.smcp" unicode="" horiz-adv-x="525" d="M263-12q-100 0-152 56.5T59 208v342h104V194q0-55 25.5-85T263 79q48 0 73.5 30t25.5 85v356h104V208q0-107-52-163.5T263-12zm155 629H109v60h309v-60z"/><glyph glyph-name="Uogonek.smcp" unicode="" horiz-adv-x="525" d="m348-106 44-25q-25-55-82-55-38 0-62 21t-24 63q0 49 36 90-99 1-150 57.5T59 208v342h104V194q0-55 25.5-85T263 79q48 0 73.5 30t25.5 85v356h104V208Q466 41 344 0q-67-40-67-99 0-42 33-42 28 0 38 35z"/><glyph glyph-name="Uring.smcp" unicode="" horiz-adv-x="525" d="M263-12q-100 0-152 56.5T59 208v342h104V194q0-55 25.5-85T263 79q48 0 73.5 30t25.5 85v356h104V208q0-107-52-163.5T263-12zm1 586q-38 0-66 28t-28 67q0 38 28 66t66 28q39 0 66.5-28t27.5-66q0-39-27.5-67T264 574zm0 47q20 0 33.5 14t13.5 34-13.5 33.5T264 716q-19 0-33-14t-14-33 14-33.5 33-14.5z"/><glyph glyph-name="Utilde.smcp" unicode="" horiz-adv-x="525" d="M263-12q-100 0-152 56.5T59 208v342h104V194q0-55 25.5-85T263 79q48 0 73.5 30t25.5 85v356h104V208q0-107-52-163.5T263-12zm50 616q-21 0-37.5 12.5t-24.5 28-19 28-22 12.5q-15 0-24.5-19t-9.5-56h-54q0 61 24 97.5t68 36.5q21 0 37-12.5t24.5-27.5 19.5-27.5 22-12.5q33 0 33 74h54q0-61-23.5-97.5T313 604z"/><glyph glyph-name="Wcircumflex.smcp" unicode="" horiz-adv-x="649" d="M450 606h-60l-67 97-64-97h-60l79 144h91zM511 0H405l-81 373L244 0H137L5 550h111l80-387 87 387h83l87-388 81 388h110z"/><glyph glyph-name="Ycircumflex.smcp" unicode="" horiz-adv-x="458" d="M356 606h-60l-67 97-64-97h-60l79 144h91zM281 0H178v230L-1 550h114l117-225 115 225h114L281 230V0z"/><glyph glyph-name="Zacute.smcp" unicode="" horiz-adv-x="415" d="M358 750 224 606h-68l110 144h92zM384 0H31v78l217 382H31v90h346v-76L161 91h223V0z"/><glyph glyph-name="Zdotaccent.smcp" unicode="" horiz-adv-x="415" d="M384 0H31v78l217 382H31v90h346v-76L161 91h223V0zM207 600q-23 0-40 16.5T150 656t17 40 40 17 39.5-17 16.5-40-16.5-39.5T207 600z"/><glyph glyph-name="Idotaccent.smcp" unicode="" horiz-adv-x="222" d="M163 0H59v550h104V0zm-51 600q-23 0-40 16.5T55 656t17 40 40 17 39.5-17 16.5-40-16.5-39.5T112 600z"/><glyph glyph-name="parenleft.case" unicode="" horiz-adv-x="257" d="m238-69-67-40Q45 88 45 333q0 244 126 442l67-39q-85-195-85-403t85-402z"/><glyph glyph-name="parenright.case" unicode="" horiz-adv-x="257" d="M85-109 19-69q85 194 85 402T19 736l66 39q127-198 127-442 0-246-127-442z"/><glyph glyph-name="bracketleft.case" unicode="" horiz-adv-x="230" d="M212-100H40v868h172v-69h-99V-31h99v-69z"/><glyph glyph-name="bracketright.case" unicode="" horiz-adv-x="230" d="M190-100H17v69h99v730H17v69h173v-868z"/><glyph glyph-name="braceleft.case" unicode="" horiz-adv-x="244" d="M227-100h-45q-50 0-87.5 36T57 30v206q0 29-13.5 48.5T5 304v60q25 0 38.5 19.5T57 432v205q0 58 37.5 94.5T182 768h45v-69h-45q-21 0-36-17.5T131 637V423q0-69-46-89 46-20 46-89V30q0-27 15-44.5T182-32h45v-68z"/><glyph glyph-name="braceright.case" unicode="" horiz-adv-x="244" d="M17-100v68h45q21 0 36.5 17.5T114 30v215q0 70 45 89-45 19-45 89v214q0 27-15 44.5T62 699H17v69h45q51 0 88.5-36.5T188 637V432q0-29 13.5-48.5T240 364v-60q-25 0-38.5-19.5T188 236V30q0-58-37.5-94T62-100H17z"/><glyph glyph-name="exclamdown.case" unicode="" horiz-adv-x="242" d="m61 0 18 466h85L183 0H61zm-7 611q0 27 20 46.5t47 19.5q28 0 48-19.5t20-46.5q0-28-20-47.5T121 544q-27 0-47 19.5T54 611z"/></font>
</defs>
</svg>
